<?xml version="1.0" encoding="UTF-8" standalone="no"?>
<svg
   id="Camada_1"
   data-name="Camada 1"
   viewBox="0 0 489.92493 434"
   version="1.1"
   sodipodi:docname="withdraw_back_logo.svg"
   inkscape:version="1.3.1 (9b9bdc1480, 2023-11-25, custom)"
   width="489.92493"
   height="434"
   xmlns:inkscape="http://www.inkscape.org/namespaces/inkscape"
   xmlns:sodipodi="http://sodipodi.sourceforge.net/DTD/sodipodi-0.dtd"
   xmlns="http://www.w3.org/2000/svg"
   xmlns:svg="http://www.w3.org/2000/svg">
  <sodipodi:namedview
     id="namedview7"
     pagecolor="#ffffff"
     bordercolor="#999999"
     borderopacity="1"
     inkscape:showpageshadow="2"
     inkscape:pageopacity="0"
     inkscape:pagecheckerboard="0"
     inkscape:deskcolor="#d1d1d1"
     showguides="false"
     inkscape:zoom="0.85"
     inkscape:cx="492.35294"
     inkscape:cy="290.58824"
     inkscape:window-width="1904"
     inkscape:window-height="1032"
     inkscape:window-x="8"
     inkscape:window-y="40"
     inkscape:window-maximized="0"
     inkscape:current-layer="Camada_1" />
  <defs
     id="defs1">
    <style
       id="style1">
      .cls-1 {
        fill: #126049;
      }

      .cls-1, .cls-2, .cls-3 {
        stroke-width: 0px;
      }

      .cls-2, .cls-3 {
        fill: #fff;
      }

      .cls-3 {
        fill-rule: evenodd;
      }
    </style>
  </defs>
  <g
     id="g3"
     transform="matrix(1.4,0,0,1.4,-51.079985,-69.937781)">
    <path
       class="cls-2"
       d="m 154.49208,51.545378 c -3.73,-1.78378 -8.14,-2.15457 -12.35,-0.6614 -14.72,5.24112 -28.34,12.5366 -40.56,21.50564 -12.480004,9.15943 -23.510004,20.07259 -32.780004,32.318542 -9.270003,12.24598 -16.780003,25.83482 -22.210003,40.34561 -5.32,14.21016 -8.66,29.32223 -9.73,44.93536 v 0.02 c -1.47,21.47557 1.41,42.25968 7.87,61.49049 6.71,19.97238 17.29,38.26119 30.910003,53.90438 13.61,15.63318 30.250004,28.63076 49.080004,38.00064 18.13,9.02916 38.3,14.7012 59.75,16.17433 h 0.02 c 21.05,1.44306 41.44,-1.30277 60.35,-7.53599 19.62,-6.46372 37.64,-16.68541 53.15,-29.8734 15.51,-13.18798 28.52,-29.36231 38.08,-47.71124 9.22,-17.69756 15.25,-37.42943 17.26,-58.50415 0.05,-0.51109 0.07,-1.05224 0.08,-1.63347 0,-0.58123 -0.02,-1.21257 -0.06,-1.87398 l -0.09,-1.36289 11.35,11.37414 c 2.47,2.47525 5.73,3.71789 8.98,3.71789 3.25,0 6.51,-1.24264 8.98,-3.71789 l 0.15,-0.15032 c 2.47,-2.47525 3.71,-5.74218 3.71,-8.9991 0,-3.25691 -1.24,-6.52384 -3.71,-8.99909 l -46.12,-46.21808 -46.12,46.21808 c -2.47,2.47525 -3.71,5.74218 -3.71,8.99909 0,3.25692 1.24,6.52385 3.71,8.9991 l 0.15,0.15032 c 2.47,2.47525 5.73,3.71789 8.98,3.71789 3.25,0 6.51,-1.24264 8.98,-3.71789 l 13.24,-13.26816 -0.3,1.62345 c -0.07,0.37079 -0.13,0.74157 -0.18,1.09232 -0.05,0.35074 -0.09,0.69146 -0.12,1.00212 -1.6,16.76558 -6.4,32.4689 -13.75,46.5588 -7.62,14.61101 -17.98,27.48833 -30.34,38.00064 -12.25,10.4121 -26.46,18.49926 -41.94,23.66021 -14.93,4.97055 -31.02,7.22533 -47.65,6.20316 h -0.03 c -0.28,-0.0401 -0.57,-0.0601 -0.84,-0.0802 -0.3,-0.02 -0.58,-0.0301 -0.85,-0.0401 h -0.03 c -16.93,-1.2727 -32.84,-5.83238 -47.15,-13.01763 -14.85,-7.45582 -27.98,-17.72761 -38.720004,-30.08383 -10.73,-12.32616 -19.08,-26.73674 -24.42,-42.49017 -5.14,-15.1722 -7.48,-31.57701 -6.44,-48.56305 v -0.0301 c 0.04,-0.29061 0.06,-0.57121 0.08,-0.85181 0.02,-0.30063 0.03,-0.59125 0.04,-0.86182 v -0.0301 c 0.92,-12.31613 3.6,-24.21138 7.82,-35.38509 4.3,-11.4042 10.21,-22.06682 17.48,-31.67722 7.360004,-9.73065 16.130004,-18.38902 26.070004,-25.674442 9.73,-7.13514 20.59,-12.93745 32.35,-17.12634 4.21,-1.48315 7.42,-4.53964 9.2,-8.27757 1.78,-3.73793 2.15,-8.15731 0.66,-12.37626 -1.48,-4.21895 -4.53,-7.43578 -8.26,-9.21957"
       id="path2" />
  </g>
</svg>
