<svg width="104" height="104" viewBox="0 0 104 104" fill="none" xmlns="http://www.w3.org/2000/svg">
    <path
        d="M67.1459 25.74C67.1484 30.264 65.7855 34.6836 63.2354 38.4204C60.6852 42.1573 57.0667 45.0375 52.853 46.6843C48.6393 48.3312 44.0267 48.668 39.6185 47.6507C35.2103 46.6333 31.2117 44.3093 28.1459 40.9825C25.6574 38.2922 23.8641 35.0345 22.9219 31.4929C21.9798 27.9514 21.9174 24.2332 22.7401 20.6621C23.5628 17.0909 25.2458 13.7748 27.6425 11.0025C30.0393 8.23018 33.0772 6.08554 36.492 4.75521C39.9067 3.42488 43.5948 2.94917 47.2354 3.36947C50.8759 3.78978 54.3586 5.09336 57.3804 7.16678C60.4022 9.24021 62.8715 12.0207 64.5735 15.2662C66.2754 18.5117 67.1585 22.124 67.1459 25.7887V25.74Z"
        fill="#FCD8AA" />
    <path
        d="M78.0812 58.76C76.9788 58.5908 75.8653 58.5039 74.75 58.5C71.3168 58.5002 67.9353 59.3371 64.8984 60.9384C61.8614 62.5396 59.2605 64.857 57.3208 67.6897C55.3811 70.5225 54.161 73.7853 53.7662 77.1958C53.3714 80.6062 53.8138 84.0615 55.055 87.2625C55.8329 89.3123 56.9298 91.2263 58.305 92.9338C54.08 93.1775 49.4487 93.145 44.59 93.145C24.4888 93.1775 8.125 93.6813 8.125 73.515C8.13633 66.7836 10.0074 60.1863 13.5316 54.4512C17.0558 48.7161 22.0961 44.0663 28.0963 41.015C30.201 43.3014 32.7571 45.1264 35.6031 46.3747C38.449 47.6231 41.5229 48.2676 44.6306 48.2676C47.7383 48.2676 50.8122 47.6231 53.6582 46.3747C56.5041 45.1264 59.0602 43.3014 61.165 41.015C68.6811 44.8026 74.6572 51.0715 78.0812 58.76Z"
        fill="#136048" />
    <path
        d="M95.875 79.625C95.8752 83.9868 94.5253 88.2417 92.0105 91.8055C89.4958 95.3694 85.9395 98.0675 81.83 99.5293C77.7205 100.991 73.2592 101.145 69.0587 99.9699C64.8582 98.7948 61.1244 96.3483 58.37 92.9662C55.3006 89.1975 53.6248 84.4855 53.625 79.625C53.625 76.8508 54.1714 74.1038 55.233 71.5408C56.2947 68.9778 57.8507 66.649 59.8124 64.6874C63.7741 60.7257 69.1473 58.5 74.75 58.5C75.8382 58.5079 76.9244 58.5948 78 58.76C82.978 59.5351 87.5151 62.0637 90.7928 65.8897C94.0705 69.7156 95.873 74.587 95.875 79.625Z"
        fill="white" />
    <path d="M28.0957 44.1837H28.112L28.0957 37.6837V44.1837Z" fill="#99D492" />
    <path
        d="M74.3855 64.5294C65.3824 64.5294 58.084 71.8858 58.084 80.9603C58.084 90.0349 65.3824 97.3913 74.3855 97.3913C83.3885 97.3913 90.6869 90.0349 90.6869 80.9603C90.6869 71.8858 83.3885 64.5294 74.3855 64.5294ZM72.0567 88.1445L64.9998 81.0315L67.4697 78.5419L72.0566 83.1653L80.719 74.4342L83.189 76.9238L72.0567 88.1445Z"
        fill="#A8CA4C" />
</svg>
