<svg width="224" height="224" viewBox="0 0 224 224" fill="none" xmlns="http://www.w3.org/2000/svg">
    <ellipse cx="112.857" cy="111.498" rx="97.9235" ry="100.448" fill="#136048"/>
    <ellipse cx="112.867" cy="112.294" rx="81.6286" ry="83.1846" fill="#136048"/>
    <ellipse cx="112.042" cy="110.674" rx="62.7775" ry="63.3978" fill="#136048"/>
    <rect x="71.6797" y="59.2646" width="80.64" height="102.457" rx="7" fill="#005098"/>
    <rect x="75.6641" y="64.2871" width="72.6756" height="92.4126" rx="7" fill="#136048"/>
    <rect x="75.6641" y="64.2871" width="72.6756" height="89.3991" rx="7" fill="#EDEDED"/>
    <rect x="75.6641" y="64.2871" width="72.6756" height="86.3857" rx="7" fill="white"/>
    <rect x="110.507" y="137.614" width="14.9333" height="4.01794" rx="2.00897" fill="#F2F2F2"/>
    <rect x="86.6133" y="137.614" width="20.9067" height="4.01794" rx="2.00897" fill="#C6C6C6"/>
    <rect x="86.6133" y="129.578" width="42.8089" height="4.01794" rx="2.00897" fill="#C6C6C6"/>
    <rect x="128.427" y="111.498" width="12.9422" height="4.01794" rx="2.00897" fill="#F2F2F2"/>
    <rect x="86.6133" y="111.498" width="39.8222" height="4.01794" rx="2.00897" fill="#C6C6C6"/>
    <rect x="112.496" y="103.462" width="13.9378" height="4.01794" rx="2.00897" fill="#F2F2F2"/>
    <rect x="86.6133" y="103.462" width="23.8933" height="4.01794" rx="2.00897" fill="#C6C6C6"/>
    <rect x="86.6133" y="81.3633" width="23.8933" height="5.02242" rx="2.51121" fill="#C6C6C6"/>
    <rect x="114.488" y="81.3633" width="6.96889" height="5.02242" rx="2.51121" fill="#C6C6C6"/>
    <path d="M90.5938 61.2471C90.5938 57.9334 93.28 55.2471 96.5938 55.2471H127.403C130.716 55.2471 133.403 57.9334 133.403 61.2471V65.3009C133.403 66.4054 132.507 67.3009 131.403 67.3009H92.5938C91.4892 67.3009 90.5938 66.4055 90.5938 65.3009V61.2471Z" fill="#005098"/>
    <path d="M118.46 55.2468C118.46 58.5972 115.773 61.2827 112.496 61.2827C109.218 61.2827 106.531 58.5972 106.531 55.2468C106.531 51.8964 109.218 49.2109 112.496 49.2109C115.773 49.2109 118.46 51.8964 118.46 55.2468Z" fill="white" stroke="#005098" stroke-width="4"/>
    <g filter="url(#filter0_d_1_3858)">
        <path d="M166.713 163.819L150.24 134.81C149.322 133.192 147.172 133.192 146.253 134.81L129.78 163.819C128.807 165.532 129.932 167.749 131.773 167.749H164.72C166.562 167.749 167.686 165.532 166.713 163.819Z" fill="#FFCE00"/>
    </g>
    <path d="M136.294 163.819L151.504 137.035L150.24 134.81C149.322 133.192 147.172 133.192 146.253 134.81L129.78 163.819C128.807 165.532 129.932 167.749 131.773 167.749H138.288C136.446 167.749 135.322 165.532 136.294 163.819Z" fill="#ECC71A"/>
    <path d="M150.256 160.638C150.256 161.741 149.323 162.71 148.229 162.71C147.056 162.71 146.176 161.741 146.176 160.638C146.176 159.508 147.056 158.566 148.229 158.566C149.323 158.566 150.256 159.508 150.256 160.638ZM149.749 155.525C149.749 156.359 148.843 156.709 148.203 156.709C147.349 156.709 146.629 156.359 146.629 155.525C146.629 152.323 146.256 147.721 146.256 144.519C146.256 143.47 147.109 142.878 148.203 142.878C149.243 142.878 150.123 143.47 150.123 144.519C150.123 147.721 149.749 152.323 149.749 155.525Z" fill="white"/>
    <defs>
        <filter id="filter0_d_1_3858" x="105.168" y="109.342" width="86.1573" height="82.6603" filterUnits="userSpaceOnUse" color-interpolation-filters="sRGB">
            <feFlood flood-opacity="0" result="BackgroundImageFix"/>
            <feColorMatrix in="SourceAlpha" type="matrix" values="0 0 0 0 0 0 0 0 0 0 0 0 0 0 0 0 0 0 127 0" result="hardAlpha"/>
            <feOffset/>
            <feGaussianBlur stdDeviation="12.127"/>
            <feColorMatrix type="matrix" values="0 0 0 0 0.541667 0 0 0 0 0.541667 0 0 0 0 0.541667 0 0 0 0.51 0"/>
            <feBlend mode="normal" in2="BackgroundImageFix" result="effect1_dropShadow_1_3858"/>
            <feBlend mode="normal" in="SourceGraphic" in2="effect1_dropShadow_1_3858" result="shape"/>
        </filter>
    </defs>
</svg>
