<svg width="100" height="100" viewBox="0 0 100 100" fill="none" xmlns="http://www.w3.org/2000/svg">
    <g clip-path="url(#clip0_10_26914)">
        <path
            d="M100.001 49.9996C100.001 77.614 77.6152 99.9992 50.0016 99.9992C22.3872 99.9992 0.00195312 77.614 0.00195312 49.9996C0.00195312 22.3852 22.3872 0 50.0016 0C77.6152 0 100.001 22.3852 100.001 49.9996Z"
            fill="white" />
        <path
            d="M50.0016 96.093C23.0418 96.093 1.0693 74.7545 0.0431516 48.0465C0.0179747 48.695 0.00195312 49.345 0.00195312 49.9996C0.00195312 77.6132 22.3872 99.9992 50.0016 99.9992C77.6152 99.9992 100.001 77.6132 100.001 49.9996C100.001 49.345 99.9844 48.695 99.9592 48.0465C98.9331 74.7545 76.9606 96.093 50.0016 96.093Z"
            fill="#D9D9D9" />
        <path
            d="M63.1693 20.0363C62.6009 17.839 60.1756 14.7239 50.9868 14.7239C36.7901 14.7239 34.7684 16.8266 30.9903 13.1958C27.8028 10.1326 25.9305 24.8755 30.1808 29.5577C28.3872 36.1891 29.8223 42.8312 29.8223 42.8312H69.7656C69.7649 42.8312 73.1172 27.3162 63.1693 20.0363Z"
            fill="#136048" />
        <path
            d="M30.9896 16.7409C34.7684 20.3717 36.7894 18.2691 50.9861 18.2691C60.1756 18.2691 62.601 21.3834 63.1686 23.5814C68.4596 27.4525 69.9885 33.6529 70.2601 38.6104C70.5271 33.482 69.8344 24.9135 63.1686 20.0368C62.601 17.8388 60.1756 14.7245 50.9861 14.7245C36.7894 14.7245 34.7684 16.8264 30.9896 13.1956C28.8946 11.1822 27.3687 16.8607 27.7746 22.3203C28.0691 18.2836 29.3554 15.1701 30.9896 16.7409Z"
            fill="#136048" />
        <path
            d="M33.8545 43.5284C33.8545 43.5284 32.1326 40.3744 28.6887 40.3744C25.2448 40.3744 22.8049 55.5156 33.8545 52.9918V43.5284Z"
            fill="#FFE4D1" />
        <path
            d="M65.7305 43.5284C65.7305 43.5284 67.4524 40.3744 70.8963 40.3744C74.3409 40.3744 76.78 55.5156 65.7305 52.9918V43.5284Z"
            fill="#FFE4D1" />
        <path
            d="M49.7927 23.2389C23.4074 23.2389 28.4519 66.5125 49.7927 66.5125C71.1327 66.5125 76.178 23.2389 49.7927 23.2389Z"
            fill="#FFEFE4" />
        <path
            d="M49.7929 20.8837C49.7929 20.8837 31.8457 18.3515 31.8457 41.3791C31.8457 41.3791 34.1055 31.8615 39.2896 29.266C41.7043 28.0568 42.5886 31.12 49.7929 31.12C56.9966 31.12 57.8816 28.0568 60.2955 29.266C65.4804 31.8615 67.7394 41.3791 67.7394 41.3791C67.7394 18.3515 49.7929 20.8837 49.7929 20.8837Z"
            fill="#136048" />
        <path
            d="M86.099 84.5932C84.8165 81.4507 82.211 78.9315 78.8457 77.8253L62.6319 72.4977C61.1022 71.9949 60.0631 70.5736 60.0486 68.963L59.9906 62.4155C57.2807 64.8554 53.907 66.3675 49.9618 66.4026C46.0175 66.4369 42.6178 64.9843 39.8644 62.5933L39.9201 68.9111C39.9346 70.5461 38.8894 72.0025 37.3353 72.513L21.1275 77.8283C17.7699 78.93 15.1667 81.4377 13.8789 84.5696C22.9807 94.0773 35.7987 99.9992 50.0008 99.9992C64.1898 99.9992 76.9979 94.0872 86.099 84.5932Z"
            fill="#136048" />
        <path
            d="M51.7479 99.9657C52.0355 99.9558 52.3231 99.9466 52.6092 99.9321C52.7786 99.9237 52.9472 99.91 53.1158 99.9001C53.3783 99.884 53.6407 99.8696 53.9024 99.849C54.0794 99.8352 54.2549 99.8169 54.4319 99.8016C54.6836 99.7795 54.9354 99.7589 55.1864 99.733C55.3672 99.7147 55.5473 99.6918 55.7273 99.6712C55.9722 99.6437 56.2164 99.617 56.4598 99.5857C56.6429 99.5621 56.8252 99.5346 57.0068 99.5087C57.2463 99.4751 57.4859 99.4423 57.7247 99.4057C57.907 99.3775 58.0879 99.3454 58.2694 99.3157C58.5067 99.276 58.744 99.2378 58.9797 99.1944C59.1605 99.1615 59.3398 99.1257 59.5206 99.0914C59.7556 99.0456 59.9898 99.0013 60.2233 98.9525C60.4026 98.9159 60.5804 98.8754 60.7589 98.8365C60.9916 98.7854 61.225 98.7343 61.457 98.6801C61.6332 98.6389 61.8087 98.5947 61.9842 98.552C62.2161 98.4947 62.448 98.4375 62.6799 98.3773C62.8531 98.3315 63.0256 98.2834 63.198 98.2369C63.4291 98.1735 63.6603 98.1102 63.8907 98.0438C64.0601 97.995 64.2287 97.9431 64.3981 97.8928C64.6292 97.8234 64.8604 97.7539 65.0901 97.6815C65.2556 97.6288 65.4204 97.5746 65.5852 97.5205C65.8164 97.4449 66.0468 97.3687 66.2764 97.2893C66.4382 97.2336 66.5984 97.1764 66.7594 97.1192C66.9905 97.0375 67.2209 96.9536 67.4506 96.8689C67.6077 96.8102 67.7649 96.7499 67.9221 96.6896C68.1517 96.6011 68.3814 96.5119 68.6102 96.4203C68.7636 96.3585 68.9169 96.2952 69.0695 96.2326C69.2999 96.1373 69.5296 96.0404 69.7584 95.942C69.9072 95.8786 70.0545 95.8138 70.2017 95.7482C70.4329 95.6467 70.6625 95.543 70.8914 95.4377C71.0348 95.3713 71.1783 95.3049 71.3202 95.237C71.5521 95.1279 71.7833 95.0165 72.0129 94.9036C72.1502 94.8365 72.2868 94.7686 72.4234 94.6999C72.6561 94.5832 72.8872 94.4642 73.1176 94.3444C73.2496 94.275 73.3816 94.2055 73.5128 94.1353C73.7455 94.011 73.9767 93.8851 74.2071 93.7577C74.3338 93.6875 74.4604 93.6165 74.5871 93.5448C74.819 93.4136 75.0509 93.2801 75.2806 93.1443C75.4019 93.0733 75.5232 93.0024 75.6445 92.9299C75.8779 92.7903 76.1106 92.6476 76.3418 92.5042C76.4562 92.4332 76.5707 92.3615 76.6844 92.2898C76.9193 92.141 77.1528 91.99 77.3847 91.8374C77.4931 91.7664 77.6014 91.6962 77.709 91.6245C77.9447 91.4674 78.1789 91.3071 78.4116 91.1462C78.5131 91.0752 78.6153 91.0058 78.716 90.9348C78.9541 90.7678 79.1898 90.5976 79.424 90.4267C79.5179 90.3588 79.6117 90.2909 79.7048 90.2223C79.9451 90.0445 80.1832 89.8637 80.4204 89.6813C80.5051 89.6165 80.5906 89.5516 80.6753 89.486C80.9186 89.2968 81.159 89.1046 81.3985 88.9115C81.4748 88.8497 81.5526 88.7887 81.6289 88.7261C81.8761 88.524 82.121 88.3187 82.3644 88.1112C82.43 88.0555 82.4964 88.0006 82.5612 87.9449C82.8145 87.7267 83.0648 87.5062 83.3135 87.2842C83.3677 87.2354 83.4226 87.1881 83.476 87.1392C83.7362 86.905 83.9925 86.6677 84.2473 86.4282C84.2885 86.3893 84.3305 86.3511 84.3717 86.313C84.6425 86.0566 84.9095 85.7965 85.175 85.534C85.1979 85.5104 85.2223 85.4883 85.246 85.4654C85.5321 85.18 85.8151 84.8924 86.0951 84.6002C86.0967 84.5987 86.0982 84.5971 86.099 84.5964C85.7358 83.7053 85.262 82.8668 84.699 82.094C75.7078 90.7609 63.4772 96.093 50.0008 96.093C36.5144 96.093 24.2762 90.7533 15.2842 82.0734C14.7197 82.8439 14.2444 83.6809 13.8789 84.5697C13.8812 84.5727 13.885 84.5758 13.8873 84.5781C14.165 84.868 14.4465 85.1549 14.7311 85.4387C14.7631 85.4707 14.7967 85.502 14.8288 85.534C15.0851 85.7873 15.343 86.0391 15.6047 86.287C15.6573 86.3366 15.7107 86.3855 15.7634 86.4343C16.0067 86.6632 16.2516 86.8905 16.4996 87.1148C16.566 87.1751 16.6331 87.2331 16.7002 87.2934C16.936 87.5047 17.1733 87.7145 17.4136 87.9205C17.4914 87.9884 17.5715 88.054 17.6501 88.1204C17.8805 88.3164 18.1124 88.5118 18.3466 88.7033C18.4351 88.7765 18.5259 88.8475 18.6144 88.9192C18.8418 89.1023 19.0691 89.2846 19.2995 89.4639C19.3964 89.5402 19.4949 89.6134 19.5925 89.689C19.8168 89.8614 20.0426 90.033 20.2708 90.2017C20.3753 90.2795 20.4821 90.3558 20.5874 90.4328C20.8102 90.5953 21.0337 90.7563 21.2588 90.915C21.3717 90.9943 21.4861 91.0722 21.5998 91.1507C21.8203 91.3041 22.0431 91.4559 22.2666 91.6055C22.3856 91.6848 22.5054 91.7626 22.6252 91.8412C22.8457 91.9862 23.0669 92.1296 23.2897 92.2715C23.4156 92.3508 23.5422 92.4294 23.6689 92.508C23.8886 92.6446 24.1091 92.7796 24.3303 92.9124C24.4623 92.9909 24.5951 93.0688 24.7271 93.1466C24.946 93.2755 25.1673 93.4029 25.3885 93.5288C25.5251 93.6066 25.6617 93.6822 25.799 93.7585C26.0195 93.8805 26.2407 94.0018 26.4635 94.1201C26.6039 94.1956 26.7458 94.2696 26.8869 94.3436C27.1082 94.4588 27.3294 94.5725 27.5522 94.6854C27.6979 94.7587 27.8452 94.8319 27.9924 94.9036C28.2129 95.012 28.4349 95.1195 28.6569 95.224C28.808 95.2958 28.9591 95.3667 29.1109 95.4361C29.3321 95.5376 29.5534 95.6383 29.7762 95.7367C29.9318 95.8054 30.0874 95.8741 30.2438 95.9412C30.4651 96.0366 30.6871 96.1297 30.9106 96.222C31.0701 96.2883 31.2311 96.354 31.392 96.4188C31.6133 96.5073 31.8353 96.5943 32.0581 96.6797C32.2221 96.743 32.3861 96.8056 32.5517 96.8674C32.7745 96.9498 32.998 97.0307 33.2216 97.1108C33.3886 97.1703 33.5565 97.2298 33.7243 97.2878C33.9479 97.3648 34.1722 97.4388 34.3972 97.5128C34.5681 97.5685 34.739 97.625 34.9107 97.6792C35.135 97.7501 35.3601 97.818 35.5851 97.8859C35.7598 97.9386 35.9338 97.9912 36.11 98.0423C36.3351 98.1072 36.5617 98.169 36.7875 98.2315C36.9653 98.2796 37.1415 98.3292 37.3193 98.3757C37.5466 98.4345 37.7747 98.4909 38.0029 98.5474C38.1822 98.5916 38.3614 98.6367 38.5415 98.6786C38.7696 98.732 38.9993 98.7824 39.2289 98.8327C39.4112 98.8724 39.5928 98.9136 39.7759 98.9517C40.0056 98.999 40.2367 99.0433 40.4671 99.0883C40.651 99.1234 40.8349 99.16 41.0195 99.1936C41.2514 99.2363 41.4849 99.2737 41.7183 99.3126C41.9037 99.3439 42.0884 99.3759 42.2745 99.4049C42.5103 99.4415 42.7468 99.4736 42.9833 99.5072C43.1687 99.5331 43.3533 99.5613 43.5395 99.585C43.779 99.6155 44.0209 99.6422 44.2627 99.6697C44.4466 99.691 44.6297 99.7139 44.8143 99.733C45.0615 99.7582 45.3102 99.7788 45.559 99.8009C45.7382 99.8169 45.9175 99.8345 46.0984 99.849C46.3585 99.8696 46.6194 99.8833 46.8811 99.9001C47.0505 99.9107 47.2206 99.9237 47.3908 99.9321C47.6814 99.9474 47.9736 99.9565 48.2651 99.9664C48.4078 99.971 48.5489 99.9786 48.6916 99.9825C49.1264 99.9939 49.5628 100 50.0008 100C50.4379 100 50.8743 99.9939 51.3092 99.9832C51.4557 99.9786 51.6014 99.971 51.7479 99.9657Z"
            fill="#136048" />
        <path
            d="M49.4045 86.6852C57.7182 86.6852 64.8097 81.4667 67.5921 74.1281L62.6307 72.4977C61.1011 71.9949 60.0619 70.5728 60.0482 68.963L59.9902 62.4155C57.2795 64.8554 53.9066 66.3675 49.9615 66.4026C46.0163 66.4369 42.6167 64.9843 39.864 62.5933L39.9197 68.9111C39.9342 70.5461 38.889 72.0025 37.3349 72.513L31.3535 74.4745C34.2252 81.63 41.2221 86.6852 49.4045 86.6852Z"
            fill="#FFE4D1" />
        <path
            d="M50.0016 3.90622C76.9606 3.90622 98.9331 25.2447 99.9592 51.9527C99.9844 51.3042 100.001 50.6542 100.001 49.9996C100.001 22.386 77.6152 0 50.0016 0C22.3872 0 0.00195312 22.386 0.00195312 49.9996C0.00195312 50.6542 0.0179747 51.3042 0.0431516 51.9527C1.0693 25.2447 23.0418 3.90622 50.0016 3.90622Z"
            fill="#D9D9D9" />
    </g>
    <defs>
        <clipPath id="clip0_10_26914">
            <rect width="100" height="100" fill="white" />
        </clipPath>
    </defs>
</svg>
