<svg width="225" height="224" viewBox="0 0 225 224" fill="none" xmlns="http://www.w3.org/2000/svg">
<path fill-rule="evenodd" clip-rule="evenodd" d="M154.88 44C153.889 44 153.087 44.8028 153.087 45.793V47.9673L151.29 47.9673C150.302 47.9673 149.5 48.7689 149.5 49.7577C149.5 50.7465 150.302 51.5481 151.29 51.5481H153.087V53.5843C153.087 54.5746 153.889 55.3773 154.88 55.3773C155.87 55.3773 156.673 54.5746 156.673 53.5843V51.5481H158.468C159.457 51.5481 160.258 50.7465 160.258 49.7577C160.258 48.7689 159.457 47.9673 158.468 47.9673L156.673 47.9673V45.793C156.673 44.8028 155.87 44 154.88 44Z" fill="#FFCE00"/>
<path fill-rule="evenodd" clip-rule="evenodd" d="M66.678 145C65.6878 145 64.885 145.803 64.885 146.793V148.967L63.0902 148.967C62.1014 148.967 61.2998 149.769 61.2998 150.758C61.2998 151.746 62.1014 152.548 63.0902 152.548H64.885V154.584C64.885 155.575 65.6878 156.377 66.678 156.377C67.6683 156.377 68.4711 155.575 68.4711 154.584V152.548H70.2675C71.2564 152.548 72.058 151.746 72.058 150.758C72.058 149.769 71.2564 148.967 70.2675 148.967L68.4711 148.967V146.793C68.4711 145.803 67.6683 145 66.678 145Z" fill="#FFCE00"/>
<path fill-rule="evenodd" clip-rule="evenodd" d="M72.7028 53.6709C71.6382 53.6709 70.7752 54.5339 70.7752 55.5985V57.9355H68.8437C67.7807 57.9355 66.9189 58.7973 66.9189 59.8603C66.9189 60.9233 67.7807 61.7851 68.8437 61.7851H70.7752V63.9745C70.7752 65.0391 71.6382 65.9021 72.7028 65.9021C73.7674 65.9021 74.6304 65.0391 74.6304 63.9745V61.7851H76.5597C77.6228 61.7851 78.4845 60.9233 78.4845 59.8603C78.4845 58.7973 77.6228 57.9355 76.5597 57.9355H74.6304V55.5985C74.6304 54.5339 73.7674 53.6709 72.7028 53.6709Z" fill="#FFCE00"/>
<path d="M175.568 98.9654C175.568 98.405 175.38 97.9435 175.004 97.5809C174.627 97.2116 174 96.882 173.121 96.5919C172.243 96.2952 171.56 96.0216 171.072 95.771C169.448 94.9469 168.635 93.7272 168.635 92.1118C168.635 91.0174 168.987 90.1174 169.692 89.412C170.309 88.7933 171.119 88.3952 172.123 88.2176C172.368 88.1742 172.557 87.9671 172.557 87.7178V86.4886C172.557 86.2188 172.775 86 173.045 86H173.741C174.011 86 174.23 86.2188 174.23 86.4886V87.749C174.23 87.9934 174.411 88.1978 174.65 88.2481C175.662 88.461 176.459 88.9248 177.043 89.6394C177.619 90.3399 177.945 91.2255 178.019 92.296C178.038 92.5652 177.817 92.7843 177.547 92.7843H175.994C175.724 92.7843 175.509 92.5648 175.48 92.2965C175.416 91.6938 175.225 91.2037 174.909 90.8262C174.519 90.3449 173.986 90.1042 173.31 90.1042C172.64 90.1042 172.117 90.2757 171.741 90.6185C171.365 90.9613 171.176 91.4525 171.176 92.0921C171.176 92.6657 171.361 93.1272 171.731 93.4766C172.107 93.8195 172.741 94.1458 173.634 94.4557C174.526 94.7656 175.227 95.0524 175.735 95.3161C176.244 95.5798 176.673 95.8831 177.022 96.226C177.37 96.5622 177.639 96.9512 177.827 97.393C178.015 97.8347 178.109 98.3523 178.109 98.9456C178.109 100.06 177.747 100.963 177.022 101.655C176.387 102.267 175.53 102.657 174.45 102.826C174.202 102.865 174.01 103.074 174.01 103.325V104.322C174.01 104.591 173.791 104.81 173.521 104.81H172.836C172.566 104.81 172.348 104.591 172.348 104.322V103.332C172.348 103.082 172.158 102.874 171.911 102.833C170.741 102.642 169.824 102.193 169.158 101.487C168.514 100.797 168.15 99.9117 168.068 98.8306C168.047 98.5615 168.269 98.3424 168.538 98.3424H170.102C170.372 98.3424 170.586 98.5621 170.619 98.8301C170.69 99.429 170.901 99.9093 171.25 100.271C171.696 100.726 172.323 100.953 173.132 100.953C173.926 100.953 174.529 100.772 174.941 100.409C175.359 100.047 175.568 99.5654 175.568 98.9654Z" fill="#FFB800" stroke="#FFB800" stroke-width="1.5"/>
<path d="M117.453 50.6498C117.453 50.2327 117.32 49.8892 117.053 49.6193C116.787 49.3446 116.343 49.0992 115.722 48.8833C115.1 48.6625 114.617 48.4588 114.272 48.2723C113.123 47.659 112.548 46.7511 112.548 45.5489C112.548 44.7343 112.797 44.0645 113.295 43.5394C113.707 43.1059 114.239 42.8178 114.892 42.6754C115.135 42.6225 115.322 42.4172 115.322 42.169V41.4886C115.322 41.2188 115.541 41 115.811 41H116.017C116.287 41 116.506 41.2188 116.506 41.4886V42.1956C116.506 42.4387 116.686 42.641 116.921 42.7014C117.581 42.8707 118.106 43.2065 118.496 43.7087C118.882 44.2027 119.11 44.8202 119.177 45.5613C119.202 45.8301 118.98 46.0494 118.71 46.0494H117.897C117.627 46.0494 117.414 45.8294 117.376 45.5623C117.319 45.17 117.189 44.8466 116.987 44.592C116.711 44.2338 116.333 44.0547 115.855 44.0547C115.381 44.0547 115.012 44.1823 114.745 44.4374C114.479 44.6926 114.346 45.0582 114.346 45.5342C114.346 45.9611 114.476 46.3046 114.738 46.5647C115.004 46.8198 115.453 47.0627 116.084 47.2934C116.715 47.524 117.211 47.7375 117.571 47.9338C117.931 48.13 118.234 48.3558 118.481 48.6109C118.728 48.8612 118.918 49.1507 119.051 49.4795C119.184 49.8083 119.25 50.1935 119.25 50.6351C119.25 51.4644 118.994 52.1367 118.481 52.6519C118.057 53.0819 117.493 53.3649 116.787 53.501C116.541 53.5485 116.351 53.7553 116.351 54.0059V54.5114C116.351 54.7812 116.132 55 115.862 55H115.663C115.393 55 115.174 54.7812 115.174 54.5114V54.0096C115.174 53.7605 114.986 53.5544 114.742 53.5056C113.973 53.3518 113.365 53.0256 112.918 52.5268C112.486 52.04 112.232 51.4225 112.157 50.6741C112.13 50.4056 112.353 50.1861 112.622 50.1861H113.443C113.713 50.1861 113.925 50.4065 113.968 50.6729C114.031 51.0615 114.174 51.3777 114.398 51.6215C114.713 51.96 115.157 52.1293 115.729 52.1293C116.291 52.1293 116.718 51.9944 117.009 51.7245C117.305 51.4546 117.453 51.0964 117.453 50.6498Z" fill="#FFB800" stroke="#FFB800" stroke-width="1.5"/>
<path d="M117.955 185.407C117.955 184.871 117.784 184.429 117.441 184.082C117.099 183.729 116.528 183.413 115.729 183.136C114.93 182.852 114.309 182.59 113.865 182.35C112.388 181.562 111.649 180.394 111.649 178.849C111.649 177.801 111.969 176.94 112.61 176.265C113.164 175.681 113.889 175.302 114.785 175.129C115.029 175.082 115.216 174.876 115.216 174.627V173.489C115.216 173.219 115.434 173 115.704 173H116.249C116.519 173 116.737 173.219 116.737 173.489V174.658C116.737 174.901 116.917 175.105 117.154 175.159C118.058 175.366 118.772 175.807 119.296 176.483C119.817 177.148 120.113 177.989 120.183 179.004C120.202 179.273 119.981 179.492 119.711 179.492H118.387C118.117 179.492 117.902 179.273 117.873 179.004C117.812 178.437 117.64 177.975 117.356 177.618C117.001 177.158 116.516 176.927 115.9 176.927C115.292 176.927 114.816 177.091 114.474 177.42C114.131 177.748 113.96 178.218 113.96 178.83C113.96 179.379 114.128 179.82 114.464 180.155C114.807 180.483 115.384 180.795 116.195 181.091C117.007 181.388 117.644 181.662 118.107 181.915C118.57 182.167 118.96 182.457 119.277 182.785C119.594 183.107 119.838 183.479 120.009 183.902C120.181 184.325 120.266 184.82 120.266 185.388C120.266 186.454 119.936 187.319 119.277 187.981C118.707 188.559 117.94 188.93 116.975 189.095C116.728 189.138 116.538 189.345 116.538 189.596V190.511C116.538 190.781 116.319 191 116.049 191H115.514C115.244 191 115.025 190.781 115.025 190.511V189.602C115.025 189.353 114.837 189.146 114.592 189.102C113.545 188.915 112.723 188.488 112.124 187.82C111.542 187.164 111.212 186.324 111.134 185.299C111.114 185.03 111.335 184.811 111.605 184.811H112.939C113.209 184.811 113.423 185.03 113.455 185.298C113.523 185.862 113.713 186.314 114.027 186.656C114.433 187.091 115.003 187.309 115.739 187.309C116.462 187.309 117.01 187.136 117.384 186.789C117.765 186.442 117.955 185.981 117.955 185.407Z" fill="#FFB800" stroke="#FFB800" stroke-width="1.5"/>
<path d="M53.7825 111.088C53.7825 110.436 53.5634 109.899 53.1254 109.477C52.6873 109.047 51.9572 108.664 50.935 108.326C49.9128 107.981 49.1178 107.662 48.5499 107.371C46.6597 106.412 45.7146 104.992 45.7146 103.112C45.7146 101.839 46.1243 100.792 46.9437 99.9705C47.6224 99.2905 48.5014 98.8395 49.5809 98.6175C49.9741 98.5366 50.2779 98.2049 50.2779 97.8034V96.7868C50.2779 96.3523 50.6302 96 51.0647 96H51.438C51.8726 96 52.2249 96.3523 52.2249 96.7868V97.8448C52.2249 98.2384 52.5176 98.5655 52.9002 98.6583C53.9892 98.9222 54.8553 99.4479 55.4983 100.235C56.13 101.003 56.5028 101.961 56.6167 103.109C56.6596 103.542 56.302 103.895 55.8674 103.895H54.4963C54.0617 103.895 53.7194 103.54 53.6519 103.111C53.557 102.508 53.345 102.01 53.0158 101.616C52.5615 101.056 51.9409 100.776 51.154 100.776C50.3752 100.776 49.7668 100.976 49.3287 101.375C48.8907 101.774 48.6716 102.345 48.6716 103.089C48.6716 103.757 48.8866 104.294 49.3166 104.701C49.7546 105.1 50.4929 105.479 51.5313 105.84C52.5697 106.201 53.385 106.534 53.9772 106.841C54.5694 107.148 55.0683 107.501 55.4739 107.9C55.8795 108.291 56.1919 108.744 56.4109 109.258C56.6299 109.772 56.7395 110.375 56.7395 111.065C56.7395 112.362 56.3176 113.413 55.4739 114.218C54.7745 114.893 53.8421 115.336 52.6767 115.548C52.2781 115.621 51.9693 115.955 51.9693 116.36V117.103C51.9693 117.538 51.6171 117.89 51.1825 117.89H50.8214C50.3868 117.89 50.0345 117.538 50.0345 117.103V116.366C50.0345 115.963 49.7292 115.63 49.3335 115.555C48.0638 115.316 47.0603 114.805 46.3231 114.023C45.6168 113.267 45.2005 112.309 45.0744 111.149C45.0274 110.717 45.3855 110.363 45.82 110.363H47.2033C47.6379 110.363 47.979 110.718 48.0542 111.146C48.1592 111.744 48.3934 112.231 48.7568 112.607C49.276 113.137 50.0061 113.401 50.9472 113.401C51.872 113.401 52.5737 113.19 53.0524 112.768C53.5391 112.346 53.7825 111.786 53.7825 111.088Z" fill="#FFB800" stroke="#FFB800" stroke-width="1.5"/>
<path d="M132.147 104.567C134.355 104.627 136.221 106.338 136.664 108.679C137.132 111.145 137.132 113.609 136.664 116.075C136.221 118.414 134.355 120.127 132.147 120.187C134.355 120.247 136.221 121.958 136.664 124.298C137.132 126.763 137.132 129.229 136.664 131.695C136.221 134.034 134.355 135.747 132.147 135.807C134.355 135.865 136.221 137.578 136.664 139.918C137.132 142.382 137.132 144.849 136.664 147.313C136.221 149.654 134.355 151.367 132.147 151.427C115.887 151.863 99.629 151.863 83.3693 151.427C81.1614 151.367 79.2947 149.654 78.8497 147.313C78.3834 144.849 78.3834 142.382 78.8497 139.918C79.2945 137.578 81.1612 135.864 83.3693 135.807C81.1614 135.747 79.2947 134.034 78.8497 131.695C78.3834 129.229 78.3834 126.763 78.8497 124.298C79.2945 121.958 81.1612 120.247 83.3693 120.187C81.1614 120.127 79.2947 118.414 78.8497 116.075C78.3834 113.609 78.3834 111.145 78.8497 108.679C79.2945 106.338 81.1612 104.627 83.3693 104.567C81.1614 104.507 79.2947 102.794 78.8497 100.455C78.3834 97.9893 78.3834 95.525 78.8497 93.0588C79.2945 90.7181 81.1612 89.0071 83.3693 88.9471C83.313 88.9471 83.2578 88.942 83.2034 88.9347C81.0688 88.7954 79.2834 87.1169 78.8499 84.8354C78.3836 82.3693 78.3836 79.9049 78.8499 77.4388C79.2947 75.1002 81.1614 73.3871 83.3695 73.3273C99.6292 72.8909 115.887 72.8909 132.147 73.3273C134.355 73.3871 136.222 75.1002 136.665 77.4388C137.133 79.9049 137.133 82.3693 136.665 84.8354C136.584 85.2641 136.456 85.6717 136.286 86.0502C135.527 87.7477 133.951 88.8987 132.147 88.9471C134.355 89.0069 136.222 90.7181 136.665 93.0588C137.133 95.5249 137.133 97.9893 136.665 100.455C136.221 102.794 134.355 104.507 132.147 104.567Z" fill="#FFB800"/>
<path d="M95.5301 108.678C95.0619 111.143 95.0619 113.609 95.5301 116.074C95.9726 118.415 97.8397 120.126 100.049 120.185C97.8395 120.246 95.9726 121.957 95.5301 124.299C95.0619 126.764 95.0619 129.229 95.5301 131.695C95.9726 134.034 97.8397 135.747 100.049 135.806C97.8395 135.865 95.9726 137.578 95.5301 139.918C95.0619 142.383 95.0619 144.848 95.5301 147.313C95.867 149.097 97.0328 150.917 98.5463 151.706C93.4882 151.655 88.4284 151.561 83.3687 151.425C81.161 151.366 79.2942 149.655 78.8497 147.313C78.3834 144.848 78.3834 142.383 78.8497 139.918C79.2942 137.578 81.161 135.865 83.3687 135.806C81.161 135.747 79.2942 134.034 78.8497 131.695C78.3834 129.229 78.3834 126.764 78.8497 124.299C79.2942 121.957 81.161 120.246 83.3687 120.185C81.161 120.126 79.2942 118.415 78.8497 116.074C78.3834 113.609 78.3834 111.143 78.8497 108.678C79.2942 106.339 81.161 104.626 83.3687 104.567C81.161 104.507 79.2942 102.794 78.8497 100.455C78.3834 97.9897 78.3834 95.5245 78.8497 93.0592C79.2942 90.7179 81.161 89.0069 83.3687 88.9458C81.161 88.8868 79.2942 87.1756 78.8497 84.8343C78.3834 82.369 78.3834 79.9038 78.8497 77.4385C79.2942 75.0993 81.161 73.386 83.3687 73.327C88.4284 73.1911 93.4882 73.0966 98.5463 73.0454C97.0328 73.835 95.867 75.6544 95.5301 77.4385C95.0619 79.9036 95.0619 82.369 95.5301 84.8343C95.9726 87.1756 97.8397 88.8866 100.049 88.9458C97.8395 89.0069 95.9726 90.7179 95.5301 93.0592C95.0619 95.5243 95.0619 97.9897 95.5301 100.455C95.9726 102.794 97.8397 104.507 100.049 104.567C97.8397 104.626 95.9728 106.339 95.5301 108.678Z" fill="#E7970C"/>
<path d="M136.281 86.0508C135.522 87.7483 133.947 88.8993 132.142 88.9477H83.3651C82.6255 88.9477 82.0254 88.2989 82.0254 87.4993C82.0254 86.6998 82.6255 86.051 83.3651 86.051H136.281V86.0508Z" fill="#E7970C"/>
<path d="M136.281 101.67C135.522 103.368 133.947 104.519 132.142 104.567H83.3651C82.6255 104.567 82.0254 103.918 82.0254 103.119C82.0254 102.319 82.6255 101.67 83.3651 101.67H136.281V101.67Z" fill="#E7970C"/>
<path d="M136.281 117.29C135.522 118.987 133.947 120.138 132.142 120.186H83.3651C82.6255 120.186 82.0254 119.538 82.0254 118.738C82.0254 117.939 82.6255 117.29 83.3651 117.29H136.281V117.29Z" fill="#E7970C"/>
<path d="M136.281 132.911C135.522 134.608 133.947 135.759 132.142 135.808H83.3651C82.6255 135.808 82.0254 135.159 82.0254 134.359C82.0254 133.56 82.6255 132.911 83.3651 132.911H136.281V132.911Z" fill="#E7970C"/>
<path d="M142.484 151.808H133.184C118.627 151.808 106.827 139.051 106.827 123.315C106.827 107.578 118.627 94.8213 133.184 94.8213H142.484" fill="#E7970C"/>
<path d="M139.807 151.808C154.363 151.808 166.163 139.051 166.163 123.315C166.163 107.578 154.363 94.8213 139.807 94.8213C125.25 94.8213 113.45 107.578 113.45 123.315C113.45 139.051 125.25 151.808 139.807 151.808Z" fill="#FFB800"/>
<path d="M139.806 144.281C150.517 144.281 159.199 134.894 159.199 123.315C159.199 111.735 150.517 102.349 139.806 102.349C129.095 102.349 120.412 111.735 120.412 123.315C120.412 134.894 129.095 144.281 139.806 144.281Z" fill="#FFB800"/>
<path d="M139.803 145.73C128.37 145.73 119.069 135.675 119.069 123.316C119.069 110.956 128.37 100.901 139.803 100.901C151.235 100.901 160.536 110.956 160.536 123.316C160.536 135.675 151.235 145.73 139.803 145.73ZM139.803 103.798C129.848 103.798 121.749 112.553 121.749 123.316C121.749 134.078 129.848 142.833 139.803 142.833C149.758 142.833 157.857 134.078 157.857 123.316C157.857 112.553 149.758 103.798 139.803 103.798Z" fill="#E7970C"/>
<path d="M143.988 128.508C143.985 127.633 143.715 126.914 143.178 126.35C142.642 125.776 141.749 125.265 140.501 124.817C139.252 124.359 138.28 123.936 137.586 123.547C135.275 122.27 134.116 120.371 134.107 117.85C134.101 116.142 134.596 114.736 135.592 113.631C136.508 112.615 137.727 111.976 139.248 111.714C139.479 111.675 139.654 111.478 139.653 111.244L139.644 108.753C139.643 108.497 139.85 108.289 140.106 108.288L141.556 108.282C141.811 108.281 142.019 108.487 142.02 108.743L142.029 111.277C142.029 111.506 142.198 111.699 142.423 111.743C143.957 112.046 145.16 112.78 146.032 113.944C146.903 115.099 147.376 116.579 147.449 118.384C147.459 118.639 147.252 118.848 146.996 118.849L144.329 118.859C144.073 118.86 143.867 118.654 143.852 118.399C143.787 117.32 143.507 116.457 143.009 115.809C142.452 115.06 141.694 114.687 140.734 114.691C139.783 114.695 139.042 114.965 138.509 115.502C137.976 116.039 137.712 116.807 137.715 117.805C137.718 118.7 137.983 119.42 138.509 119.963C139.046 120.496 139.948 121.002 141.217 121.48C142.486 121.959 143.482 122.403 144.206 122.811C144.93 123.22 145.54 123.691 146.037 124.224C146.534 124.747 146.917 125.352 147.186 126.041C147.456 126.729 147.592 127.536 147.596 128.462C147.601 130.201 147.092 131.613 146.066 132.698C145.127 133.699 143.842 134.325 142.209 134.574C141.975 134.61 141.797 134.808 141.797 135.045L141.805 137.175C141.805 137.431 141.599 137.639 141.343 137.64L139.908 137.646C139.652 137.647 139.445 137.44 139.444 137.185L139.436 135.066C139.436 134.831 139.258 134.635 139.026 134.599C137.263 134.33 135.887 133.623 134.899 132.48C133.927 131.344 133.4 129.864 133.319 128.041C133.308 127.785 133.516 127.577 133.771 127.576L136.454 127.565C136.709 127.564 136.915 127.771 136.932 128.026C137.003 129.1 137.313 129.948 137.862 130.569C138.498 131.277 139.39 131.628 140.538 131.624C141.667 131.619 142.522 131.333 143.104 130.765C143.696 130.196 143.991 129.444 143.988 128.508Z" fill="#E69200" stroke="#E59200" stroke-width="0.349912"/>
<ellipse cx="161.688" cy="150.375" rx="17.1877" ry="17.375" fill="#00D604"/>
<path d="M154.047 152.386L159.442 157.067L169.463 144.583" stroke="white" stroke-width="3.00769" stroke-linecap="round" stroke-linejoin="round"/>
</svg>
