<svg width="200" height="200" viewBox="0 0 200 200" fill="none" xmlns="http://www.w3.org/2000/svg">
    <path fill-rule="evenodd" clip-rule="evenodd" d="M155.846 140C154.856 140 154.053 140.803 154.053 141.793V143.967L152.257 143.967C151.268 143.967 150.467 144.769 150.467 145.758C150.467 146.747 151.268 147.548 152.257 147.548H154.053V149.584C154.053 150.575 154.856 151.377 155.846 151.377C156.837 151.377 157.64 150.575 157.64 149.584V147.548H159.435C160.423 147.548 161.225 146.747 161.225 145.758C161.225 144.769 160.423 143.967 159.435 143.967L157.64 143.967V141.793C157.64 140.803 156.837 140 155.846 140Z" fill="#FFCE00"/>
    <path fill-rule="evenodd" clip-rule="evenodd" d="M54.178 133C53.1878 133 52.385 133.803 52.385 134.793V136.967L50.5902 136.967C49.6014 136.967 48.7998 137.769 48.7998 138.758C48.7998 139.746 49.6014 140.548 50.5902 140.548H52.385V142.584C52.385 143.575 53.1878 144.377 54.178 144.377C55.1683 144.377 55.9711 143.575 55.9711 142.584V140.548H57.7675C58.7564 140.548 59.558 139.746 59.558 138.758C59.558 137.769 58.7564 136.967 57.7675 136.967L55.9711 136.967V134.793C55.9711 133.803 55.1683 133 54.178 133Z" fill="#FFCE00"/>
    <path fill-rule="evenodd" clip-rule="evenodd" d="M60.2028 41.6709C59.1382 41.6709 58.2752 42.5339 58.2752 43.5985V45.9355H56.3437C55.2807 45.9355 54.4189 46.7973 54.4189 47.8603C54.4189 48.9233 55.2807 49.7851 56.3437 49.7851H58.2752V51.9745C58.2752 53.0391 59.1382 53.9021 60.2028 53.9021C61.2674 53.9021 62.1304 53.0391 62.1304 51.9745V49.7851H64.0597C65.1228 49.7851 65.9845 48.9233 65.9845 47.8603C65.9845 46.7973 65.1228 45.9355 64.0597 45.9355H62.1304V43.5985C62.1304 42.5339 61.2674 41.6709 60.2028 41.6709Z" fill="#FFCE00"/>
    <path d="M163.068 86.9654C163.068 86.405 162.88 85.9435 162.504 85.5809C162.127 85.2116 161.5 84.882 160.621 84.5919C159.743 84.2952 159.06 84.0216 158.572 83.771C156.948 82.9469 156.135 81.7272 156.135 80.1118C156.135 79.0174 156.487 78.1174 157.192 77.412C157.809 76.7933 158.619 76.3952 159.623 76.2176C159.868 76.1742 160.057 75.9671 160.057 75.7178V74.4886C160.057 74.2188 160.275 74 160.545 74H161.241C161.511 74 161.73 74.2188 161.73 74.4886V75.749C161.73 75.9934 161.911 76.1978 162.15 76.2481C163.162 76.461 163.959 76.9248 164.543 77.6394C165.119 78.3399 165.445 79.2255 165.519 80.296C165.538 80.5652 165.317 80.7843 165.047 80.7843H163.494C163.224 80.7843 163.009 80.5648 162.98 80.2965C162.916 79.6938 162.725 79.2037 162.409 78.8262C162.019 78.3449 161.486 78.1042 160.81 78.1042C160.14 78.1042 159.617 78.2757 159.241 78.6185C158.865 78.9613 158.676 79.4525 158.676 80.0921C158.676 80.6657 158.861 81.1272 159.231 81.4766C159.607 81.8195 160.241 82.1458 161.134 82.4557C162.026 82.7656 162.727 83.0524 163.235 83.3161C163.744 83.5798 164.173 83.8831 164.522 84.226C164.87 84.5622 165.139 84.9512 165.327 85.393C165.515 85.8347 165.609 86.3523 165.609 86.9456C165.609 88.0599 165.247 88.9631 164.522 89.6554C163.887 90.2669 163.03 90.6571 161.95 90.8263C161.702 90.8652 161.51 91.0736 161.51 91.3252V92.3216C161.51 92.5915 161.291 92.8102 161.021 92.8102H160.336C160.066 92.8102 159.848 92.5915 159.848 92.3216V91.3316C159.848 91.0815 159.658 90.8737 159.411 90.8333C158.241 90.6417 157.324 90.193 156.658 89.4873C156.014 88.7973 155.65 87.9117 155.568 86.8306C155.547 86.5615 155.769 86.3424 156.038 86.3424H157.602C157.872 86.3424 158.086 86.5621 158.119 86.8301C158.19 87.429 158.401 87.9093 158.75 88.2709C159.196 88.7258 159.823 88.9532 160.632 88.9532C161.426 88.9532 162.029 88.7719 162.441 88.4093C162.859 88.0467 163.068 87.5654 163.068 86.9654Z" fill="#FFB800" stroke="#FFB800" stroke-width="1.5"/>
    <path d="M104.953 38.6498C104.953 38.2327 104.82 37.8892 104.553 37.6193C104.287 37.3446 103.843 37.0992 103.222 36.8833C102.6 36.6625 102.117 36.4588 101.772 36.2723C100.623 35.659 100.048 34.7511 100.048 33.5489C100.048 32.7343 100.297 32.0645 100.795 31.5394C101.207 31.1059 101.739 30.8178 102.392 30.6754C102.635 30.6225 102.822 30.4172 102.822 30.169V29.4886C102.822 29.2188 103.041 29 103.311 29H103.517C103.787 29 104.006 29.2188 104.006 29.4886V30.1956C104.006 30.4387 104.186 30.641 104.421 30.7014C105.081 30.8707 105.606 31.2065 105.996 31.7087C106.382 32.2027 106.61 32.8202 106.677 33.5613C106.702 33.8301 106.48 34.0494 106.21 34.0494H105.397C105.127 34.0494 104.914 33.8294 104.876 33.5623C104.819 33.17 104.689 32.8466 104.487 32.592C104.211 32.2338 103.833 32.0547 103.355 32.0547C102.881 32.0547 102.512 32.1823 102.245 32.4374C101.979 32.6926 101.846 33.0582 101.846 33.5342C101.846 33.9611 101.976 34.3046 102.238 34.5647C102.504 34.8198 102.953 35.0627 103.584 35.2934C104.215 35.524 104.711 35.7375 105.071 35.9338C105.431 36.13 105.734 36.3558 105.981 36.6109C106.228 36.8612 106.418 37.1507 106.551 37.4795C106.684 37.8083 106.75 38.1935 106.75 38.6351C106.75 39.4644 106.494 40.1367 105.981 40.6519C105.557 41.0819 104.993 41.3649 104.287 41.501C104.041 41.5485 103.851 41.7553 103.851 42.0059V42.5114C103.851 42.7812 103.632 43 103.362 43H103.163C102.893 43 102.674 42.7812 102.674 42.5114V42.0096C102.674 41.7605 102.486 41.5544 102.242 41.5056C101.473 41.3518 100.865 41.0256 100.418 40.5268C99.9858 40.04 99.7323 39.4225 99.6573 38.6741C99.6305 38.4056 99.8526 38.1861 100.122 38.1861H100.943C101.213 38.1861 101.425 38.4065 101.468 38.6729C101.531 39.0615 101.674 39.3777 101.898 39.6215C102.213 39.96 102.657 40.1293 103.229 40.1293C103.791 40.1293 104.218 39.9944 104.509 39.7245C104.805 39.4546 104.953 39.0964 104.953 38.6498Z" fill="#FFB800" stroke="#FFB800" stroke-width="1.5"/>
    <path d="M105.455 173.407C105.455 172.871 105.284 172.429 104.941 172.082C104.599 171.729 104.028 171.413 103.229 171.136C102.43 170.852 101.809 170.59 101.365 170.35C99.8876 169.562 99.1489 168.394 99.1489 166.849C99.1489 165.801 99.4691 164.94 100.11 164.265C100.664 163.681 101.389 163.302 102.285 163.129C102.529 163.082 102.716 162.876 102.716 162.627V161.489C102.716 161.219 102.934 161 103.204 161H103.749C104.019 161 104.237 161.219 104.237 161.489V162.658C104.237 162.901 104.417 163.105 104.654 163.159C105.558 163.366 106.272 163.807 106.796 164.483C107.317 165.148 107.613 165.989 107.683 167.004C107.702 167.273 107.481 167.492 107.211 167.492H105.887C105.617 167.492 105.402 167.273 105.373 167.004C105.312 166.437 105.14 165.975 104.856 165.618C104.501 165.158 104.016 164.927 103.4 164.927C102.792 164.927 102.316 165.091 101.974 165.42C101.631 165.748 101.46 166.218 101.46 166.83C101.46 167.379 101.628 167.82 101.964 168.155C102.307 168.483 102.884 168.795 103.695 169.091C104.507 169.388 105.144 169.662 105.607 169.915C106.07 170.167 106.46 170.457 106.777 170.785C107.094 171.107 107.338 171.479 107.509 171.902C107.681 172.325 107.766 172.82 107.766 173.388C107.766 174.454 107.436 175.319 106.777 175.981C106.207 176.559 105.44 176.93 104.475 177.095C104.228 177.138 104.038 177.345 104.038 177.596V178.511C104.038 178.781 103.819 179 103.549 179H103.014C102.744 179 102.525 178.781 102.525 178.511V177.602C102.525 177.353 102.337 177.146 102.092 177.102C101.045 176.915 100.223 176.488 99.6244 175.82C99.0422 175.164 98.7122 174.324 98.6343 173.299C98.6138 173.03 98.835 172.811 99.1049 172.811H100.439C100.709 172.811 100.923 173.03 100.955 173.298C101.023 173.862 101.213 174.314 101.527 174.656C101.933 175.091 102.503 175.309 103.239 175.309C103.962 175.309 104.51 175.136 104.884 174.789C105.265 174.442 105.455 173.981 105.455 173.407Z" fill="#FFB800" stroke="#FFB800" stroke-width="1.5"/>
    <path d="M41.2825 99.0881C41.2825 98.4359 41.0634 97.8988 40.6254 97.4768C40.1873 97.0472 39.4572 96.6635 38.435 96.326C37.4128 95.9807 36.6178 95.6623 36.0499 95.3707C34.1597 94.4117 33.2146 92.9922 33.2146 91.1125C33.2146 89.8388 33.6243 88.7915 34.4437 87.9705C35.1224 87.2905 36.0014 86.8395 37.0809 86.6175C37.4741 86.5366 37.7779 86.2049 37.7779 85.8034V84.7868C37.7779 84.3523 38.1302 84 38.5647 84H38.938C39.3726 84 39.7249 84.3523 39.7249 84.7868V85.8448C39.7249 86.2384 40.0176 86.5655 40.4002 86.6583C41.4892 86.9222 42.3553 87.4479 42.9983 88.2352C43.63 89.0025 44.0028 89.9605 44.1167 91.1093C44.1596 91.5417 43.802 91.8951 43.3674 91.8951H41.9963C41.5617 91.8951 41.2194 91.5403 41.1519 91.111C41.057 90.5078 40.845 90.0096 40.5158 89.6163C40.0615 89.0562 39.4409 88.7762 38.654 88.7762C37.8752 88.7762 37.2668 88.9756 36.8287 89.3746C36.3907 89.7736 36.1716 90.3452 36.1716 91.0894C36.1716 91.7569 36.3866 92.294 36.8166 92.7007C37.2546 93.0996 37.9929 93.4794 39.0313 93.84C40.0697 94.2007 40.885 94.5344 41.4772 94.8413C42.0694 95.1482 42.5683 95.5012 42.9739 95.9001C43.3795 96.2914 43.6919 96.7441 43.9109 97.2582C44.1299 97.7722 44.2395 98.3745 44.2395 99.0651C44.2395 100.362 43.8176 101.413 42.9739 102.218C42.2745 102.893 41.3421 103.336 40.1767 103.548C39.7781 103.621 39.4693 103.955 39.4693 104.36V105.103C39.4693 105.538 39.1171 105.89 38.6825 105.89H38.3214C37.8868 105.89 37.5345 105.538 37.5345 105.103V104.366C37.5345 103.963 37.2292 103.63 36.8335 103.555C35.5638 103.316 34.5603 102.805 33.8231 102.023C33.1168 101.267 32.7005 100.309 32.5744 99.1486C32.5274 98.7165 32.8855 98.363 33.32 98.363H34.7033C35.1379 98.363 35.479 98.7184 35.5542 99.1464C35.6592 99.7439 35.8934 100.231 36.2568 100.607C36.776 101.137 37.5061 101.401 38.4472 101.401C39.372 101.401 40.0737 101.19 40.5524 100.768C41.0391 100.346 41.2825 99.7863 41.2825 99.0881Z" fill="#FFB800" stroke="#FFB800" stroke-width="1.5"/>
    <path d="M119.647 92.567C121.855 92.6268 123.721 94.338 124.164 96.6785C124.632 99.1446 124.632 101.609 124.164 104.075C123.721 106.414 121.855 108.127 119.647 108.187C121.855 108.247 123.721 109.958 124.164 112.298C124.632 114.763 124.632 117.229 124.164 119.695C123.721 122.034 121.855 123.747 119.647 123.807C121.855 123.865 123.721 125.578 124.164 127.918C124.632 130.382 124.632 132.849 124.164 135.313C123.721 137.654 121.855 139.367 119.647 139.427C103.387 139.863 87.129 139.863 70.8693 139.427C68.6614 139.367 66.7947 137.654 66.3497 135.313C65.8834 132.849 65.8834 130.382 66.3497 127.918C66.7945 125.578 68.6612 123.864 70.8693 123.807C68.6614 123.747 66.7947 122.034 66.3497 119.695C65.8834 117.229 65.8834 114.763 66.3497 112.298C66.7945 109.958 68.6612 108.247 70.8693 108.187C68.6614 108.127 66.7947 106.414 66.3497 104.075C65.8834 101.609 65.8834 99.1446 66.3497 96.6785C66.7945 94.3378 68.6612 92.6268 70.8693 92.567C68.6614 92.5072 66.7947 90.7942 66.3497 88.4554C65.8834 85.9893 65.8834 83.525 66.3497 81.0588C66.7945 78.7181 68.6612 77.0071 70.8693 76.9471C70.813 76.9471 70.7578 76.942 70.7034 76.9347C68.5688 76.7954 66.7834 75.1169 66.3499 72.8354C65.8836 70.3693 65.8836 67.9049 66.3499 65.4388C66.7947 63.1002 68.6614 61.3871 70.8695 61.3273C87.1292 60.8909 103.387 60.8909 119.647 61.3273C121.855 61.3871 123.722 63.1002 124.165 65.4388C124.633 67.9049 124.633 70.3693 124.165 72.8354C124.084 73.2641 123.956 73.6717 123.786 74.0502C123.027 75.7477 121.451 76.8987 119.647 76.9471C121.855 77.0069 123.722 78.7181 124.165 81.0588C124.633 83.5249 124.633 85.9893 124.165 88.4554C123.721 90.7942 121.855 92.5072 119.647 92.567Z" fill="#FFB800"/>
    <path d="M83.0301 96.678C82.5619 99.1433 82.5619 101.609 83.0301 104.074C83.4726 106.415 85.3397 108.126 87.5488 108.185C85.3395 108.246 83.4726 109.957 83.0301 112.299C82.5619 114.764 82.5619 117.229 83.0301 119.695C83.4726 122.034 85.3397 123.747 87.5488 123.806C85.3395 123.865 83.4726 125.578 83.0301 127.918C82.5619 130.383 82.5619 132.848 83.0301 135.313C83.367 137.097 84.5328 138.917 86.0463 139.706C80.9882 139.655 75.9284 139.561 70.8687 139.425C68.661 139.366 66.7942 137.655 66.3497 135.313C65.8834 132.848 65.8834 130.383 66.3497 127.918C66.7942 125.578 68.661 123.865 70.8687 123.806C68.661 123.747 66.7942 122.034 66.3497 119.695C65.8834 117.229 65.8834 114.764 66.3497 112.299C66.7942 109.957 68.661 108.246 70.8687 108.185C68.661 108.126 66.7942 106.415 66.3497 104.074C65.8834 101.609 65.8834 99.1433 66.3497 96.678C66.7942 94.3388 68.661 92.6258 70.8687 92.5665C68.661 92.5075 66.7942 90.7944 66.3497 88.455C65.8834 85.9897 65.8834 83.5245 66.3497 81.0592C66.7942 78.7179 68.661 77.0069 70.8687 76.9458C68.661 76.8868 66.7942 75.1756 66.3497 72.8343C65.8834 70.369 65.8834 67.9038 66.3497 65.4385C66.7942 63.0993 68.661 61.386 70.8687 61.327C75.9284 61.1911 80.9882 61.0966 86.0463 61.0454C84.5328 61.835 83.367 63.6544 83.0301 65.4385C82.5619 67.9036 82.5619 70.369 83.0301 72.8343C83.4726 75.1756 85.3397 76.8866 87.5488 76.9458C85.3395 77.0069 83.4726 78.7179 83.0301 81.0592C82.5619 83.5243 82.5619 85.9897 83.0301 88.455C83.4726 90.7942 85.3397 92.5075 87.5488 92.5665C85.3397 92.6256 83.4728 94.3388 83.0301 96.678Z" fill="#E7970C"/>
    <path d="M123.781 74.0508C123.022 75.7483 121.447 76.8993 119.642 76.9477H70.8651C70.1255 76.9477 69.5254 76.2989 69.5254 75.4993C69.5254 74.6998 70.1255 74.051 70.8651 74.051H123.781V74.0508Z" fill="#E7970C"/>
    <path d="M123.781 89.6702C123.022 91.3677 121.447 92.5187 119.642 92.5671H70.8651C70.1255 92.5671 69.5254 91.9182 69.5254 91.1187C69.5254 90.3192 70.1255 89.6704 70.8651 89.6704H123.781V89.6702Z" fill="#E7970C"/>
    <path d="M123.781 105.289C123.022 106.987 121.447 108.138 119.642 108.186H70.8651C70.1255 108.186 69.5254 107.538 69.5254 106.738C69.5254 105.938 70.1255 105.29 70.8651 105.29H123.781V105.289Z" fill="#E7970C"/>
    <path d="M123.781 120.911C123.022 122.608 121.447 123.759 119.642 123.808H70.8651C70.1255 123.808 69.5254 123.159 69.5254 122.359C69.5254 121.56 70.1255 120.911 70.8651 120.911H123.781V120.911Z" fill="#E7970C"/>
    <path d="M129.984 139.809H120.684C106.127 139.809 94.3271 127.052 94.3271 111.315C94.3271 95.5784 106.127 82.8214 120.684 82.8214H129.984" fill="#E7970C"/>
    <path d="M127.307 139.809C141.863 139.809 153.663 127.052 153.663 111.315C153.663 95.5784 141.863 82.8214 127.307 82.8214C112.75 82.8214 100.95 95.5784 100.95 111.315C100.95 127.052 112.75 139.809 127.307 139.809Z" fill="#FFB800"/>
    <path d="M127.306 132.281C138.017 132.281 146.699 122.894 146.699 111.315C146.699 99.7357 138.017 90.3489 127.306 90.3489C116.595 90.3489 107.912 99.7357 107.912 111.315C107.912 122.894 116.595 132.281 127.306 132.281Z" fill="#FFB800"/>
    <path d="M127.303 133.73C115.87 133.73 106.569 123.675 106.569 111.316C106.569 98.9563 115.87 88.9012 127.303 88.9012C138.735 88.9012 148.036 98.9563 148.036 111.316C148.036 123.675 138.735 133.73 127.303 133.73ZM127.303 91.798C117.348 91.798 109.249 100.554 109.249 111.316C109.249 122.078 117.348 130.833 127.303 130.833C137.258 130.833 145.357 122.078 145.357 111.316C145.357 100.554 137.258 91.798 127.303 91.798Z" fill="#E7970C"/>
    <path d="M131.488 116.507C131.485 115.633 131.215 114.914 130.678 114.35C130.142 113.776 129.249 113.265 128.001 112.817C126.752 112.359 125.78 111.936 125.086 111.547C122.775 110.27 121.616 108.371 121.607 105.85C121.601 104.142 122.096 102.736 123.092 101.631C124.008 100.615 125.227 99.9758 126.748 99.7143C126.979 99.6746 127.154 99.4779 127.153 99.2436L127.144 96.7524C127.143 96.4967 127.35 96.2887 127.606 96.2876L129.056 96.2819C129.311 96.2809 129.519 96.4873 129.52 96.743L129.529 99.2768C129.529 99.5061 129.698 99.6985 129.923 99.743C131.457 100.046 132.66 100.78 133.532 101.944C134.403 103.099 134.876 104.579 134.949 106.384C134.959 106.639 134.752 106.848 134.496 106.849L131.829 106.859C131.573 106.86 131.367 106.654 131.352 106.398C131.287 105.32 131.007 104.457 130.509 103.808C129.952 103.059 129.194 102.687 128.234 102.691C127.283 102.694 126.542 102.965 126.009 103.502C125.476 104.039 125.212 104.807 125.215 105.805C125.218 106.7 125.483 107.42 126.009 107.963C126.546 108.496 127.448 109.002 128.717 109.48C129.986 109.959 130.982 110.402 131.706 110.811C132.43 111.22 133.04 111.691 133.537 112.224C134.034 112.747 134.417 113.352 134.686 114.041C134.956 114.729 135.092 115.536 135.096 116.462C135.101 118.201 134.592 119.613 133.566 120.698C132.627 121.699 131.342 122.325 129.709 122.574C129.475 122.61 129.297 122.808 129.297 123.045L129.305 125.175C129.305 125.431 129.099 125.639 128.843 125.64L127.408 125.646C127.152 125.647 126.945 125.44 126.944 125.185L126.936 123.066C126.936 122.831 126.758 122.635 126.526 122.599C124.763 122.33 123.387 121.623 122.399 120.479C121.427 119.343 120.9 117.864 120.819 116.04C120.808 115.785 121.016 115.577 121.271 115.576L123.954 115.565C124.209 115.564 124.415 115.771 124.432 116.026C124.503 117.1 124.813 117.948 125.362 118.569C125.998 119.277 126.89 119.628 128.038 119.624C129.167 119.619 130.022 119.333 130.604 118.764C131.196 118.196 131.491 117.444 131.488 116.507Z" fill="#E69200" stroke="#E59200" stroke-width="0.349912"/>
</svg>
