<svg width="280" height="280" viewBox="0 0 280 280" fill="none" xmlns="http://www.w3.org/2000/svg">
    <path
        d="M25.0266 137.719C25.0266 137.719 24.9174 179.914 58.8254 206.853C92.734 233.792 140.996 234.122 180.032 235.432C219.067 236.742 249.892 213.301 255.59 179.292C261.287 145.284 231.732 136.389 216.839 98.4222C201.947 60.4553 203.827 47.7388 170.322 25.2364C136.816 2.73444 82.6215 19.1592 53.0697 60.7415C23.5174 102.324 25.0266 137.719 25.0266 137.719Z"
        fill="#136048" />
    <path opacity="0.7"
        d="M25.0266 137.719C25.0266 137.719 24.9174 179.914 58.8254 206.853C92.734 233.792 140.996 234.122 180.032 235.432C219.067 236.742 249.892 213.301 255.59 179.292C261.287 145.284 231.732 136.389 216.839 98.4222C201.947 60.4553 203.827 47.7388 170.322 25.2364C136.816 2.73444 82.6215 19.1592 53.0697 60.7415C23.5174 102.324 25.0266 137.719 25.0266 137.719Z"
        fill="white" />
    <path d="M173.412 38.7806H106.262V80.0616H173.412V38.7806Z" fill="#263238" stroke="#263238"
        stroke-miterlimit="10" />
    <path d="M171.76 36.5787H104.609V77.8597H171.76V36.5787Z" fill="white" stroke="#263238"
        stroke-miterlimit="10" />
    <path d="M104.609 77.8597L138.735 47.0367L171.76 77.8597H104.609Z" fill="white" stroke="#263238"
        stroke-miterlimit="10" />
    <path d="M104.609 36.5787L138.185 63.5489L171.76 36.5787H104.609Z" fill="white" stroke="#263238"
        stroke-miterlimit="10" />
    <path
        d="M177.585 19.9131H102.143C91.1209 19.9131 82.1855 28.8484 82.1855 39.8704V74.0824C82.1855 85.1044 91.1209 94.0397 102.143 94.0397H167.519L165.085 110.269L179.045 93.9809C189.385 93.2322 197.542 84.6132 197.542 74.0824V39.8704C197.542 28.8484 188.607 19.9131 177.585 19.9131Z"
        stroke="#263238" stroke-miterlimit="10" />
    <path
        d="M184.564 50.6582H159.975C154.175 50.6582 149.473 45.9565 149.473 40.1565C149.473 34.3566 154.174 29.6543 159.975 29.6543H184.564C190.364 29.6543 195.067 34.3561 195.067 40.1565C195.067 45.9565 190.365 50.6582 184.564 50.6582Z"
        fill="#263238" stroke="#263238" stroke-miterlimit="10" />
    <path
        d="M157.1 38.3527H157.075L155.343 39.1154L154.955 37.3189L157.488 36.2336H159.439V44.6336H157.1L157.1 38.3527Z"
        fill="#136048" />
    <path
        d="M161.635 46.1199C162.113 44.7759 162.462 43.4448 162.681 42.1008L165.111 41.9714C164.62 43.4448 164.012 44.7759 163.263 45.9906L161.635 46.1199Z"
        fill="#136048" />
    <path
        d="M165.988 42.4239C165.988 41.4159 166.557 40.7826 167.487 40.4079V40.3816C166.712 39.9812 166.273 39.3221 166.273 38.5465C166.273 37.0602 167.682 36.078 169.568 36.078C171.998 36.078 172.709 37.422 172.709 38.3006C172.709 39.1149 172.218 39.774 171.533 40.11V40.1358C172.231 40.381 173.083 41.0015 173.083 42.1646C173.083 43.6766 171.778 44.7882 169.452 44.7882C166.867 44.7888 165.988 43.3798 165.988 42.4239ZM170.563 42.3461C170.563 41.7777 170.072 41.3896 169.387 41.2345C168.832 41.3381 168.509 41.6998 168.509 42.191C168.509 42.6563 168.948 43.1211 169.569 43.1211C170.124 43.1211 170.563 42.8114 170.563 42.3461ZM168.573 38.4821C168.573 38.9211 169.09 39.2314 169.671 39.3994C170.02 39.335 170.408 38.999 170.408 38.5851C170.408 38.1326 170.11 37.7065 169.465 37.7065C168.883 37.7065 168.573 38.0425 168.573 38.4821Z"
        fill="#136048" />
    <path
        d="M180.1 37.9523C179.881 37.9265 179.687 37.9265 179.376 37.9265C177.4 37.9652 176.65 38.6629 176.404 39.4128H176.443C176.921 39.051 177.49 38.9088 178.265 38.9088C179.713 38.9088 181.121 39.8389 181.121 41.7133C181.121 43.5355 179.544 44.7893 177.671 44.7893C174.97 44.7893 173.91 42.8506 173.91 41.0155C173.91 39.5808 174.453 38.2373 175.435 37.3716C176.443 36.4929 177.71 36.0791 179.376 36.0791C179.725 36.0791 179.92 36.1049 180.1 36.1306V37.9523ZM178.64 41.8807C178.64 41.2479 178.304 40.6145 177.464 40.6145C176.921 40.6145 176.507 40.9377 176.365 41.2994C176.314 41.4025 176.301 41.5061 176.301 41.6869C176.365 42.3074 176.74 43.0052 177.619 43.0052C178.2 43.0052 178.64 42.5527 178.64 41.8807Z"
        fill="#136048" />
    <path
        d="M188.059 37.9523C187.84 37.9265 187.646 37.9265 187.335 37.9265C185.359 37.9652 184.609 38.6629 184.363 39.4128H184.402C184.88 39.051 185.449 38.9088 186.224 38.9088C187.672 38.9088 189.08 39.8389 189.08 41.7133C189.08 43.5355 187.503 44.7893 185.63 44.7893C182.929 44.7893 181.869 42.8506 181.869 41.0155C181.869 39.5808 182.412 38.2373 183.394 37.3716C184.402 36.4929 185.669 36.0791 187.335 36.0791C187.684 36.0791 187.879 36.1049 188.059 36.1306V37.9523ZM186.598 41.8807C186.598 41.2479 186.262 40.6145 185.422 40.6145C184.88 40.6145 184.466 40.9377 184.324 41.2994C184.273 41.4025 184.259 41.5061 184.259 41.6869C184.324 42.3074 184.699 43.0052 185.577 43.0052C186.159 43.0052 186.598 42.5527 186.598 41.8807Z"
        fill="#136048" />
    <path opacity="0.2"
        d="M25.6278 229.267L45.9009 206.278H61.2433L78.7769 195.388L92.475 202.042L123.159 223.823L152.2 232.897L173.569 221.403L186.719 225.637L207.54 208.697H230.554L240.965 201.438L257.95 214.142L250.279 222.612L269.457 234.712L266.717 259.517H21.2441L25.6278 229.267Z"
        fill="black" />
    <g opacity="0.2">
        <path d="M204.217 108.6L175.289 113.319L178.19 131.102L207.118 126.383L204.217 108.6Z"
            fill="black" />
        <path
            d="M230.115 148.061L201.186 152.781L202.759 162.422L200.326 160.35L188.645 174.071L210.963 193.072L222.644 179.352L210.999 169.438L233.017 165.845L230.115 148.061Z"
            fill="black" />
        <path d="M95.7718 12.4009L66.8438 17.1201L69.7449 34.9037L98.673 30.1845L95.7718 12.4009Z"
            fill="black" />
        <path d="M79.0375 162.06L50.1094 166.779L53.0105 184.562L81.9386 179.843L79.0375 162.06Z"
            fill="black" />
        <path d="M99.7961 117.544L81.998 120.357L86.5737 149.308L104.372 146.495L99.7961 117.544Z"
            fill="black" />
        <path d="M52.3514 121.984L40.5918 135.638L62.8016 154.767L74.5612 141.113L52.3514 121.984Z"
            fill="black" />
        <path d="M212.294 65.9117L199.736 78.8336L220.756 99.2612L233.314 86.3393L212.294 65.9117Z"
            fill="black" />
    </g>
    <path
        d="M150.242 102.16C150.242 102.16 145.436 96.8403 137.885 97.3549C130.334 97.8695 125.014 104.906 120.896 109.711C116.777 114.517 119.008 119.322 119.351 120.008C119.694 120.695 108.196 127.559 107.681 133.566C107.167 139.572 109.569 141.632 108.882 143.691C108.196 145.75 97.0407 153.645 98.4138 158.45C99.787 163.255 103.047 166.516 103.047 166.516C103.047 166.516 98.2419 171.836 98.9285 174.582C99.6151 177.328 105.107 182.992 115.576 187.11C126.044 191.229 160.196 192.087 172.209 187.282C184.222 182.477 187.14 167.031 185.423 164.8C183.707 162.569 178.559 160.338 179.245 157.42C179.931 154.503 182.162 150.384 180.618 147.81C179.073 145.235 174.611 144.206 173.067 141.46C171.522 138.714 174.44 134.939 172.209 131.506C169.978 128.074 166.374 123.268 166.374 123.268C166.374 123.268 162.77 107.994 158.651 103.876C154.532 99.7579 150.242 102.16 150.242 102.16Z"
        fill="#263238" stroke="#263238" stroke-miterlimit="10" />
    <path d="M102.017 188.18L96.1816 216.84L110.941 216.153L115.403 193.843L102.017 188.18Z"
        fill="white" stroke="#263238" stroke-miterlimit="10" />
    <path d="M101.314 191.84L114.499 198.092L114.635 195.102L101.586 190.208L101.314 191.84Z"
        fill="#263238" stroke="#263238" stroke-miterlimit="10" />
    <path d="M185.938 184.061L196.578 210.49L183.02 215.81L173.41 190.583L185.938 184.061Z"
        fill="white" stroke="#263238" stroke-miterlimit="10" />
    <path d="M187.626 188.985L174.985 194.694L173.41 190.583L185.938 184.061L187.626 188.985Z"
        fill="#263238" stroke="#263238" stroke-miterlimit="10" />
    <path
        d="M135.31 139.441L133.25 155.058C133.25 155.058 126.815 157.118 122.696 157.804C118.577 158.49 109.911 160.549 108.023 164.497C106.135 168.444 98.4121 189.209 98.4121 189.209L116.258 195.646L119.177 210.147L116.432 237.777C116.432 237.777 174.438 238.464 174.438 237.777C174.438 237.091 169.118 207.744 169.118 207.744L171.178 195.045L190.056 185.949C190.056 185.949 177.87 162.094 173.924 159.692C169.976 157.289 161.567 156.946 158.65 155.916C155.732 154.886 153.501 153.171 153.501 153.171L149.897 139.784L135.31 139.441Z"
        fill="#136048" stroke="#263238" stroke-miterlimit="10" />
    <path d="M117.41 181.97L117.652 179.099" stroke="#263238" stroke-miterlimit="10" />
    <path d="M116.258 195.646L117.215 184.272" stroke="#263238" stroke-miterlimit="10" />
    <path d="M171.791 194.678L168.48 178.904" stroke="#263238" stroke-miterlimit="10" />
    <path
        d="M158.65 155.916C155.732 154.886 153.501 153.17 153.501 153.17L149.897 139.784L135.31 139.441L133.25 155.058C133.25 155.058 126.087 157.493 121.709 158.437C124.75 160.436 133.495 165.459 144.234 165.183C153.507 164.945 160.141 159.851 163.345 156.741C161.263 156.478 159.536 156.228 158.65 155.916Z"
        fill="white" stroke="#263238" stroke-miterlimit="10" />
    <path
        d="M152.095 147.951L151.324 145.088L143.582 139.635L142.352 139.606L134.365 146.595L134.166 148.103C136.135 149.857 141.443 154.435 143.473 154.674C145.334 154.893 149.863 150.338 152.095 147.951Z"
        fill="#263238" stroke="#263238" stroke-miterlimit="10" />
    <path
        d="M149.258 112.548C149.258 112.548 147.612 107.118 144.18 108.683C140.748 110.247 137.463 116.267 134.781 118.319C132.099 120.371 127.523 119.593 127.523 119.593C127.523 119.593 128.057 134.65 129.72 139.619C131.382 144.589 138.366 150.966 141.419 151.383C144.473 151.8 147.916 149.929 150.325 146.946C152.734 143.964 154.797 142.055 155.378 138.7C155.901 135.678 156.087 123.227 155.978 121.996C155.868 120.765 151.556 116.927 150.397 115.044C149.236 113.161 149.258 112.548 149.258 112.548Z"
        fill="white" stroke="#263238" stroke-miterlimit="10" />
    <path d="M133.633 132.313L136.335 132.699" stroke="#263238" stroke-miterlimit="10" />
    <path d="M147.918 133.085L150.814 132.699" stroke="#263238" stroke-miterlimit="10" />
    <path
        d="M139.943 136.917C139.943 136.917 141.437 138.045 142.986 137.64C144.535 137.235 145.34 136.19 145.34 136.19"
        stroke="#263238" stroke-miterlimit="10" />
    <path
        d="M143.598 141.959C143.568 142.805 143.063 143.474 142.47 143.453C141.878 143.432 141.422 142.728 141.453 141.882C141.483 141.036 141.988 140.367 142.58 140.388C143.173 140.409 143.628 141.113 143.598 141.959Z"
        fill="#263238" />
    <path
        d="M136.811 130.459C136.779 131.338 136.376 132.038 135.911 132.021C135.445 132.004 135.094 131.278 135.125 130.399C135.156 129.52 135.56 128.82 136.025 128.837C136.49 128.854 136.843 129.58 136.811 130.459Z"
        fill="#263238" />
    <path
        d="M149.607 130.919C149.576 131.798 149.173 132.498 148.708 132.481C148.242 132.464 147.891 131.738 147.922 130.859C147.953 129.979 148.356 129.28 148.822 129.297C149.287 129.313 149.639 130.04 149.607 130.919Z"
        fill="#263238" />
    <path d="M131.779 125.292C131.779 125.292 134.988 121.418 139.168 124.637" stroke="#263238"
        stroke-width="2" stroke-miterlimit="10" stroke-linecap="round" />
    <path d="M145.627 124.255C145.627 124.255 149.732 121.026 153.114 125.137" stroke="#263238"
        stroke-width="2" stroke-miterlimit="10" stroke-linecap="round" />
    <path
        d="M127.991 128.225C127.991 128.225 126.273 124.788 125.802 129.374C125.33 133.96 128.652 135.461 128.652 135.461L127.991 128.225Z"
        fill="white" stroke="#263238" stroke-miterlimit="10" />
    <path
        d="M156.027 129.18C156.027 129.18 157.705 125.722 158.23 130.303C158.755 134.884 155.76 134.972 155.76 134.972L156.027 129.18Z"
        fill="white" stroke="#263238" stroke-miterlimit="10" />
    <path
        d="M181.648 192.47L167.061 175.652C167.061 175.652 163.457 169.817 162.599 168.444C161.741 167.071 158.994 163.982 158.994 163.982C158.994 163.982 157.278 163.467 157.965 165.698C158.651 167.93 160.367 170.847 160.367 170.847L160.71 172.906L145.229 167.377C144.521 167.124 143.752 167.553 143.594 168.288L143.578 168.367C143.46 168.918 143.727 169.481 144.23 169.737L152.473 173.936L140.101 171.771C139.375 171.644 138.698 172.173 138.646 172.908C138.603 173.504 138.991 174.047 139.569 174.199L150.929 177.197L140.33 177.803C139.591 177.845 139.068 178.543 139.234 179.264C139.351 179.771 139.783 180.143 140.301 180.186L151.959 181.144L144.247 182.686C143.77 182.781 143.465 183.251 143.57 183.725C143.658 184.122 144.01 184.404 144.417 184.404H153.846L159.166 185.434L165.687 186.292C165.687 186.292 182.334 217.698 182.849 218.728C183.363 219.757 186.11 221.473 188.855 221.473C191.601 221.473 195.449 218.462 196.297 216.554C197.089 214.77 198.123 211.177 194.862 207.744C191.602 204.312 181.648 192.47 181.648 192.47Z"
        fill="white" stroke="#263238" stroke-miterlimit="10" />
    <path d="M135.311 177.54L137.957 201.06L151 200.202L148.182 176.51L135.311 177.54Z"
        fill="#263238" stroke="#263238" stroke-miterlimit="10" />
    <path
        d="M128.961 203.797L130.162 192.127C130.162 192.127 128.961 186.464 129.475 186.464C129.99 186.464 135.997 185.263 135.997 185.263L136.512 187.322L132.908 189.209L134.967 193.5L145.709 186.962C146.278 186.615 147.022 186.876 147.249 187.503C147.398 187.911 147.281 188.368 146.955 188.656L138.915 195.731L149.382 192.09C150.111 191.836 150.899 192.279 151.061 193.035C151.184 193.611 150.9 194.197 150.372 194.457L139.773 199.678L147.814 199.063C148.654 199.165 149.164 200.04 148.839 200.821C148.705 201.143 148.445 201.395 148.12 201.521L146.966 203.292C146.754 203.618 146.433 203.858 146.061 203.969L143.995 204.585L133.767 208.43C133.767 208.43 107.338 227.137 106.651 227.651C105.964 228.166 104.42 228.852 100.816 228.166C97.2116 227.479 94.1226 221.988 94.9806 218.212C95.8385 214.436 98.7561 212.72 99.7859 212.377C100.815 212.034 128.961 203.797 128.961 203.797Z"
        fill="white" stroke="#263238" stroke-miterlimit="10" />
    <path d="M132.512 198.53L136.631 206.939" stroke="#263238" stroke-miterlimit="10" />
    <path d="M148.342 201.317L139.533 203.384" stroke="#263238" stroke-miterlimit="10" />
    <path d="M184.091 259.229L174.439 237.777H116.432L108.135 259.229H184.091Z" fill="#969696"
        stroke="#263238" stroke-miterlimit="10" />
    <path
        d="M147.445 107.744C147.445 107.744 144.764 108.638 143.692 113.107C142.619 117.575 138.686 120.078 135.827 120.615C132.967 121.151 130.643 119.184 130.643 119.184C130.643 119.184 134.218 120.615 137.435 117.933C140.653 115.252 139.044 110.247 141.368 108.459"
        fill="#263238" />
    <path
        d="M147.445 107.744C147.445 107.744 144.764 108.638 143.692 113.107C142.619 117.575 138.686 120.078 135.827 120.615C132.967 121.151 130.643 119.184 130.643 119.184C130.643 119.184 134.218 120.615 137.435 117.933C140.653 115.252 139.044 110.247 141.368 108.459"
        stroke="#263238" stroke-miterlimit="10" />
    <path d="M78.7482 222.992L49.2852 238.931L59.0838 257.044L88.5468 241.105L78.7482 222.992Z"
        fill="white" stroke="#263238" stroke-miterlimit="10" />
    <path d="M59.0977 257.048L66.754 235.423L88.5615 241.108L59.0977 257.048Z" fill="white"
        stroke="#263238" stroke-miterlimit="10" />
    <path d="M49.2969 238.935L70.4313 242.799L78.7607 222.995L49.2969 238.935Z" fill="white"
        stroke="#263238" stroke-miterlimit="10" />
    <path
        d="M143.836 259.517L149.315 256.553L139.515 238.44L110.051 254.381L112.829 259.517H143.836Z"
        fill="white" stroke="#263238" stroke-miterlimit="10" />
    <path d="M143.836 259.518L149.315 256.553L127.507 250.869L124.445 259.518H143.836Z" fill="white"
        stroke="#263238" stroke-miterlimit="10" />
    <path d="M110.051 254.381L131.185 258.245L139.515 238.44L110.051 254.381Z" fill="white"
        stroke="#263238" stroke-miterlimit="10" />
    <path
        d="M71.1336 259.517L100.403 243.682L90.6025 225.569L61.1387 241.509L70.8815 259.517H71.1336Z"
        fill="white" stroke="#263238" stroke-miterlimit="10" />
    <path d="M71.1345 259.517L100.403 243.682L78.5959 237.997L70.9766 259.517H71.1345Z" fill="white"
        stroke="#263238" stroke-miterlimit="10" />
    <path d="M61.1387 241.509L82.2731 245.373L90.6025 225.569L61.1387 241.509Z" fill="white"
        stroke="#263238" stroke-miterlimit="10" />
    <path d="M57.7189 237.363L89.8652 227.933L84.068 208.171L51.9217 217.601L57.7189 237.363Z"
        fill="white" stroke="#263238" stroke-miterlimit="10" />
    <path d="M89.8678 227.94L69.2032 217.977L57.7227 237.37L89.8678 227.94Z" fill="white"
        stroke="#263238" stroke-miterlimit="10" />
    <path d="M84.0723 208.179L71.7876 225.805L51.9277 217.609L84.0723 208.179Z" fill="white"
        stroke="#263238" stroke-miterlimit="10" />
    <path d="M91.3341 255.056L123.48 245.626L117.683 225.864L85.5369 235.294L91.3341 255.056Z"
        fill="white" stroke="#263238" stroke-miterlimit="10" />
    <path d="M123.485 245.634L102.82 235.671L91.3398 255.064L123.485 245.634Z" fill="white"
        stroke="#263238" stroke-miterlimit="10" />
    <path d="M117.688 225.873L105.403 243.498L85.543 235.303L117.688 225.873Z" fill="white"
        stroke="#263238" stroke-miterlimit="10" />
    <path d="M70.652 123.07L103.713 128.463L107.029 108.139L73.9676 102.745L70.652 123.07Z"
        fill="white" stroke="#263238" stroke-miterlimit="10" />
    <path d="M103.715 128.455L89.3888 110.537L70.6523 123.061L103.715 128.455Z" fill="white"
        stroke="#263238" stroke-miterlimit="10" />
    <path d="M107.031 108.13L88.3333 118.712L73.9688 102.735L107.031 108.13Z" fill="white"
        stroke="#263238" stroke-miterlimit="10" />
    <path d="M41.066 168.173L74.127 173.567L77.4426 153.243L44.3817 147.849L41.066 168.173Z"
        fill="white" stroke="#263238" stroke-miterlimit="10" />
    <path d="M74.1322 173.558L59.8068 155.64L41.0703 168.163L74.1322 173.558Z" fill="white"
        stroke="#263238" stroke-miterlimit="10" />
    <path d="M77.4491 153.233L58.7513 163.815L44.3867 147.838L77.4491 153.233Z" fill="white"
        stroke="#263238" stroke-miterlimit="10" />
    <path d="M179.779 73.1195L212.84 78.5129L216.155 58.1887L183.095 52.7953L179.779 73.1195Z"
        fill="white" stroke="#263238" stroke-miterlimit="10" />
    <path d="M212.834 78.5031L198.508 60.5853L179.771 73.108L212.834 78.5031Z" fill="white"
        stroke="#263238" stroke-miterlimit="10" />
    <path d="M216.15 58.1779L197.452 68.7596L183.088 52.7828L216.15 58.1779Z" fill="white"
        stroke="#263238" stroke-miterlimit="10" />
    <path d="M214.791 229.846L247.852 235.24L251.167 214.916L218.106 209.522L214.791 229.846Z"
        fill="white" stroke="#263238" stroke-miterlimit="10" />
    <path d="M247.849 235.221L233.524 217.303L214.787 229.826L247.849 235.221Z" fill="white"
        stroke="#263238" stroke-miterlimit="10" />
    <path d="M251.166 214.896L232.468 225.477L218.104 209.5L251.166 214.896Z" fill="white"
        stroke="#263238" stroke-miterlimit="10" />
    <path d="M156.441 247.878L189.502 253.271L192.818 232.947L159.757 227.554L156.441 247.878Z"
        fill="white" stroke="#263238" stroke-miterlimit="10" />
    <path d="M189.504 253.254L175.178 235.336L156.441 247.859L189.504 253.254Z" fill="white"
        stroke="#263238" stroke-miterlimit="10" />
    <path d="M192.82 232.929L174.122 243.51L159.758 227.534L192.82 232.929Z" fill="white"
        stroke="#263238" stroke-miterlimit="10" />
    <path d="M213.722 184.185L246.783 189.579L250.099 169.255L217.038 163.861L213.722 184.185Z"
        fill="white" stroke="#263238" stroke-miterlimit="10" />
    <path d="M246.781 189.562L232.455 171.645L213.719 184.167L246.781 189.562Z" fill="white"
        stroke="#263238" stroke-miterlimit="10" />
    <path d="M250.098 169.237L231.4 179.818L217.035 163.842L250.098 169.237Z" fill="white"
        stroke="#263238" stroke-miterlimit="10" />
    <path d="M131.185 239.452L160.143 222.608L149.788 204.807L120.831 221.65L131.185 239.452Z"
        fill="white" stroke="#263238" stroke-miterlimit="10" />
    <path d="M160.148 222.596L137.701 217.863L131.189 239.438L160.148 222.596Z" fill="white"
        stroke="#263238" stroke-miterlimit="10" />
    <path d="M149.794 204.793L142.08 224.845L120.836 221.635L149.794 204.793Z" fill="white"
        stroke="#263238" stroke-miterlimit="10" />
    <path d="M208.437 149.262L213.666 116.174L193.325 112.96L188.096 146.047L208.437 149.262Z"
        fill="white" stroke="#263238" stroke-miterlimit="10" />
    <path d="M213.657 116.178L195.811 130.593L208.426 149.266L213.657 116.178Z" fill="white"
        stroke="#263238" stroke-miterlimit="10" />
    <path d="M193.314 112.963L203.989 131.607L188.084 146.051L193.314 112.963Z" fill="white"
        stroke="#263238" stroke-miterlimit="10" />
    <path d="M206.386 237.401L211.615 204.314L191.275 201.099L186.045 234.187L206.386 237.401Z"
        fill="white" stroke="#263238" stroke-miterlimit="10" />
    <path d="M211.602 204.315L193.756 218.73L206.372 237.404L211.602 204.315Z" fill="white"
        stroke="#263238" stroke-miterlimit="10" />
    <path d="M191.261 201.1L201.936 219.745L186.031 234.189L191.261 201.1Z" fill="white"
        stroke="#263238" stroke-miterlimit="10" />
    <path d="M235.604 155.498L260.986 133.636L247.547 118.032L222.164 139.894L235.604 155.498Z"
        fill="white" stroke="#263238" stroke-miterlimit="10" />
    <path d="M260.987 133.645L238.053 133.104L235.605 155.508L260.987 133.645Z" fill="white"
        stroke="#263238" stroke-miterlimit="10" />
    <path d="M247.548 118.041L243.638 139.167L222.166 139.904L247.548 118.041Z" fill="white"
        stroke="#263238" stroke-miterlimit="10" />
    <path d="M55.0769 92.06L79.0996 68.714L64.7476 53.946L40.725 77.292L55.0769 92.06Z" fill="white"
        stroke="#263238" stroke-miterlimit="10" />
    <path d="M79.0963 68.7126L56.1704 69.5504L55.0723 92.0596L79.0963 68.7126Z" fill="white"
        stroke="#263238" stroke-miterlimit="10" />
    <path d="M64.7428 53.9443L62.108 75.2663L40.7188 77.2913L64.7428 53.9443Z" fill="white"
        stroke="#263238" stroke-miterlimit="10" />
    <path
        d="M29.4299 259.517L58.6988 243.682L48.8994 225.569L19.4355 241.509L29.1779 259.517H29.4299Z"
        fill="white" stroke="#263238" stroke-miterlimit="10" />
    <path d="M29.4308 259.517L58.6998 243.682L36.8922 237.997L29.2734 259.517H29.4308Z" fill="white"
        stroke="#263238" stroke-miterlimit="10" />
    <path d="M19.4355 241.509L40.5699 245.373L48.8994 225.569L19.4355 241.509Z" fill="white"
        stroke="#263238" stroke-miterlimit="10" />
    <path d="M45.0479 259.654L43.6871 243.264L10.3027 246.035L11.4334 259.654H45.0479Z" fill="white"
        stroke="#263238" stroke-miterlimit="10" />
    <path d="M40.1516 259.654L27.6995 249.826L18.4824 259.654H40.1516Z" fill="white"
        stroke="#263238" stroke-miterlimit="10" />
    <path d="M10.3027 246.035L28.1079 258.059L43.6871 243.264L10.3027 246.035Z" fill="white"
        stroke="#263238" stroke-miterlimit="10" />
    <path d="M176.389 259.517L178.139 247.745L145.003 242.819L142.521 259.517H176.389Z" fill="white"
        stroke="#263238" stroke-miterlimit="10" />
    <path d="M168.268 259.517L161.077 250.483L147.496 259.517H168.268Z" fill="white"
        stroke="#263238" stroke-miterlimit="10" />
    <path d="M145.004 242.819L159.594 258.591L178.14 247.745L145.004 242.819Z" fill="white"
        stroke="#263238" stroke-miterlimit="10" />
    <path d="M65.99 221.619L32.5137 220.346L31.7311 240.926L65.2074 242.199L65.99 221.619Z"
        fill="white" stroke="#263238" stroke-miterlimit="10" />
    <path d="M31.7207 240.922L49.3176 226.204L65.1958 242.196L31.7207 240.922Z" fill="white"
        stroke="#263238" stroke-miterlimit="10" />
    <path d="M32.5039 220.343L48.7293 234.424L65.979 221.617L32.5039 220.343Z" fill="white"
        stroke="#263238" stroke-miterlimit="10" />
    <path d="M89.6425 228.113L57.4961 218.683L51.6989 238.445L83.8452 247.875L89.6425 228.113Z"
        fill="white" stroke="#263238" stroke-miterlimit="10" />
    <path d="M51.6992 238.436L72.3638 228.473L83.8443 247.866L51.6992 238.436Z" fill="white"
        stroke="#263238" stroke-miterlimit="10" />
    <path d="M57.4961 218.674L69.7808 236.3L89.6412 228.104L57.4961 218.674Z" fill="white"
        stroke="#263238" stroke-miterlimit="10" />
    <path
        d="M48.6418 259.517L59.3674 250.014L45.7096 234.6L20.6367 256.817L23.0296 259.517H48.6418Z"
        fill="white" stroke="#263238" stroke-miterlimit="10" />
    <path d="M48.6416 259.517L59.3673 250.014L36.8385 249.431L35.7129 259.517H48.6416Z" fill="white"
        stroke="#263238" stroke-miterlimit="10" />
    <path d="M20.6367 256.817L42.0959 255.779L45.7096 234.6L20.6367 256.817Z" fill="white"
        stroke="#263238" stroke-miterlimit="10" />
    <path
        d="M73.1218 259.518L77.0536 246.114L44.9084 236.684L39.1113 256.445L49.5833 259.518H73.1218Z"
        fill="white" stroke="#263238" stroke-miterlimit="10" />
    <path d="M67.4927 259.518L59.7759 246.482L39.1113 256.445L49.5833 259.518H67.4927Z" fill="white"
        stroke="#263238" stroke-miterlimit="10" />
    <path d="M44.9082 236.684L57.1935 254.31L77.0533 246.114L44.9082 236.684Z" fill="white"
        stroke="#263238" stroke-miterlimit="10" />
    <path d="M131.834 259.518L132.396 244.785L98.9198 243.51L98.3105 259.518H131.834Z" fill="white"
        stroke="#263238" stroke-miterlimit="10" />
    <path d="M125.807 259.518L115.734 249.372L103.604 259.518H125.807Z" fill="white"
        stroke="#263238" stroke-miterlimit="10" />
    <path d="M98.9199 243.51L115.146 257.593L132.396 244.785L98.9199 243.51Z" fill="white"
        stroke="#263238" stroke-miterlimit="10" />
    <path d="M198.164 241.125L227.627 257.065L237.426 238.952L207.963 223.013L198.164 241.125Z"
        fill="white" stroke="#263238" stroke-miterlimit="10" />
    <path d="M227.632 257.048L219.975 235.423L198.168 241.108L227.632 257.048Z" fill="white"
        stroke="#263238" stroke-miterlimit="10" />
    <path d="M237.433 238.935L216.298 242.799L207.969 222.995L237.433 238.935Z" fill="white"
        stroke="#263238" stroke-miterlimit="10" />
    <path
        d="M215.847 259.517L225.589 241.509L196.126 225.569L186.326 243.682L215.595 259.517H215.847Z"
        fill="white" stroke="#263238" stroke-miterlimit="10" />
    <path d="M215.752 259.517L208.134 237.997L186.326 243.682L215.595 259.517H215.752Z" fill="white"
        stroke="#263238" stroke-miterlimit="10" />
    <path d="M225.589 241.509L204.454 245.373L196.125 225.569L225.589 241.509Z" fill="white"
        stroke="#263238" stroke-miterlimit="10" />
    <path d="M172.42 241.639L201.883 257.578L211.681 239.466L182.218 223.526L172.42 241.639Z"
        fill="white" stroke="#263238" stroke-miterlimit="10" />
    <path d="M201.888 257.564L194.231 235.938L172.424 241.623L201.888 257.564Z" fill="white"
        stroke="#263238" stroke-miterlimit="10" />
    <path d="M211.688 239.45L190.554 243.314L182.225 223.51L211.688 239.45Z" fill="white"
        stroke="#263238" stroke-miterlimit="10" />
    <path
        d="M257.55 259.517L267.293 241.509L237.829 225.569L228.029 243.682L257.298 259.517H257.55Z"
        fill="white" stroke="#263238" stroke-miterlimit="10" />
    <path d="M257.456 259.517L249.837 237.997L228.029 243.682L257.298 259.517H257.456Z" fill="white"
        stroke="#263238" stroke-miterlimit="10" />
    <path d="M267.294 241.509L246.16 245.373L237.83 225.569L267.294 241.509Z" fill="white"
        stroke="#263238" stroke-miterlimit="10" />
    <path
        d="M202.369 259.517L206.541 251.807L177.077 235.866L167.277 253.979L177.514 259.517H202.369Z"
        fill="white" stroke="#263238" stroke-miterlimit="10" />
    <path d="M193.058 259.517L189.085 248.294L167.277 253.979L177.514 259.517H193.058Z" fill="white"
        stroke="#263238" stroke-miterlimit="10" />
    <path d="M206.54 251.807L185.406 255.67L177.076 235.866L206.54 251.807Z" fill="white"
        stroke="#263238" stroke-miterlimit="10" />
    <path d="M221.537 242.18L255.014 240.907L254.231 220.327L220.755 221.6L221.537 242.18Z"
        fill="white" stroke="#263238" stroke-miterlimit="10" />
    <path d="M255.008 240.922L237.411 226.204L221.533 242.196L255.008 240.922Z" fill="white"
        stroke="#263238" stroke-miterlimit="10" />
    <path d="M254.225 220.343L237.999 234.425L220.75 221.617L254.225 220.343Z" fill="white"
        stroke="#263238" stroke-miterlimit="10" />
    <path d="M203.746 220.523L225.434 246.057L241.13 232.724L219.443 207.191L203.746 220.523Z"
        fill="white" stroke="#263238" stroke-miterlimit="10" />
    <path d="M225.429 246.068L226.128 223.138L203.742 220.535L225.429 246.068Z" fill="white"
        stroke="#263238" stroke-miterlimit="10" />
    <path d="M241.125 232.735L220.027 228.68L219.438 207.203L241.125 232.735Z" fill="white"
        stroke="#263238" stroke-miterlimit="10" />
    <path d="M202.873 247.859L235.02 238.429L229.222 218.667L197.076 228.097L202.873 247.859Z"
        fill="white" stroke="#263238" stroke-miterlimit="10" />
    <path d="M235.028 238.436L214.363 228.473L202.883 247.866L235.028 238.436Z" fill="white"
        stroke="#263238" stroke-miterlimit="10" />
    <path d="M229.231 218.674L216.946 236.3L197.086 228.104L229.231 218.674Z" fill="white"
        stroke="#263238" stroke-miterlimit="10" />
    <path
        d="M263.701 259.517L266.094 256.817L241.021 234.6L227.363 250.014L238.089 259.517H263.701Z"
        fill="white" stroke="#263238" stroke-miterlimit="10" />
    <path d="M251.018 259.517L249.892 249.431L227.363 250.014L238.089 259.517H251.018Z" fill="white"
        stroke="#263238" stroke-miterlimit="10" />
    <path d="M266.094 256.817L244.635 255.779L241.021 234.6L266.094 256.817Z" fill="white"
        stroke="#263238" stroke-miterlimit="10" />
    <path
        d="M237.146 259.518L247.617 256.445L241.82 236.684L209.676 246.114L213.608 259.518H237.146Z"
        fill="white" stroke="#263238" stroke-miterlimit="10" />
    <path d="M237.146 259.518L247.617 256.445L226.953 246.482L219.236 259.518H237.146Z" fill="white"
        stroke="#263238" stroke-miterlimit="10" />
    <path d="M241.82 236.684L229.536 254.31L209.676 246.114L241.82 236.684Z" fill="white"
        stroke="#263238" stroke-miterlimit="10" />
    <path d="M178.291 256.082L211.768 254.809L210.985 234.23L177.509 235.503L178.291 256.082Z"
        fill="white" stroke="#263238" stroke-miterlimit="10" />
    <path d="M211.761 254.822L194.163 240.104L178.285 256.097L211.761 254.822Z" fill="white"
        stroke="#263238" stroke-miterlimit="10" />
    <path d="M210.977 234.244L194.752 248.326L177.502 235.518L210.977 234.244Z" fill="white"
        stroke="#263238" stroke-miterlimit="10" />
    <path
        d="M89.6515 259.517L107.533 249.843L97.7334 231.73L68.2695 247.671L74.6787 259.517H89.6515Z"
        fill="white" stroke="#263238" stroke-miterlimit="10" />
    <path d="M89.6509 259.517L107.532 249.843L85.7247 244.158L80.2871 259.517H89.6509Z" fill="white"
        stroke="#263238" stroke-miterlimit="10" />
    <path d="M68.2695 247.671L89.4039 251.534L97.7334 231.73L68.2695 247.671Z" fill="white"
        stroke="#263238" stroke-miterlimit="10" />
    <path d="M66.2843 199.281L91.791 177.567L78.442 161.886L52.9353 183.601L66.2843 199.281Z"
        fill="white" stroke="#263238" stroke-miterlimit="10" />
    <path d="M91.7814 177.564L68.8506 176.892L66.2734 199.281L91.7814 177.564Z" fill="white"
        stroke="#263238" stroke-miterlimit="10" />
    <path d="M78.4313 161.883L74.3998 182.986L52.9238 183.599L78.4313 161.883Z" fill="white"
        stroke="#263238" stroke-miterlimit="10" />
    <path d="M6.71094 259.517H271.916" stroke="#263238" stroke-miterlimit="10" />
</svg>
