<svg width="280" height="280" viewBox="0 0 280 280" fill="none" xmlns="http://www.w3.org/2000/svg">
    <path
        d="M259.279 117.686C259.279 117.686 223.439 30.2614 157.919 13.3796C92.3993 -3.50217 64.9195 48.1186 54.8793 83.9222C44.8391 119.726 7.8393 167.126 11.1993 199.685C14.3924 230.628 41.5127 245.266 66.8415 251.545C99.0347 259.527 135.618 260.133 167.933 253.48C175.621 251.896 183.162 249.77 190.649 247.33C205.833 242.378 220.734 238.543 236.113 234.441C265.368 226.637 276.961 195.214 273.659 165.145C271.8 148.225 265.599 133.086 259.279 117.686Z"
        fill="#136048" />
    <path opacity="0.7"
        d="M259.279 117.686C259.279 117.686 223.439 30.2614 157.919 13.3796C92.3993 -3.50217 64.9195 48.1186 54.8793 83.9222C44.8391 119.726 7.8393 167.126 11.1993 199.685C14.3924 230.628 41.5127 245.266 66.8415 251.545C99.0347 259.527 135.618 260.133 167.933 253.48C175.621 251.896 183.162 249.77 190.649 247.33C205.833 242.378 220.734 238.543 236.113 234.441C265.368 226.637 276.961 195.214 273.659 165.145C271.8 148.225 265.599 133.086 259.279 117.686Z"
        fill="white" />
    <path d="M27.2461 123.605L37.5753 222.576" stroke="#263238" stroke-width="2"
        stroke-miterlimit="10" />
    <path d="M35.9112 203.636L31.2285 198.69" stroke="#263238" stroke-width="2"
        stroke-miterlimit="10" />
    <path
        d="M32.6506 200.172C32.6506 200.172 32.7845 197.984 30.7869 196.199C29.5852 195.126 23.2594 192.465 22.6591 194.693C22.0061 197.116 28.4809 201.875 32.6506 200.172Z"
        fill="#136048" stroke="#263238" stroke-miterlimit="10" />
    <path d="M32.6511 200.172L26.6289 196.419" stroke="#263238" stroke-width="0.5"
        stroke-miterlimit="10" />
    <path d="M37.0865 214.891L32.4043 209.946" stroke="#263238" stroke-width="2"
        stroke-miterlimit="10" />
    <path
        d="M33.8263 211.427C33.8263 211.427 33.9602 209.239 31.9626 207.455C30.7609 206.382 24.4351 203.721 23.8348 205.949C23.1824 208.372 29.6566 213.13 33.8263 211.427Z"
        fill="#136048" stroke="#263238" stroke-miterlimit="10" />
    <path d="M33.8264 211.427L27.8047 207.675" stroke="#263238" stroke-width="0.5"
        stroke-miterlimit="10" />
    <path d="M33.0435 176.169L28.3613 171.223" stroke="#263238" stroke-width="2"
        stroke-miterlimit="10" />
    <path
        d="M29.7834 172.705C29.7834 172.705 29.9172 170.517 27.9197 168.733C26.7179 167.66 20.3922 164.998 19.7918 167.227C19.1394 169.65 25.6136 174.408 29.7834 172.705Z"
        fill="#136048" stroke="#263238" stroke-miterlimit="10" />
    <path d="M29.7834 172.705L23.7617 168.953" stroke="#263238" stroke-width="0.5"
        stroke-miterlimit="10" />
    <path d="M34.2198 187.425L29.5371 182.479" stroke="#263238" stroke-width="2"
        stroke-miterlimit="10" />
    <path
        d="M30.9592 183.961C30.9592 183.961 31.093 181.773 29.0955 179.989C27.8938 178.915 21.568 176.254 20.9677 178.483C20.3147 180.906 26.7894 185.664 30.9592 183.961Z"
        fill="#136048" stroke="#263238" stroke-miterlimit="10" />
    <path d="M30.9597 183.961L24.9375 180.208" stroke="#263238" stroke-width="0.5"
        stroke-miterlimit="10" />
    <path d="M31.1358 157.885L26.4531 152.939" stroke="#263238" stroke-width="2"
        stroke-miterlimit="10" />
    <path
        d="M27.8752 154.421C27.8752 154.421 28.0091 152.233 26.0115 150.449C24.8098 149.375 18.484 146.714 17.8837 148.942C17.2307 151.365 23.7055 156.124 27.8752 154.421Z"
        fill="#136048" stroke="#263238" stroke-miterlimit="10" />
    <path d="M27.8738 154.421L21.8516 150.668" stroke="#263238" stroke-width="0.5"
        stroke-miterlimit="10" />
    <path d="M29.2193 139.521L24.5371 134.575" stroke="#263238" stroke-width="2"
        stroke-miterlimit="10" />
    <path
        d="M25.9591 136.056C25.9591 136.056 26.093 133.869 24.0955 132.084C22.8937 131.011 16.5679 128.35 15.9676 130.577C15.3152 133.001 21.7894 137.759 25.9591 136.056Z"
        fill="#136048" stroke="#263238" stroke-miterlimit="10" />
    <path d="M25.9592 136.057L19.9375 132.304" stroke="#263238" stroke-width="0.5"
        stroke-miterlimit="10" />
    <path d="M35.123 196.976L38.6835 191.169" stroke="#263238" stroke-width="2"
        stroke-miterlimit="10" />
    <path
        d="M37.5968 192.913C37.5968 192.913 37.0138 190.8 38.6003 188.642C39.5546 187.344 45.1943 183.434 46.2415 185.49C47.3806 187.726 42.0281 193.719 37.5968 192.913Z"
        fill="#136048" stroke="#263238" stroke-miterlimit="10" />
    <path d="M37.5977 192.913L43.0201 187.731" stroke="#263238" stroke-width="0.5"
        stroke-miterlimit="10" />
    <path d="M32.0312 167.356L35.5917 161.55" stroke="#263238" stroke-width="2"
        stroke-miterlimit="10" />
    <path
        d="M34.505 163.293C34.505 163.293 33.922 161.18 35.5085 159.022C36.4628 157.724 42.1025 153.814 43.1497 155.87C44.2888 158.106 38.9363 164.099 34.505 163.293Z"
        fill="#136048" stroke="#263238" stroke-miterlimit="10" />
    <path d="M34.5059 163.293L39.9283 158.111" stroke="#263238" stroke-width="0.5"
        stroke-miterlimit="10" />
    <path d="M30.6738 154.339L34.2343 148.533" stroke="#263238" stroke-width="2"
        stroke-miterlimit="10" />
    <path
        d="M33.1476 150.277C33.1476 150.277 32.5646 148.164 34.1511 146.005C35.1053 144.707 40.7451 140.797 41.7923 142.853C42.9313 145.089 37.5794 151.082 33.1476 150.277Z"
        fill="#136048" stroke="#263238" stroke-miterlimit="10" />
    <path d="M33.1484 150.277L38.5709 145.094" stroke="#263238" stroke-width="0.5"
        stroke-miterlimit="10" />
    <path d="M28.6836 135.256L32.2441 129.45" stroke="#263238" stroke-width="2"
        stroke-miterlimit="10" />
    <path
        d="M31.1593 131.193C31.1593 131.193 30.5763 129.081 32.1628 126.922C33.1171 125.624 38.7568 121.714 39.804 123.77C40.9431 126.006 35.5906 131.999 31.1593 131.193Z"
        fill="#136048" stroke="#263238" stroke-miterlimit="10" />
    <path d="M31.1582 131.193L36.5807 126.011" stroke="#263238" stroke-width="0.5"
        stroke-miterlimit="10" />
    <path
        d="M27.1593 123.055C27.1593 123.055 26.5763 120.942 28.1628 118.784C29.1171 117.485 34.7568 113.576 35.804 115.632C36.9431 117.868 31.5906 123.861 27.1593 123.055Z"
        fill="#136048" stroke="#263238" stroke-miterlimit="10" />
    <path d="M27.1602 123.055L32.5826 117.872" stroke="#263238" stroke-width="0.5"
        stroke-miterlimit="10" />
    <path
        d="M27.4748 123.279C27.4748 123.279 25.3126 123.637 23.3325 121.833C22.1413 120.748 18.8446 114.729 20.9989 113.903C23.342 113.005 28.7409 118.956 27.4748 123.279Z"
        fill="#136048" stroke="#263238" stroke-miterlimit="10" />
    <path d="M27.474 123.279L22.8887 117.342" stroke="#263238" stroke-width="0.5"
        stroke-miterlimit="10" />
    <path d="M54.4878 137.235L44.2168 236.212" stroke="#263238" stroke-width="2"
        stroke-miterlimit="10" />
    <path d="M46.4877 217.334L42.9238 211.531" stroke="#263238" stroke-width="2"
        stroke-miterlimit="10" />
    <path
        d="M44.011 213.274C44.011 213.274 44.5923 211.16 43.0053 209.003C42.0499 207.705 36.4079 203.799 35.3618 205.855C34.2245 208.092 39.5803 214.082 44.011 213.274Z"
        fill="#136048" stroke="#263238" stroke-miterlimit="10" />
    <path d="M44.0107 213.274L38.8906 208.362" stroke="#263238" stroke-width="0.5"
        stroke-miterlimit="10" />
    <path d="M49.3373 189.866L45.7734 184.063" stroke="#263238" stroke-width="2"
        stroke-miterlimit="10" />
    <path
        d="M46.8607 185.806C46.8607 185.806 47.4425 183.692 45.8549 181.535C44.8995 180.237 39.2575 176.331 38.2115 178.388C37.0741 180.624 42.4299 186.614 46.8607 185.806Z"
        fill="#136048" stroke="#263238" stroke-miterlimit="10" />
    <path d="M46.8603 185.806L41.7402 180.894" stroke="#263238" stroke-width="0.5"
        stroke-miterlimit="10" />
    <path d="M48.1713 201.123L44.6074 195.319" stroke="#263238" stroke-width="2"
        stroke-miterlimit="10" />
    <path
        d="M45.6946 197.062C45.6946 197.062 46.2765 194.949 44.6889 192.792C43.7335 191.494 38.0915 187.588 37.0454 189.644C35.9081 191.881 41.2639 197.87 45.6946 197.062Z"
        fill="#136048" stroke="#263238" stroke-miterlimit="10" />
    <path d="M45.6943 197.062L40.5742 192.15" stroke="#263238" stroke-width="0.5"
        stroke-miterlimit="10" />
    <path d="M51.2357 171.581L47.6719 165.777" stroke="#263238" stroke-width="2"
        stroke-miterlimit="10" />
    <path
        d="M48.7591 167.52C48.7591 167.52 49.3409 165.407 47.7533 163.25C46.798 161.951 41.156 158.045 40.1099 160.102C38.9725 162.338 44.3284 168.328 48.7591 167.52Z"
        fill="#136048" stroke="#263238" stroke-miterlimit="10" />
    <path d="M48.7588 167.52L43.6387 162.608" stroke="#263238" stroke-width="0.5"
        stroke-miterlimit="10" />
    <path d="M53.142 153.216L49.5781 147.412" stroke="#263238" stroke-width="2"
        stroke-miterlimit="10" />
    <path
        d="M50.6653 149.155C50.6653 149.155 51.2472 147.042 49.6596 144.884C48.7042 143.586 43.0622 139.68 42.0161 141.737C40.8788 143.973 46.2346 149.963 50.6653 149.155Z"
        fill="#136048" stroke="#263238" stroke-miterlimit="10" />
    <path d="M50.665 149.155L45.5449 144.243" stroke="#263238" stroke-width="0.5"
        stroke-miterlimit="10" />
    <path d="M47.0898 210.655L51.7692 205.707" stroke="#263238" stroke-width="2"
        stroke-miterlimit="10" />
    <path
        d="M50.3476 207.189C50.3476 207.189 50.2121 205.002 52.2091 203.216C53.4103 202.142 59.7344 199.477 60.3358 201.705C60.9899 204.128 54.5185 208.89 50.3476 207.189Z"
        fill="#136048" stroke="#263238" stroke-miterlimit="10" />
    <path d="M50.3477 207.189L56.721 203.234" stroke="#263238" stroke-width="0.5"
        stroke-miterlimit="10" />
    <path d="M50.1641 181.033L54.8434 176.085" stroke="#263238" stroke-width="2"
        stroke-miterlimit="10" />
    <path
        d="M53.4219 177.568C53.4219 177.568 53.2863 175.38 55.2833 173.594C56.4845 172.52 62.8086 169.855 63.41 172.083C64.0641 174.506 57.5927 179.268 53.4219 177.568Z"
        fill="#136048" stroke="#263238" stroke-miterlimit="10" />
    <path d="M53.4219 177.568L59.7952 173.612" stroke="#263238" stroke-width="0.5"
        stroke-miterlimit="10" />
    <path d="M51.5137 168.016L56.193 163.068" stroke="#263238" stroke-width="2"
        stroke-miterlimit="10" />
    <path
        d="M54.7715 164.551C54.7715 164.551 54.6359 162.363 56.6329 160.577C57.8341 159.503 64.1582 156.838 64.7596 159.066C65.4137 161.489 58.9423 166.251 54.7715 164.551Z"
        fill="#136048" stroke="#263238" stroke-miterlimit="10" />
    <path d="M54.7715 164.55L61.1448 160.595" stroke="#263238" stroke-width="0.5"
        stroke-miterlimit="10" />
    <path d="M53.4941 148.932L58.1735 143.983" stroke="#263238" stroke-width="2"
        stroke-miterlimit="10" />
    <path
        d="M56.7519 145.466C56.7519 145.466 56.6164 143.279 58.6134 141.494C59.8146 140.42 66.1387 137.755 66.7401 139.982C67.3942 142.405 60.9228 147.167 56.7519 145.466Z"
        fill="#136048" stroke="#263238" stroke-miterlimit="10" />
    <path d="M56.75 145.466L63.1234 141.511" stroke="#263238" stroke-width="0.5"
        stroke-miterlimit="10" />
    <path
        d="M54.5156 136.679C54.5156 136.679 54.3801 134.492 56.377 132.707C57.5782 131.633 63.9023 128.968 64.5038 131.195C65.1578 133.617 58.6859 138.38 54.5156 136.679Z"
        fill="#136048" stroke="#263238" stroke-miterlimit="10" />
    <path d="M54.5156 136.679L60.889 132.724" stroke="#263238" stroke-width="0.5"
        stroke-miterlimit="10" />
    <path
        d="M54.7767 136.963C54.7767 136.963 52.5871 136.868 51.0208 134.695C50.0783 133.388 48.0914 126.819 50.3701 126.455C52.8475 126.058 56.9053 132.993 54.7767 136.963Z"
        fill="#136048" stroke="#263238" stroke-miterlimit="10" />
    <path d="M54.7771 136.963L51.5117 130.21" stroke="#263238" stroke-width="0.5"
        stroke-miterlimit="10" />
    <path d="M42.7188 96.931V222.094" stroke="#263238" stroke-width="2" stroke-miterlimit="10" />
    <path d="M42.8192 203.275L38.6758 197.87" stroke="#263238" stroke-width="2"
        stroke-miterlimit="10" />
    <path
        d="M39.9369 199.491C39.9369 199.491 40.297 197.329 38.4954 195.347C37.4113 194.155 31.3963 190.851 30.5681 193.005C29.667 195.348 35.6125 200.752 39.9369 199.491Z"
        fill="#136048" stroke="#263238" stroke-miterlimit="10" />
    <path d="M39.9359 199.491L34.3359 195.134" stroke="#263238" stroke-width="0.5"
        stroke-miterlimit="10" />
    <path d="M42.8192 179.753L38.6758 174.348" stroke="#263238" stroke-width="2"
        stroke-miterlimit="10" />
    <path
        d="M39.9369 175.97C39.9369 175.97 40.297 173.808 38.4954 171.826C37.4113 170.634 31.3963 167.33 30.5681 169.484C29.667 171.826 35.6125 177.231 39.9369 175.97Z"
        fill="#136048" stroke="#263238" stroke-miterlimit="10" />
    <path d="M39.9359 175.97L34.3359 171.613" stroke="#263238" stroke-width="0.5"
        stroke-miterlimit="10" />
    <path d="M42.8192 152.138L38.6758 146.733" stroke="#263238" stroke-width="2"
        stroke-miterlimit="10" />
    <path
        d="M39.9369 148.354C39.9369 148.354 40.297 146.192 38.4954 144.21C37.4113 143.018 31.3963 139.715 30.5681 141.868C29.667 144.21 35.6125 149.615 39.9369 148.354Z"
        fill="#136048" stroke="#263238" stroke-miterlimit="10" />
    <path d="M39.9359 148.354L34.3359 143.997" stroke="#263238" stroke-width="0.5"
        stroke-miterlimit="10" />
    <path d="M42.8192 133.754L38.6758 128.349" stroke="#263238" stroke-width="2"
        stroke-miterlimit="10" />
    <path
        d="M39.9369 129.971C39.9369 129.971 40.297 127.808 38.4954 125.827C37.4113 124.634 31.3963 121.331 30.5681 123.485C29.667 125.827 35.6125 131.232 39.9369 129.971Z"
        fill="#136048" stroke="#263238" stroke-miterlimit="10" />
    <path d="M39.9359 129.971L34.3359 125.613" stroke="#263238" stroke-width="0.5"
        stroke-miterlimit="10" />
    <path d="M42.8192 115.29L38.6758 109.885" stroke="#263238" stroke-width="2"
        stroke-miterlimit="10" />
    <path
        d="M39.9369 111.507C39.9369 111.507 40.297 109.344 38.4954 107.363C37.4113 106.17 31.3963 102.867 30.5681 105.021C29.667 107.363 35.6125 112.768 39.9369 111.507Z"
        fill="#136048" stroke="#263238" stroke-miterlimit="10" />
    <path d="M39.9359 111.507L34.3359 107.149" stroke="#263238" stroke-width="0.5"
        stroke-miterlimit="10" />
    <path d="M42.7266 210.457L46.8706 205.053" stroke="#263238" stroke-width="2"
        stroke-miterlimit="10" />
    <path
        d="M45.6075 206.674C45.6075 206.674 45.2474 204.512 47.0489 202.53C48.1331 201.338 54.1481 198.034 54.9763 200.188C55.8773 202.53 49.9318 207.935 45.6075 206.674Z"
        fill="#136048" stroke="#263238" stroke-miterlimit="10" />
    <path d="M45.6094 206.674L51.5409 202.082" stroke="#263238" stroke-width="0.5"
        stroke-miterlimit="10" />
    <path d="M42.7266 173.048L46.8706 167.643" stroke="#263238" stroke-width="2"
        stroke-miterlimit="10" />
    <path
        d="M45.6075 169.265C45.6075 169.265 45.2474 167.102 47.0489 165.121C48.1331 163.928 54.1481 160.625 54.9763 162.779C55.8773 165.121 49.9318 170.526 45.6075 169.265Z"
        fill="#136048" stroke="#263238" stroke-miterlimit="10" />
    <path d="M45.6094 169.265L51.5409 164.673" stroke="#263238" stroke-width="0.5"
        stroke-miterlimit="10" />
    <path d="M42.7266 154.584L46.8706 149.179" stroke="#263238" stroke-width="2"
        stroke-miterlimit="10" />
    <path
        d="M45.6075 150.8C45.6075 150.8 45.2474 148.638 47.0489 146.656C48.1331 145.464 54.1481 142.161 54.9763 144.314C55.8773 146.657 49.9318 152.061 45.6075 150.8Z"
        fill="#136048" stroke="#263238" stroke-miterlimit="10" />
    <path d="M45.6094 150.8L51.5409 146.208" stroke="#263238" stroke-width="0.5"
        stroke-miterlimit="10" />
    <path d="M42.7266 130.179L46.8706 124.774" stroke="#263238" stroke-width="2"
        stroke-miterlimit="10" />
    <path
        d="M45.6075 126.396C45.6075 126.396 45.2474 124.234 47.0489 122.252C48.1331 121.06 54.1481 117.756 54.9763 119.909C55.8773 122.252 49.9318 127.657 45.6075 126.396Z"
        fill="#136048" stroke="#263238" stroke-miterlimit="10" />
    <path d="M45.6094 126.396L51.5409 121.804" stroke="#263238" stroke-width="0.5"
        stroke-miterlimit="10" />
    <path d="M42.7266 110.993L46.8706 105.588" stroke="#263238" stroke-width="2"
        stroke-miterlimit="10" />
    <path
        d="M45.6114 107.209C45.6114 107.209 45.2513 105.047 47.0528 103.065C48.137 101.873 54.152 98.5695 54.9802 100.723C55.8812 103.066 49.9357 108.47 45.6114 107.209Z"
        fill="#136048" stroke="#263238" stroke-miterlimit="10" />
    <path d="M45.6094 107.209L51.5409 102.618" stroke="#263238" stroke-width="0.5"
        stroke-miterlimit="10" />
    <path
        d="M42.4806 98.7C42.4806 98.7 42.12 96.5379 43.9221 94.556C45.0062 93.3638 51.0212 90.0603 51.8494 92.2141C52.7499 94.556 46.8044 99.9611 42.4806 98.7Z"
        fill="#136048" stroke="#263238" stroke-miterlimit="10" />
    <path d="M42.4805 98.7002L48.4114 94.1082" stroke="#263238" stroke-width="0.5"
        stroke-miterlimit="10" />
    <path
        d="M42.7687 98.9549C42.7687 98.9549 40.5808 99.0865 38.7989 97.0867C37.7265 95.8838 35.0727 89.5553 37.3009 88.9578C39.7251 88.3076 44.4767 94.7874 42.7687 98.9549Z"
        fill="#136048" stroke="#263238" stroke-miterlimit="10" />
    <path d="M42.7683 98.955L38.8242 92.5754" stroke="#263238" stroke-width="0.5"
        stroke-miterlimit="10" />
    <path d="M47.8693 254.556H34.6141L32.957 221.08H49.5263L47.8693 254.556Z" fill="#263238"
        stroke="#263238" stroke-miterlimit="10" />
    <path
        d="M212.43 176.637C212.43 176.637 212.5 174.806 213.275 173.537C214.05 172.269 216.868 171.353 218.348 171.987C219.827 172.621 220.532 173.044 220.532 173.044C220.532 173.044 218.348 173.678 216.375 175.017C214.403 176.356 212.43 176.637 212.43 176.637Z"
        fill="#136048" />
    <path
        d="M209.471 177.554C209.471 177.554 211.162 175.933 211.444 173.679C211.725 171.424 209.33 174.622 209.33 174.622C209.33 174.622 208.133 170.086 207.428 172.622C206.724 175.158 209.471 177.554 209.471 177.554Z"
        fill="#136048" />
    <path
        d="M206.231 176.849C206.231 176.849 206.654 174.736 205.879 173.256C205.104 171.777 203.061 171.918 201.017 172.552C198.974 173.186 198.34 173.186 198.34 173.186C198.34 173.186 200.735 174.806 202.778 175.651C204.822 176.496 206.231 176.849 206.231 176.849Z"
        fill="#136048" />
    <path
        d="M209.452 184.441C209.552 184.441 209.634 184.359 209.634 184.259V174.185C209.634 174.084 209.552 174.003 209.452 174.003C209.351 174.003 209.27 174.084 209.27 174.185V184.259C209.27 184.359 209.351 184.441 209.452 184.441Z"
        fill="#263238" />
    <path
        d="M208.608 184.441C208.616 184.441 208.624 184.44 208.633 184.439C208.732 184.426 208.802 184.333 208.788 184.234C208.753 183.982 207.902 178.013 205.011 174.699C204.945 174.622 204.83 174.615 204.754 174.681C204.678 174.747 204.67 174.863 204.736 174.938C207.555 178.17 208.419 184.223 208.427 184.284C208.44 184.375 208.519 184.441 208.608 184.441Z"
        fill="#263238" />
    <path
        d="M210.299 184.3H210.301C210.402 184.299 210.482 184.216 210.481 184.116C210.481 184.058 210.455 178.323 213.865 175.595C213.944 175.531 213.957 175.417 213.894 175.338C213.831 175.26 213.717 175.248 213.638 175.31C210.087 178.151 210.115 183.878 210.117 184.12C210.118 184.22 210.199 184.3 210.299 184.3Z"
        fill="#263238" />
    <path
        d="M207.48 184.23C207.496 184.23 207.512 184.227 207.527 184.223C207.624 184.197 207.682 184.097 207.656 184C207.635 183.924 207.141 182.118 206.007 180.559C205.948 180.477 205.834 180.46 205.753 180.518C205.671 180.577 205.654 180.691 205.712 180.773C206.807 182.278 207.299 184.077 207.304 184.095C207.326 184.176 207.4 184.23 207.48 184.23Z"
        fill="#263238" />
    <path
        d="M206.372 181.428C206.372 181.428 206.442 179.455 205.597 179.174C204.751 178.892 203.976 179.597 203.342 180.019C202.708 180.442 202.004 180.865 202.004 182.133C202.004 183.401 202.497 185.726 202.497 185.726C202.497 185.726 203.202 183.542 204.4 182.556C205.597 181.569 206.372 181.428 206.372 181.428Z"
        fill="#136048" />
    <path
        d="M211.565 184.3C211.642 184.3 211.714 184.251 211.739 184.173C211.744 184.156 212.303 182.451 213.58 181.443C213.659 181.381 213.672 181.266 213.61 181.187C213.548 181.109 213.433 181.095 213.354 181.157C211.988 182.235 211.415 183.988 211.392 184.062C211.361 184.158 211.414 184.26 211.51 184.291C211.528 184.297 211.547 184.3 211.565 184.3Z"
        fill="#263238" />
    <path
        d="M212.431 182.062C212.431 182.062 212.149 180.794 212.853 179.878C213.558 178.963 215.249 179.174 216.094 180.16C216.94 181.146 218.137 184.105 218.137 184.105C218.137 184.105 216.446 182.767 214.473 182.767C212.501 182.767 212.431 182.062 212.431 182.062Z"
        fill="#136048" />
    <path d="M206.816 195.1H212.439L215.25 185.8H204.004L206.816 195.1Z" fill="#263238"
        stroke="#263238" stroke-miterlimit="10" stroke-linecap="round" stroke-linejoin="round" />
    <path d="M203.974 185.8H215.283V184.258H203.974V185.8Z" fill="#263238" stroke="#263238"
        stroke-miterlimit="10" stroke-linecap="round" stroke-linejoin="round" />
    <g opacity="0.2">
        <path
            d="M214.064 156.513C213.685 156.392 213.563 156.103 213.67 155.799L213.7 155.724C213.821 155.405 214.08 155.299 214.429 155.405C214.763 155.526 215.31 155.799 215.72 156.088C215.583 155.617 215.477 154.979 215.477 154.6C215.477 154.25 215.674 154.007 216.023 154.007H216.1C216.449 154.007 216.646 154.25 216.646 154.6C216.646 154.979 216.54 155.617 216.403 156.088C216.828 155.799 217.36 155.526 217.694 155.405C218.028 155.298 218.317 155.405 218.423 155.739L218.438 155.784C218.544 156.134 218.438 156.391 218.058 156.513C217.709 156.62 217.117 156.711 216.616 156.726C216.996 157.015 217.466 157.44 217.694 157.744C217.891 158.017 217.861 158.336 217.603 158.533L217.542 158.579C217.253 158.791 216.965 158.73 216.737 158.427C216.524 158.123 216.266 157.622 216.069 157.106C215.856 157.622 215.598 158.123 215.386 158.427C215.158 158.73 214.869 158.791 214.581 158.579L214.52 158.533C214.246 158.336 214.231 158.017 214.428 157.744C214.656 157.44 215.127 157.015 215.506 156.711C215.021 156.711 214.414 156.62 214.064 156.513Z"
            fill="black" />
        <path
            d="M219.744 156.513C219.365 156.392 219.243 156.103 219.349 155.799L219.38 155.724C219.501 155.405 219.759 155.299 220.109 155.405C220.442 155.526 220.99 155.799 221.4 156.088C221.263 155.617 221.156 154.979 221.156 154.6C221.156 154.25 221.354 154.007 221.703 154.007H221.779C222.129 154.007 222.326 154.25 222.326 154.6C222.326 154.979 222.219 155.617 222.083 156.088C222.508 155.799 223.039 155.526 223.374 155.405C223.707 155.298 223.996 155.405 224.102 155.739L224.117 155.784C224.224 156.134 224.117 156.391 223.738 156.513C223.388 156.62 222.796 156.711 222.295 156.726C222.675 157.015 223.145 157.44 223.374 157.744C223.571 158.017 223.54 158.336 223.282 158.533L223.221 158.579C222.933 158.791 222.644 158.73 222.416 158.427C222.204 158.123 221.946 157.622 221.748 157.106C221.536 157.622 221.277 158.123 221.065 158.427C220.837 158.73 220.549 158.791 220.261 158.579L220.2 158.533C219.927 158.336 219.912 158.017 220.109 157.744C220.337 157.44 220.807 157.015 221.187 156.711C220.701 156.711 220.093 156.62 219.744 156.513Z"
            fill="black" />
        <path
            d="M225.422 156.513C225.042 156.392 224.921 156.103 225.027 155.799L225.057 155.724C225.179 155.405 225.437 155.299 225.786 155.405C226.121 155.526 226.667 155.799 227.077 156.088C226.941 155.617 226.834 154.979 226.834 154.6C226.834 154.25 227.031 154.007 227.381 154.007H227.457C227.806 154.007 228.004 154.25 228.004 154.6C228.004 154.979 227.897 155.617 227.76 156.088C228.186 155.799 228.717 155.526 229.051 155.405C229.385 155.298 229.674 155.405 229.78 155.739L229.795 155.784C229.901 156.134 229.795 156.391 229.415 156.513C229.066 156.62 228.474 156.711 227.973 156.726C228.352 157.015 228.823 157.44 229.051 157.744C229.248 158.017 229.218 158.336 228.96 158.533L228.899 158.579C228.611 158.791 228.323 158.73 228.095 158.427C227.882 158.123 227.624 157.622 227.427 157.106C227.214 157.622 226.956 158.123 226.744 158.427C226.516 158.73 226.227 158.791 225.939 158.579L225.878 158.533C225.605 158.336 225.59 158.017 225.787 157.744C226.015 157.44 226.486 157.015 226.866 156.711C226.378 156.711 225.771 156.62 225.422 156.513Z"
            fill="black" />
        <path
            d="M231.1 156.513C230.72 156.392 230.598 156.103 230.705 155.799L230.735 155.724C230.857 155.405 231.115 155.299 231.464 155.405C231.798 155.526 232.345 155.799 232.755 156.088C232.618 155.617 232.512 154.979 232.512 154.6C232.512 154.25 232.709 154.007 233.059 154.007H233.135C233.484 154.007 233.681 154.25 233.681 154.6C233.681 154.979 233.575 155.617 233.438 156.088C233.863 155.799 234.395 155.526 234.729 155.405C235.063 155.298 235.352 155.405 235.458 155.739L235.473 155.784C235.58 156.134 235.473 156.391 235.094 156.513C234.744 156.62 234.152 156.711 233.651 156.726C234.031 157.015 234.502 157.44 234.73 157.744C234.927 158.017 234.896 158.336 234.638 158.533L234.578 158.579C234.289 158.791 234.001 158.73 233.773 158.427C233.56 158.123 233.302 157.622 233.105 157.106C232.892 157.622 232.634 158.123 232.422 158.427C232.194 158.73 231.905 158.791 231.617 158.579L231.556 158.533C231.283 158.336 231.268 158.017 231.465 157.744C231.693 157.44 232.163 157.015 232.543 156.711C232.057 156.711 231.449 156.62 231.1 156.513Z"
            fill="black" />
        <path
            d="M236.779 156.513C236.4 156.392 236.278 156.103 236.385 155.799L236.415 155.724C236.536 155.405 236.794 155.299 237.144 155.405C237.478 155.526 238.025 155.799 238.435 156.088C238.298 155.617 238.192 154.979 238.192 154.6C238.192 154.25 238.389 154.007 238.738 154.007H238.814C239.163 154.007 239.361 154.25 239.361 154.6C239.361 154.979 239.255 155.617 239.118 156.088C239.543 155.799 240.074 155.526 240.409 155.405C240.743 155.298 241.031 155.405 241.138 155.739L241.153 155.784C241.259 156.134 241.153 156.391 240.773 156.513C240.424 156.62 239.832 156.711 239.33 156.726C239.71 157.015 240.181 157.44 240.409 157.744C240.606 158.017 240.576 158.336 240.318 158.533L240.257 158.579C239.969 158.791 239.68 158.73 239.452 158.427C239.24 158.123 238.982 157.622 238.784 157.106C238.571 157.622 238.313 158.123 238.101 158.427C237.873 158.73 237.585 158.791 237.296 158.579L237.235 158.533C236.962 158.336 236.947 158.017 237.144 157.744C237.372 157.44 237.843 157.015 238.222 156.711C237.736 156.711 237.129 156.62 236.779 156.513Z"
            fill="black" />
        <path
            d="M242.459 156.513C242.079 156.392 241.958 156.103 242.064 155.799L242.094 155.724C242.216 155.405 242.474 155.299 242.824 155.405C243.157 155.526 243.704 155.799 244.114 156.088C243.978 155.617 243.871 154.979 243.871 154.6C243.871 154.25 244.069 154.007 244.418 154.007H244.494C244.843 154.007 245.041 154.25 245.041 154.6C245.041 154.979 244.934 155.617 244.798 156.088C245.223 155.799 245.754 155.526 246.088 155.405C246.423 155.298 246.711 155.405 246.817 155.739L246.833 155.784C246.938 156.134 246.833 156.391 246.453 156.513C246.103 156.62 245.512 156.711 245.01 156.726C245.389 157.015 245.86 157.44 246.088 157.744C246.286 158.017 246.255 158.336 245.998 158.533L245.937 158.579C245.648 158.791 245.36 158.73 245.132 158.427C244.92 158.123 244.662 157.622 244.464 157.106C244.251 157.622 243.993 158.123 243.781 158.427C243.553 158.73 243.264 158.791 242.976 158.579L242.915 158.533C242.642 158.336 242.626 158.017 242.824 157.744C243.051 157.44 243.522 157.015 243.903 156.711C243.415 156.711 242.808 156.62 242.459 156.513Z"
            fill="black" />
        <path
            d="M248.137 156.513C247.757 156.392 247.636 156.103 247.742 155.799L247.773 155.724C247.893 155.405 248.152 155.299 248.501 155.405C248.835 155.526 249.382 155.799 249.792 156.088C249.655 155.617 249.549 154.979 249.549 154.6C249.549 154.25 249.747 154.007 250.095 154.007H250.172C250.52 154.007 250.718 154.25 250.718 154.6C250.718 154.979 250.612 155.617 250.475 156.088C250.9 155.799 251.432 155.526 251.766 155.405C252.1 155.298 252.389 155.405 252.495 155.739L252.51 155.784C252.616 156.134 252.51 156.391 252.13 156.513C251.781 156.62 251.189 156.711 250.687 156.726C251.067 157.015 251.538 157.44 251.766 157.744C251.964 158.017 251.933 158.336 251.675 158.533L251.614 158.579C251.326 158.791 251.037 158.73 250.809 158.427C250.597 158.123 250.339 157.622 250.141 157.106C249.929 157.622 249.67 158.123 249.458 158.427C249.23 158.73 248.942 158.791 248.653 158.579L248.592 158.533C248.319 158.336 248.304 158.017 248.502 157.744C248.729 157.44 249.2 157.015 249.58 156.711C249.094 156.711 248.486 156.62 248.137 156.513Z"
            fill="black" />
        <path
            d="M253.814 156.513C253.435 156.392 253.314 156.103 253.419 155.799L253.45 155.724C253.571 155.405 253.829 155.299 254.179 155.405C254.513 155.526 255.06 155.799 255.47 156.088C255.333 155.617 255.227 154.979 255.227 154.6C255.227 154.25 255.424 154.007 255.773 154.007H255.849C256.198 154.007 256.396 154.25 256.396 154.6C256.396 154.979 256.289 155.617 256.153 156.088C256.578 155.799 257.109 155.526 257.444 155.405C257.778 155.298 258.066 155.405 258.173 155.739L258.188 155.784C258.294 156.134 258.188 156.391 257.808 156.513C257.459 156.62 256.867 156.711 256.365 156.726C256.745 157.015 257.216 157.44 257.444 157.744C257.641 158.017 257.61 158.336 257.353 158.533L257.292 158.579C257.003 158.791 256.715 158.73 256.487 158.427C256.275 158.123 256.017 157.622 255.819 157.106C255.606 157.622 255.348 158.123 255.136 158.427C254.908 158.73 254.62 158.791 254.331 158.579L254.27 158.533C253.997 158.336 253.982 158.017 254.179 157.744C254.407 157.44 254.878 157.015 255.258 156.711C254.771 156.711 254.164 156.62 253.814 156.513Z"
            fill="black" />
    </g>
    <g opacity="0.2">
        <path
            d="M102.359 30.7888C101.98 30.6673 101.858 30.3789 101.965 30.0754L101.995 29.9992C102.116 29.68 102.375 29.5742 102.724 29.68C103.058 29.8016 103.605 30.0748 104.015 30.3632C103.878 29.8923 103.772 29.255 103.772 28.8753C103.772 28.5259 103.969 28.2828 104.318 28.2828H104.394C104.744 28.2828 104.941 28.5259 104.941 28.8753C104.941 29.255 104.835 29.8928 104.698 30.3632C105.123 30.0748 105.654 29.8016 105.989 29.68C106.323 29.5736 106.611 29.68 106.717 30.0144L106.732 30.0597C106.839 30.4092 106.732 30.6668 106.353 30.7883C106.003 30.8947 105.411 30.986 104.91 31.0011C105.29 31.2895 105.76 31.7151 105.989 32.0186C106.186 32.2919 106.156 32.6105 105.897 32.8082L105.836 32.8541C105.548 33.0669 105.26 33.0059 105.032 32.7024C104.819 32.3983 104.561 31.8976 104.364 31.3813C104.151 31.8976 103.893 32.3988 103.68 32.7024C103.453 33.0059 103.164 33.0669 102.876 32.8541L102.815 32.8082C102.541 32.6105 102.526 32.2919 102.723 32.0186C102.951 31.7151 103.422 31.2895 103.801 30.986C103.316 30.986 102.709 30.8952 102.359 30.7888Z"
            fill="black" />
        <path
            d="M108.037 30.7888C107.657 30.6673 107.536 30.3789 107.642 30.0754L107.673 29.9992C107.794 29.68 108.052 29.5742 108.402 29.68C108.735 29.8016 109.283 30.0748 109.693 30.3632C109.556 29.8923 109.449 29.255 109.449 28.8753C109.449 28.5259 109.647 28.2828 109.996 28.2828H110.072C110.422 28.2828 110.619 28.5259 110.619 28.8753C110.619 29.255 110.512 29.8928 110.376 30.3632C110.801 30.0748 111.332 29.8016 111.667 29.68C112 29.5736 112.289 29.68 112.395 30.0144L112.41 30.0597C112.517 30.4092 112.41 30.6668 112.031 30.7883C111.681 30.8947 111.089 30.986 110.588 31.0011C110.968 31.2895 111.439 31.7151 111.667 32.0186C111.864 32.2919 111.833 32.6105 111.575 32.8082L111.514 32.8541C111.226 33.0669 110.937 33.0059 110.709 32.7024C110.497 32.3983 110.239 31.8976 110.041 31.3813C109.829 31.8976 109.57 32.3988 109.358 32.7024C109.13 33.0059 108.842 33.0669 108.553 32.8541L108.492 32.8082C108.219 32.6105 108.204 32.2919 108.401 32.0186C108.629 31.7151 109.099 31.2895 109.479 30.986C108.994 30.986 108.386 30.8952 108.037 30.7888Z"
            fill="black" />
        <path
            d="M113.717 30.7888C113.337 30.6673 113.216 30.3789 113.322 30.0754L113.352 29.9992C113.474 29.68 113.732 29.5742 114.081 29.68C114.415 29.8016 114.962 30.0748 115.372 30.3632C115.235 29.8923 115.129 29.255 115.129 28.8753C115.129 28.5259 115.326 28.2828 115.675 28.2828H115.751C116.101 28.2828 116.298 28.5259 116.298 28.8753C116.298 29.255 116.191 29.8928 116.055 30.3632C116.48 30.0748 117.011 29.8016 117.346 29.68C117.679 29.5736 117.968 29.68 118.074 30.0144L118.089 30.0597C118.196 30.4092 118.089 30.6668 117.71 30.7883C117.36 30.8947 116.768 30.986 116.267 31.0011C116.647 31.2895 117.117 31.7151 117.346 32.0186C117.543 32.2919 117.513 32.6105 117.254 32.8082L117.193 32.8541C116.905 33.0669 116.617 33.0059 116.389 32.7024C116.176 32.3983 115.918 31.8976 115.721 31.3813C115.508 31.8976 115.25 32.3988 115.037 32.7024C114.809 33.0059 114.521 33.0669 114.233 32.8541L114.172 32.8082C113.899 32.6105 113.884 32.2919 114.081 32.0186C114.309 31.7151 114.78 31.2895 115.159 30.986C114.673 30.986 114.066 30.8952 113.717 30.7888Z"
            fill="black" />
        <path
            d="M119.397 30.7888C119.017 30.6673 118.895 30.3789 119.002 30.0754L119.032 29.9992C119.153 29.68 119.412 29.5742 119.761 29.68C120.095 29.8016 120.642 30.0748 121.052 30.3632C120.915 29.8923 120.809 29.255 120.809 28.8753C120.809 28.5259 121.006 28.2828 121.355 28.2828H121.432C121.781 28.2828 121.978 28.5259 121.978 28.8753C121.978 29.255 121.872 29.8928 121.735 30.3632C122.16 30.0748 122.692 29.8016 123.026 29.68C123.36 29.5736 123.649 29.68 123.754 30.0144L123.77 30.0597C123.876 30.4092 123.77 30.6668 123.39 30.7883C123.04 30.8947 122.448 30.986 121.947 31.0011C122.327 31.2895 122.797 31.7151 123.025 32.0186C123.222 32.2919 123.192 32.6105 122.934 32.8082L122.874 32.8541C122.585 33.0669 122.297 33.0059 122.069 32.7024C121.856 32.3983 121.598 31.8976 121.401 31.3813C121.188 31.8976 120.93 32.3988 120.718 32.7024C120.49 33.0059 120.201 33.0669 119.913 32.8541L119.852 32.8082C119.579 32.6105 119.563 32.2919 119.761 32.0186C119.988 31.7151 120.459 31.2895 120.839 30.986C120.354 30.986 119.746 30.8952 119.397 30.7888Z"
            fill="black" />
        <path
            d="M125.074 30.7888C124.695 30.6673 124.573 30.3789 124.679 30.0754L124.71 29.9992C124.831 29.68 125.089 29.5736 125.439 29.68C125.773 29.8016 126.32 30.0748 126.73 30.3632C126.593 29.8923 126.487 29.255 126.487 28.8753C126.487 28.5259 126.684 28.2828 127.033 28.2828H127.109C127.458 28.2828 127.656 28.5259 127.656 28.8753C127.656 29.255 127.549 29.8928 127.413 30.3632C127.838 30.0748 128.369 29.8016 128.704 29.68C129.038 29.5736 129.326 29.68 129.433 30.0144L129.448 30.0597C129.554 30.4092 129.448 30.6668 129.068 30.7883C128.719 30.8947 128.127 30.986 127.625 31.0011C128.005 31.2895 128.476 31.7151 128.704 32.0186C128.901 32.2919 128.87 32.6105 128.613 32.8082L128.552 32.8541C128.263 33.0669 127.975 33.0059 127.747 32.7024C127.535 32.3983 127.277 31.8976 127.079 31.3813C126.866 31.8976 126.608 32.3988 126.396 32.7024C126.168 33.0059 125.88 33.0669 125.591 32.8541L125.53 32.8082C125.257 32.6105 125.242 32.2919 125.439 32.0186C125.667 31.7151 126.138 31.2895 126.517 30.986C126.031 30.986 125.424 30.8952 125.074 30.7888Z"
            fill="black" />
        <path
            d="M130.754 30.7888C130.374 30.6673 130.253 30.3789 130.359 30.0754L130.389 29.9992C130.511 29.68 130.769 29.5742 131.119 29.68C131.452 29.8016 131.999 30.0748 132.409 30.3632C132.273 29.8923 132.166 29.255 132.166 28.8753C132.166 28.5259 132.364 28.2828 132.713 28.2828H132.789C133.138 28.2828 133.336 28.5259 133.336 28.8753C133.336 29.255 133.229 29.8928 133.093 30.3632C133.518 30.0748 134.05 29.8016 134.383 29.68C134.718 29.5736 135.006 29.68 135.112 30.0144L135.128 30.0597C135.233 30.4092 135.128 30.6668 134.748 30.7883C134.398 30.8947 133.807 30.986 133.305 31.0011C133.684 31.2895 134.156 31.7151 134.383 32.0186C134.581 32.2919 134.55 32.6105 134.293 32.8082L134.232 32.8541C133.943 33.0669 133.655 33.0059 133.427 32.7024C133.215 32.3983 132.956 31.8976 132.759 31.3813C132.546 31.8976 132.288 32.3988 132.076 32.7024C131.848 33.0059 131.559 33.0669 131.271 32.8541L131.21 32.8082C130.937 32.6105 130.921 32.2919 131.119 32.0186C131.346 31.7151 131.817 31.2895 132.198 30.986C131.71 30.986 131.103 30.8952 130.754 30.7888Z"
            fill="black" />
        <path
            d="M136.431 30.7888C136.052 30.6673 135.931 30.3789 136.037 30.0754L136.067 29.9992C136.188 29.68 136.447 29.5742 136.796 29.68C137.13 29.8016 137.677 30.0748 138.087 30.3632C137.95 29.8923 137.844 29.255 137.844 28.8753C137.844 28.5259 138.041 28.2828 138.39 28.2828H138.466C138.815 28.2828 139.013 28.5259 139.013 28.8753C139.013 29.255 138.907 29.8928 138.77 30.3632C139.195 30.0748 139.726 29.8016 140.061 29.68C140.395 29.5736 140.684 29.68 140.79 30.0144L140.805 30.0597C140.911 30.4092 140.805 30.6668 140.425 30.7883C140.076 30.8947 139.484 30.986 138.982 31.0011C139.362 31.2895 139.833 31.7151 140.06 32.0186C140.258 32.2919 140.227 32.6105 139.97 32.8082L139.908 32.8541C139.62 33.0669 139.332 33.0059 139.104 32.7024C138.892 32.3983 138.633 31.8976 138.436 31.3813C138.223 31.8976 137.965 32.3988 137.752 32.7024C137.525 33.0059 137.236 33.0669 136.948 32.8541L136.887 32.8082C136.613 32.6105 136.598 32.2919 136.796 32.0186C137.023 31.7151 137.494 31.2895 137.874 30.986C137.388 30.986 136.781 30.8952 136.431 30.7888Z"
            fill="black" />
        <path
            d="M142.111 30.7888C141.731 30.6673 141.61 30.3789 141.716 30.0754L141.747 29.9992C141.868 29.68 142.126 29.5742 142.476 29.68C142.809 29.8016 143.357 30.0748 143.767 30.3632C143.63 29.8923 143.523 29.255 143.523 28.8753C143.523 28.5259 143.721 28.2828 144.07 28.2828H144.146C144.495 28.2828 144.693 28.5259 144.693 28.8753C144.693 29.255 144.586 29.8928 144.45 30.3632C144.875 30.0748 145.407 29.8016 145.74 29.68C146.075 29.5736 146.363 29.68 146.47 30.0144L146.485 30.0597C146.591 30.4092 146.485 30.6668 146.105 30.7883C145.756 30.8947 145.164 30.986 144.662 31.0011C145.042 31.2895 145.513 31.7151 145.74 32.0186C145.938 32.2919 145.907 32.6105 145.65 32.8082L145.589 32.8541C145.3 33.0669 145.012 33.0059 144.784 32.7024C144.572 32.3983 144.314 31.8976 144.116 31.3813C143.903 31.8976 143.645 32.3988 143.433 32.7024C143.205 33.0059 142.916 33.0669 142.628 32.8541L142.567 32.8082C142.294 32.6105 142.279 32.2919 142.476 32.0186C142.704 31.7151 143.175 31.2895 143.554 30.986C143.068 30.986 142.461 30.8952 142.111 30.7888Z"
            fill="black" />
    </g>
    <g opacity="0.2">
        <path
            d="M149.891 208.087C149.511 207.965 149.389 207.677 149.496 207.373L149.526 207.297C149.648 206.978 149.906 206.872 150.255 206.978C150.589 207.099 151.136 207.373 151.546 207.661C151.409 207.19 151.303 206.552 151.303 206.173C151.303 205.824 151.5 205.581 151.85 205.581H151.926C152.275 205.581 152.472 205.824 152.472 206.173C152.472 206.553 152.366 207.191 152.229 207.661C152.654 207.373 153.186 207.099 153.52 206.978C153.854 206.871 154.143 206.978 154.249 207.312L154.264 207.357C154.37 207.707 154.264 207.964 153.884 208.086C153.535 208.192 152.943 208.284 152.441 208.299C152.821 208.587 153.292 209.013 153.52 209.316C153.717 209.59 153.687 209.908 153.429 210.106L153.368 210.151C153.079 210.364 152.791 210.303 152.563 210C152.35 209.695 152.092 209.195 151.895 208.678C151.682 209.195 151.424 209.696 151.212 210C150.984 210.303 150.695 210.364 150.407 210.151L150.346 210.106C150.073 209.908 150.058 209.59 150.255 209.316C150.483 209.012 150.953 208.587 151.333 208.284C150.847 208.284 150.24 208.193 149.891 208.087Z"
            fill="black" />
        <path
            d="M155.568 208.087C155.189 207.965 155.067 207.677 155.174 207.373L155.204 207.297C155.325 206.978 155.584 206.872 155.933 206.978C156.267 207.099 156.814 207.373 157.224 207.661C157.087 207.19 156.981 206.552 156.981 206.173C156.981 205.824 157.178 205.581 157.527 205.581H157.603C157.953 205.581 158.15 205.824 158.15 206.173C158.15 206.553 158.044 207.191 157.907 207.661C158.332 207.373 158.864 207.099 159.198 206.978C159.532 206.871 159.82 206.978 159.926 207.312L159.941 207.357C160.048 207.707 159.941 207.964 159.562 208.086C159.212 208.192 158.62 208.284 158.119 208.299C158.499 208.587 158.969 209.013 159.198 209.316C159.395 209.59 159.365 209.908 159.106 210.106L159.046 210.151C158.758 210.364 158.469 210.303 158.241 210C158.028 209.695 157.77 209.195 157.573 208.678C157.36 209.195 157.102 209.696 156.89 210C156.662 210.303 156.374 210.364 156.085 210.151L156.025 210.106C155.752 209.908 155.736 209.59 155.934 209.316C156.161 209.012 156.632 208.587 157.012 208.284C156.525 208.284 155.918 208.193 155.568 208.087Z"
            fill="black" />
        <path
            d="M161.248 208.087C160.868 207.965 160.747 207.677 160.853 207.373L160.884 207.297C161.005 206.978 161.263 206.872 161.612 206.978C161.946 207.099 162.493 207.373 162.903 207.661C162.766 207.19 162.66 206.552 162.66 206.173C162.66 205.824 162.857 205.581 163.206 205.581H163.283C163.632 205.581 163.829 205.824 163.829 206.173C163.829 206.553 163.723 207.191 163.586 207.661C164.011 207.373 164.543 207.099 164.877 206.978C165.211 206.871 165.5 206.978 165.606 207.312L165.621 207.357C165.728 207.707 165.621 207.964 165.241 208.086C164.892 208.192 164.3 208.284 163.799 208.299C164.179 208.587 164.65 209.013 164.877 209.316C165.075 209.59 165.044 209.908 164.786 210.106L164.725 210.151C164.437 210.364 164.148 210.303 163.92 210C163.708 209.695 163.449 209.195 163.252 208.678C163.04 209.195 162.781 209.696 162.569 210C162.341 210.303 162.053 210.364 161.764 210.151L161.704 210.106C161.431 209.908 161.416 209.59 161.613 209.316C161.841 209.012 162.312 208.587 162.691 208.284C162.205 208.284 161.597 208.193 161.248 208.087Z"
            fill="black" />
        <path
            d="M166.928 208.087C166.548 207.965 166.427 207.677 166.533 207.373L166.563 207.297C166.685 206.978 166.943 206.872 167.292 206.978C167.626 207.099 168.173 207.373 168.583 207.661C168.446 207.19 168.34 206.552 168.34 206.173C168.34 205.824 168.537 205.581 168.887 205.581H168.963C169.312 205.581 169.509 205.824 169.509 206.173C169.509 206.553 169.403 207.191 169.266 207.661C169.691 207.373 170.223 207.099 170.557 206.978C170.891 206.871 171.18 206.978 171.286 207.312L171.301 207.357C171.407 207.707 171.301 207.964 170.921 208.086C170.572 208.192 169.98 208.284 169.479 208.299C169.858 208.587 170.329 209.013 170.557 209.316C170.754 209.59 170.724 209.908 170.466 210.106L170.405 210.151C170.117 210.364 169.829 210.303 169.601 210C169.388 209.695 169.13 209.195 168.933 208.678C168.72 209.195 168.462 209.696 168.249 210C168.021 210.303 167.733 210.364 167.445 210.151L167.384 210.106C167.11 209.908 167.095 209.59 167.292 209.316C167.52 209.012 167.991 208.587 168.37 208.284C167.884 208.284 167.277 208.193 166.928 208.087Z"
            fill="black" />
        <path
            d="M172.604 208.087C172.224 207.965 172.102 207.677 172.209 207.373L172.239 207.297C172.361 206.978 172.619 206.872 172.968 206.978C173.302 207.099 173.848 207.373 174.259 207.661C174.122 207.19 174.016 206.552 174.016 206.173C174.016 205.824 174.214 205.581 174.562 205.581H174.639C174.987 205.581 175.185 205.824 175.185 206.173C175.185 206.553 175.079 207.191 174.942 207.661C175.367 207.373 175.899 207.099 176.233 206.978C176.567 206.871 176.856 206.978 176.962 207.312L176.977 207.357C177.083 207.707 176.977 207.964 176.597 208.086C176.248 208.192 175.656 208.284 175.154 208.299C175.534 208.587 176.005 209.013 176.233 209.316C176.431 209.59 176.4 209.908 176.142 210.106L176.081 210.151C175.793 210.364 175.504 210.303 175.276 210C175.064 209.695 174.806 209.195 174.608 208.678C174.396 209.195 174.137 209.696 173.925 210C173.697 210.303 173.409 210.364 173.12 210.151L173.059 210.106C172.786 209.908 172.771 209.59 172.969 209.316C173.196 209.012 173.667 208.587 174.047 208.284C173.561 208.284 172.954 208.193 172.604 208.087Z"
            fill="black" />
        <path
            d="M178.283 208.087C177.903 207.965 177.782 207.677 177.888 207.373L177.918 207.297C178.04 206.978 178.298 206.872 178.648 206.978C178.981 207.099 179.528 207.373 179.938 207.661C179.802 207.19 179.695 206.552 179.695 206.173C179.695 205.824 179.893 205.581 180.242 205.581H180.318C180.667 205.581 180.865 205.824 180.865 206.173C180.865 206.553 180.758 207.191 180.622 207.661C181.047 207.373 181.578 207.099 181.912 206.978C182.247 206.871 182.535 206.978 182.641 207.312L182.657 207.357C182.762 207.707 182.657 207.964 182.277 208.086C181.927 208.192 181.336 208.284 180.834 208.299C181.213 208.587 181.684 209.013 181.912 209.316C182.11 209.59 182.079 209.908 181.822 210.106L181.761 210.151C181.472 210.364 181.184 210.303 180.956 210C180.744 209.695 180.485 209.195 180.288 208.678C180.075 209.195 179.817 209.696 179.605 210C179.377 210.303 179.088 210.364 178.8 210.151L178.739 210.106C178.466 209.908 178.45 209.59 178.648 209.316C178.875 209.012 179.346 208.587 179.727 208.284C179.24 208.284 178.632 208.193 178.283 208.087Z"
            fill="black" />
        <path
            d="M183.963 208.087C183.583 207.965 183.462 207.677 183.568 207.373L183.599 207.297C183.72 206.978 183.978 206.872 184.327 206.978C184.661 207.099 185.208 207.373 185.618 207.661C185.482 207.19 185.375 206.552 185.375 206.173C185.375 205.824 185.573 205.581 185.922 205.581H185.998C186.347 205.581 186.545 205.824 186.545 206.173C186.545 206.553 186.438 207.191 186.301 207.661C186.727 207.373 187.258 207.099 187.592 206.978C187.927 206.871 188.215 206.978 188.321 207.312L188.337 207.357C188.442 207.707 188.337 207.964 187.957 208.086C187.607 208.192 187.015 208.284 186.514 208.299C186.893 208.587 187.364 209.013 187.592 209.316C187.789 209.59 187.759 209.908 187.501 210.106L187.44 210.151C187.152 210.364 186.863 210.303 186.635 210C186.423 209.695 186.165 209.195 185.967 208.678C185.754 209.195 185.496 209.696 185.284 210C185.056 210.303 184.768 210.364 184.479 210.151L184.418 210.106C184.145 209.908 184.13 209.59 184.327 209.316C184.555 209.012 185.026 208.587 185.406 208.284C184.919 208.284 184.312 208.193 183.963 208.087Z"
            fill="black" />
        <path
            d="M189.643 208.087C189.263 207.965 189.141 207.677 189.248 207.373L189.279 207.297C189.4 206.978 189.658 206.872 190.008 206.978C190.341 207.099 190.889 207.373 191.299 207.661C191.162 207.19 191.055 206.552 191.055 206.173C191.055 205.824 191.253 205.581 191.602 205.581H191.678C192.027 205.581 192.225 205.824 192.225 206.173C192.225 206.553 192.118 207.191 191.982 207.661C192.407 207.373 192.938 207.099 193.273 206.978C193.607 206.871 193.895 206.978 194.002 207.312L194.017 207.357C194.123 207.707 194.017 207.964 193.637 208.086C193.288 208.192 192.696 208.284 192.194 208.299C192.574 208.587 193.045 209.013 193.273 209.316C193.47 209.59 193.439 209.908 193.182 210.106L193.121 210.151C192.832 210.364 192.544 210.303 192.316 210C192.104 209.695 191.846 209.195 191.648 208.678C191.435 209.195 191.177 209.696 190.965 210C190.737 210.303 190.448 210.364 190.16 210.151L190.099 210.106C189.826 209.908 189.811 209.59 190.008 209.316C190.236 209.012 190.707 208.587 191.086 208.284C190.599 208.284 189.992 208.193 189.643 208.087Z"
            fill="black" />
    </g>
    <g opacity="0.2">
        <path
            d="M240.464 180.534V176.548C240.464 174.089 242.507 172.09 245.017 172.09C247.528 172.09 249.571 174.089 249.571 176.548V180.507H251.386V176.548C251.386 173.11 248.529 170.313 245.017 170.313C241.506 170.313 238.648 173.11 238.648 176.548V180.534H240.464Z"
            stroke="black" stroke-miterlimit="10" />
        <path d="M251.881 180.543H237.975V192.046H251.881V180.543Z" stroke="black"
            stroke-miterlimit="10" />
        <path
            d="M246.374 185.321C246.374 184.502 245.696 183.838 244.859 183.838C244.023 183.838 243.346 184.502 243.346 185.321C243.346 185.885 243.667 186.375 244.141 186.626L243.887 189.238H245.833L245.579 186.626C246.052 186.375 246.374 185.884 246.374 185.321Z"
            stroke="black" stroke-miterlimit="10" />
    </g>
    <g opacity="0.2">
        <path
            d="M43.462 55.4305V51.4444C43.462 48.986 45.5049 46.9862 48.0154 46.9862C50.5258 46.9862 52.5687 48.986 52.5687 51.4444V55.4036H54.3842V51.4444C54.3842 48.006 51.5271 45.2094 48.0154 45.2094C44.5036 45.2094 41.6465 48.0065 41.6465 51.4444V55.4305H43.462Z"
            stroke="black" stroke-miterlimit="10" />
        <path d="M54.8786 55.4399H40.9727V66.9429H54.8786V55.4399Z" stroke="black"
            stroke-miterlimit="10" />
        <path
            d="M49.3711 60.2168C49.3711 59.3981 48.6935 58.7345 47.8574 58.7345C47.0213 58.7345 46.3438 59.3981 46.3438 60.2168C46.3438 60.7807 46.6652 61.2707 47.1389 61.5216L46.8847 64.134H48.8313L48.577 61.5216C49.0497 61.2707 49.3711 60.7807 49.3711 60.2168Z"
            stroke="black" stroke-miterlimit="10" />
    </g>
    <g opacity="0.2">
        <path
            d="M217.068 25.2935V22.6778C217.068 21.0644 218.409 19.7523 220.056 19.7523C221.704 19.7523 223.044 21.0644 223.044 22.6778V25.2756H224.236V22.6778C224.236 20.4215 222.361 18.5864 220.056 18.5864C217.752 18.5864 215.877 20.4221 215.877 22.6778V25.2935H217.068Z"
            stroke="black" stroke-miterlimit="10" />
        <path d="M224.559 25.3003H215.434V32.8485H224.559V25.3003Z" stroke="black"
            stroke-miterlimit="10" />
        <path
            d="M220.946 28.4346C220.946 27.8976 220.501 27.4619 219.952 27.4619C219.404 27.4619 218.959 27.8976 218.959 28.4346C218.959 28.8048 219.17 29.1262 219.481 29.2909L219.314 31.005H220.591L220.425 29.2909C220.735 29.1262 220.946 28.8048 220.946 28.4346Z"
            stroke="black" stroke-miterlimit="10" />
    </g>
    <path d="M243.849 48.505H65.6133V143.17H243.849V48.505Z" fill="white" stroke="#263238"
        stroke-miterlimit="10" stroke-linecap="round" stroke-linejoin="round" />
    <path d="M243.847 48.505H96.6738V57.3799H243.847V48.505Z" fill="#D9D9D9" stroke="#263238"
        stroke-miterlimit="10" stroke-linecap="round" stroke-linejoin="round" />
    <path d="M243.849 48.505H127.887V57.3799H243.849V48.505Z" fill="#A8A8A8" stroke="#263238"
        stroke-miterlimit="10" stroke-linecap="round" stroke-linejoin="round" />
    <path d="M243.849 39.8357H65.4648V48.7106H243.849V39.8357Z" fill="#263238" stroke="#263238"
        stroke-miterlimit="10" stroke-linecap="round" stroke-linejoin="round" />
    <path
        d="M189.309 46.0253H73.3248C72.2653 46.0253 71.4062 45.1662 71.4062 44.1067C71.4062 43.0472 72.2653 42.1887 73.3248 42.1887H189.309C190.369 42.1887 191.228 43.0478 191.228 44.1067C191.227 45.1668 190.368 46.0253 189.309 46.0253Z"
        fill="#A8A8A8" stroke="#263238" stroke-miterlimit="10" stroke-linecap="round"
        stroke-linejoin="round" />
    <path
        d="M224.317 45.9766C225.208 45.9766 225.931 45.254 225.931 44.3627C225.931 43.4714 225.208 42.7488 224.317 42.7488C223.426 42.7488 222.703 43.4714 222.703 44.3627C222.703 45.254 223.426 45.9766 224.317 45.9766Z"
        fill="white" stroke="#263238" stroke-miterlimit="10" stroke-linecap="round"
        stroke-linejoin="round" />
    <path
        d="M232.656 44.3627C232.656 43.4712 231.933 42.7488 231.042 42.7488C230.15 42.7488 229.428 43.4712 229.428 44.3627C229.428 45.2542 230.15 45.9766 231.042 45.9766C231.933 45.9772 232.656 45.2542 232.656 44.3627Z"
        fill="white" stroke="#263238" stroke-miterlimit="10" stroke-linecap="round"
        stroke-linejoin="round" />
    <path
        d="M237.766 45.9766C238.658 45.9766 239.38 45.254 239.38 44.3627C239.38 43.4714 238.658 42.7488 237.766 42.7488C236.875 42.7488 236.152 43.4714 236.152 44.3627C236.152 45.254 236.875 45.9766 237.766 45.9766Z"
        fill="white" stroke="#263238" stroke-miterlimit="10" stroke-linecap="round"
        stroke-linejoin="round" />
    <path d="M77.1289 86.4075H96.9439V72.9585H85.4427L84.2745 69.6747H77.1289V86.4075Z"
        fill="#D9D9D9" stroke="#B5B5B5" stroke-miterlimit="10" />
    <path d="M77.1289 112.385H96.9439V98.9358H85.4427L84.2745 95.652H77.1289V112.385Z"
        fill="#D9D9D9" stroke="#B5B5B5" stroke-miterlimit="10" />
    <path d="M77.1289 138.363H96.9439V124.914H85.4427L84.2745 121.629H77.1289V138.363Z"
        fill="#D9D9D9" stroke="#B5B5B5" stroke-miterlimit="10" />
    <path d="M104.66 86.4075H124.476V72.9585H112.974L111.806 69.6747H104.66V86.4075Z" fill="#D9D9D9"
        stroke="#B5B5B5" stroke-miterlimit="10" />
    <path d="M104.66 112.385H124.476V98.9358H112.974L111.806 95.652H104.66V112.385Z" fill="#D9D9D9"
        stroke="#B5B5B5" stroke-miterlimit="10" />
    <path d="M104.66 138.363H124.476V124.914H112.974L111.806 121.629H104.66V138.363Z" fill="#D9D9D9"
        stroke="#B5B5B5" stroke-miterlimit="10" />
    <path d="M132.193 86.4075H152.008V72.9585H140.507L139.338 69.6747H132.193V86.4075Z"
        fill="#D9D9D9" stroke="#B5B5B5" stroke-miterlimit="10" />
    <path d="M132.193 112.385H152.008V98.9358H140.507L139.338 95.652H132.193V112.385Z"
        fill="#D9D9D9" stroke="#B5B5B5" stroke-miterlimit="10" />
    <path d="M132.193 138.363H152.008V124.914H140.507L139.338 121.629H132.193V138.363Z"
        fill="#D9D9D9" stroke="#B5B5B5" stroke-miterlimit="10" />
    <path d="M159.725 86.4075H179.54V72.9585H168.038L166.87 69.6747H159.725V86.4075Z" fill="#D9D9D9"
        stroke="#B5B5B5" stroke-miterlimit="10" />
    <path d="M159.725 112.385H179.54V98.9358H168.038L166.87 95.652H159.725V112.385Z" fill="#D9D9D9"
        stroke="#B5B5B5" stroke-miterlimit="10" />
    <path d="M159.725 138.363H179.54V124.914H168.038L166.87 121.629H159.725V138.363Z" fill="#D9D9D9"
        stroke="#B5B5B5" stroke-miterlimit="10" />
    <path d="M187.256 86.4075H207.071V72.9585H195.57L194.401 69.6747H187.256V86.4075Z"
        fill="#D9D9D9" stroke="#B5B5B5" stroke-miterlimit="10" />
    <path d="M187.256 112.385H207.071V98.9358H195.57L194.401 95.652H187.256V112.385Z" fill="#D9D9D9"
        stroke="#B5B5B5" stroke-miterlimit="10" />
    <path d="M187.256 138.363H207.071V124.914H195.57L194.401 121.629H187.256V138.363Z"
        fill="#D9D9D9" stroke="#B5B5B5" stroke-miterlimit="10" />
    <path d="M214.789 86.4075H234.605V72.9585H223.103L221.935 69.6747H214.789V86.4075Z"
        fill="#D9D9D9" stroke="#B5B5B5" stroke-miterlimit="10" />
    <path d="M214.789 112.385H234.605V98.9358H223.103L221.935 95.652H214.789V112.385Z"
        fill="#D9D9D9" stroke="#B5B5B5" stroke-miterlimit="10" />
    <path d="M214.789 138.363H234.605V124.914H223.103L221.935 121.629H214.789V138.363Z"
        fill="#D9D9D9" stroke="#B5B5B5" stroke-miterlimit="10" />
    <path opacity="0.3" d="M188.086 67.2045H116.684V130.207H188.086V67.2045Z" fill="black" />
    <path d="M189.873 63.9878H118.471V126.99H189.873V63.9878Z" fill="white" stroke="#263238"
        stroke-miterlimit="10" stroke-linecap="round" stroke-linejoin="round" />
    <path d="M189.873 63.9878H118.471V68.488H189.873V63.9878Z" fill="#263238" stroke="#263238"
        stroke-miterlimit="10" stroke-linecap="round" stroke-linejoin="round" />
    <path
        d="M149.708 90.9635V84.3231C149.708 81.8647 151.751 79.8649 154.261 79.8649C156.772 79.8649 158.815 81.8647 158.815 84.3231V88.2027H160.63V84.3231C160.63 80.8852 157.773 78.088 154.261 78.088C150.75 78.088 147.893 80.8852 147.893 84.3231V90.9635H149.708Z"
        fill="white" stroke="#263238" stroke-miterlimit="10" stroke-linecap="round"
        stroke-linejoin="round" />
    <path d="M161.125 90.3184H147.219V101.821H161.125V90.3184Z" fill="#136048" stroke="#263238"
        stroke-miterlimit="10" stroke-linecap="round" stroke-linejoin="round" />
    <path d="M163.107 86.0972L164.009 84.037" stroke="#263238" stroke-miterlimit="10"
        stroke-linecap="round" stroke-linejoin="round" />
    <path d="M163.236 88.5443H166.585" stroke="#263238" stroke-miterlimit="10"
        stroke-linecap="round" stroke-linejoin="round" />
    <path d="M162.85 90.8622L164.653 92.7942" stroke="#263238" stroke-miterlimit="10"
        stroke-linecap="round" stroke-linejoin="round" />
    <path
        d="M155.617 95.0952C155.617 94.2765 154.94 93.6129 154.104 93.6129C153.267 93.6129 152.59 94.2765 152.59 95.0952C152.59 95.6592 152.911 96.1492 153.385 96.4L153.131 99.0124H155.077L154.823 96.4C155.296 96.1492 155.617 95.6592 155.617 95.0952Z"
        fill="#263238" stroke="#263238" stroke-miterlimit="10" stroke-linecap="round"
        stroke-linejoin="round" />
    <path
        d="M179.065 116.3H129.275C128.038 116.3 127.035 115.297 127.035 114.06V108.747C127.035 107.51 128.038 106.507 129.275 106.507H179.065C180.302 106.507 181.305 107.51 181.305 108.747V114.06C181.305 115.298 180.303 116.3 179.065 116.3Z"
        fill="white" stroke="#263238" stroke-miterlimit="10" stroke-linecap="round"
        stroke-linejoin="round" />
    <path
        d="M132.307 111.713C131.927 111.592 131.805 111.303 131.912 110.999L131.942 110.924C132.064 110.604 132.322 110.499 132.671 110.604C133.005 110.726 133.552 110.999 133.962 111.288C133.825 110.817 133.719 110.179 133.719 109.8C133.719 109.45 133.916 109.207 134.266 109.207H134.342C134.691 109.207 134.888 109.45 134.888 109.8C134.888 110.179 134.782 110.817 134.645 111.288C135.07 110.999 135.602 110.726 135.936 110.604C136.27 110.498 136.559 110.604 136.665 110.939L136.68 110.984C136.786 111.334 136.68 111.591 136.3 111.713C135.951 111.82 135.359 111.911 134.857 111.926C135.237 112.214 135.708 112.64 135.936 112.944C136.133 113.217 136.103 113.536 135.845 113.733L135.784 113.779C135.495 113.991 135.207 113.93 134.979 113.627C134.766 113.323 134.508 112.822 134.311 112.306C134.098 112.822 133.84 113.323 133.628 113.627C133.4 113.93 133.111 113.991 132.823 113.779L132.763 113.733C132.489 113.536 132.474 113.217 132.671 112.944C132.899 112.64 133.37 112.214 133.749 111.911C133.263 111.911 132.656 111.82 132.307 111.713Z"
        fill="#263238" />
    <path
        d="M137.986 111.713C137.607 111.592 137.485 111.303 137.592 110.999L137.622 110.924C137.743 110.604 138.001 110.499 138.351 110.604C138.685 110.726 139.232 110.999 139.642 111.288C139.505 110.817 139.399 110.179 139.399 109.8C139.399 109.45 139.596 109.207 139.945 109.207H140.021C140.371 109.207 140.568 109.45 140.568 109.8C140.568 110.179 140.462 110.817 140.325 111.288C140.75 110.999 141.282 110.726 141.616 110.604C141.949 110.498 142.238 110.604 142.344 110.939L142.359 110.984C142.466 111.334 142.359 111.591 141.98 111.713C141.63 111.82 141.038 111.911 140.537 111.926C140.917 112.214 141.388 112.64 141.616 112.944C141.813 113.217 141.783 113.536 141.524 113.733L141.463 113.779C141.175 113.991 140.887 113.93 140.659 113.627C140.446 113.323 140.188 112.822 139.991 112.306C139.778 112.822 139.52 113.323 139.307 113.627C139.079 113.93 138.791 113.991 138.503 113.779L138.442 113.733C138.169 113.536 138.154 113.217 138.351 112.944C138.579 112.64 139.049 112.214 139.429 111.911C138.943 111.911 138.335 111.82 137.986 111.713Z"
        fill="#263238" />
    <path
        d="M143.664 111.713C143.284 111.592 143.163 111.303 143.269 110.999L143.3 110.924C143.421 110.604 143.679 110.499 144.028 110.604C144.362 110.726 144.909 110.999 145.319 111.288C145.182 110.817 145.076 110.179 145.076 109.8C145.076 109.45 145.273 109.207 145.622 109.207H145.699C146.048 109.207 146.245 109.45 146.245 109.8C146.245 110.179 146.139 110.817 146.002 111.288C146.427 110.999 146.959 110.726 147.293 110.604C147.627 110.498 147.916 110.604 148.022 110.939L148.037 110.984C148.144 111.334 148.037 111.591 147.657 111.713C147.308 111.82 146.716 111.911 146.215 111.926C146.595 112.214 147.065 112.64 147.293 112.944C147.491 113.217 147.46 113.536 147.202 113.733L147.142 113.779C146.853 113.991 146.565 113.93 146.337 113.627C146.124 113.323 145.866 112.822 145.669 112.306C145.456 112.822 145.198 113.323 144.986 113.627C144.758 113.93 144.469 113.991 144.181 113.779L144.121 113.733C143.847 113.536 143.832 113.217 144.029 112.944C144.257 112.64 144.728 112.214 145.108 111.911C144.621 111.911 144.014 111.82 143.664 111.713Z"
        fill="#263238" />
    <path
        d="M149.342 111.713C148.962 111.592 148.841 111.303 148.947 110.999L148.977 110.924C149.099 110.604 149.357 110.499 149.706 110.604C150.04 110.726 150.587 110.999 150.997 111.288C150.861 110.817 150.754 110.179 150.754 109.8C150.754 109.45 150.951 109.207 151.301 109.207H151.377C151.726 109.207 151.923 109.45 151.923 109.8C151.923 110.179 151.817 110.817 151.68 111.288C152.105 110.999 152.637 110.726 152.971 110.604C153.305 110.498 153.594 110.604 153.7 110.939L153.715 110.984C153.822 111.334 153.715 111.591 153.336 111.713C152.986 111.82 152.394 111.911 151.893 111.926C152.273 112.214 152.743 112.64 152.971 112.944C153.168 113.217 153.138 113.536 152.88 113.733L152.819 113.779C152.531 113.991 152.243 113.93 152.015 113.627C151.802 113.323 151.544 112.822 151.347 112.306C151.134 112.822 150.876 113.323 150.663 113.627C150.436 113.93 150.147 113.991 149.859 113.779L149.798 113.733C149.524 113.536 149.509 113.217 149.706 112.944C149.934 112.64 150.405 112.214 150.784 111.911C150.299 111.911 149.691 111.82 149.342 111.713Z"
        fill="#263238" />
    <path
        d="M155.022 111.713C154.642 111.592 154.52 111.303 154.627 110.999L154.657 110.924C154.778 110.604 155.037 110.499 155.386 110.604C155.72 110.726 156.267 110.999 156.677 111.288C156.54 110.817 156.434 110.179 156.434 109.8C156.434 109.45 156.632 109.207 156.98 109.207H157.057C157.405 109.207 157.603 109.45 157.603 109.8C157.603 110.179 157.497 110.817 157.36 111.288C157.785 110.999 158.317 110.726 158.651 110.604C158.985 110.498 159.274 110.604 159.38 110.939L159.395 110.984C159.501 111.334 159.395 111.591 159.015 111.713C158.666 111.82 158.074 111.911 157.572 111.926C157.952 112.214 158.423 112.64 158.651 112.944C158.849 113.217 158.818 113.536 158.56 113.733L158.499 113.779C158.211 113.991 157.922 113.93 157.694 113.627C157.482 113.323 157.224 112.822 157.026 112.306C156.814 112.822 156.555 113.323 156.343 113.627C156.115 113.93 155.827 113.991 155.538 113.779L155.477 113.733C155.204 113.536 155.189 113.217 155.387 112.944C155.614 112.64 156.085 112.214 156.465 111.911C155.978 111.911 155.371 111.82 155.022 111.713Z"
        fill="#263238" />
    <path
        d="M160.701 111.713C160.322 111.592 160.2 111.303 160.306 110.999L160.337 110.924C160.458 110.604 160.716 110.499 161.066 110.604C161.4 110.726 161.947 110.999 162.357 111.288C162.22 110.817 162.114 110.179 162.114 109.8C162.114 109.45 162.311 109.207 162.66 109.207H162.736C163.085 109.207 163.283 109.45 163.283 109.8C163.283 110.179 163.176 110.817 163.04 111.288C163.465 110.999 163.997 110.726 164.331 110.604C164.665 110.498 164.953 110.604 165.06 110.939L165.075 110.984C165.181 111.334 165.075 111.591 164.695 111.713C164.346 111.82 163.754 111.911 163.253 111.926C163.632 112.214 164.103 112.64 164.331 112.944C164.528 113.217 164.497 113.536 164.24 113.733L164.179 113.779C163.89 113.991 163.602 113.93 163.374 113.627C163.162 113.323 162.904 112.822 162.706 112.306C162.493 112.822 162.235 113.323 162.023 113.627C161.795 113.93 161.506 113.991 161.218 113.779L161.157 113.733C160.884 113.536 160.869 113.217 161.066 112.944C161.294 112.64 161.765 112.214 162.145 111.911C161.658 111.911 161.051 111.82 160.701 111.713Z"
        fill="#263238" />
    <path
        d="M166.379 111.713C165.999 111.592 165.878 111.303 165.984 110.999L166.015 110.924C166.136 110.604 166.394 110.499 166.743 110.604C167.077 110.726 167.624 110.999 168.034 111.288C167.897 110.817 167.791 110.179 167.791 109.8C167.791 109.45 167.989 109.207 168.338 109.207H168.414C168.763 109.207 168.96 109.45 168.96 109.8C168.96 110.179 168.854 110.817 168.717 111.288C169.142 110.999 169.674 110.726 170.008 110.604C170.342 110.498 170.631 110.604 170.737 110.939L170.752 110.984C170.858 111.334 170.752 111.591 170.373 111.713C170.023 111.82 169.431 111.911 168.93 111.926C169.309 112.214 169.78 112.64 170.008 112.944C170.205 113.217 170.174 113.536 169.917 113.733L169.856 113.779C169.567 113.991 169.279 113.93 169.051 113.627C168.839 113.323 168.581 112.822 168.383 112.306C168.17 112.822 167.912 113.323 167.7 113.627C167.472 113.93 167.183 113.991 166.895 113.779L166.834 113.733C166.561 113.536 166.546 113.217 166.743 112.944C166.971 112.64 167.442 112.214 167.822 111.911C167.336 111.911 166.728 111.82 166.379 111.713Z"
        fill="#263238" />
    <path
        d="M172.056 111.713C171.677 111.592 171.556 111.303 171.662 110.999L171.692 110.924C171.813 110.604 172.072 110.499 172.421 110.604C172.755 110.726 173.302 110.999 173.712 111.288C173.575 110.817 173.469 110.179 173.469 109.8C173.469 109.45 173.666 109.207 174.015 109.207H174.091C174.44 109.207 174.638 109.45 174.638 109.8C174.638 110.179 174.532 110.817 174.395 111.288C174.82 110.999 175.351 110.726 175.686 110.604C176.02 110.498 176.309 110.604 176.415 110.939L176.43 110.984C176.536 111.334 176.43 111.591 176.05 111.713C175.701 111.82 175.109 111.911 174.607 111.926C174.987 112.214 175.458 112.64 175.686 112.944C175.883 113.217 175.853 113.536 175.595 113.733L175.534 113.779C175.246 113.991 174.957 113.93 174.729 113.627C174.517 113.323 174.259 112.822 174.061 112.306C173.848 112.822 173.59 113.323 173.378 113.627C173.15 113.93 172.862 113.991 172.573 113.779L172.512 113.733C172.239 113.536 172.224 113.217 172.422 112.944C172.649 112.64 173.12 112.214 173.5 111.911C173.013 111.911 172.406 111.82 172.056 111.713Z"
        fill="#263238" />
    <path
        d="M83.0744 254.519H85.0092C85.2735 254.519 85.4913 254.313 85.5048 254.049L87.038 238.067H81.0449L82.5788 254.049C82.5922 254.313 82.81 254.519 83.0744 254.519Z"
        fill="white" stroke="#263238" stroke-miterlimit="10" stroke-linecap="round"
        stroke-linejoin="round" />
    <path
        d="M64.4083 254.519H66.3431C66.6069 254.519 66.8247 254.313 66.8387 254.049L68.372 238.067H62.3789L63.9122 254.049C63.9267 254.313 64.1446 254.519 64.4083 254.519Z"
        fill="white" stroke="#263238" stroke-miterlimit="10" stroke-linecap="round"
        stroke-linejoin="round" />
    <path
        d="M94.8341 254.519H96.7689C97.0332 254.519 97.2511 254.313 97.2645 254.049L98.7978 238.067H92.8047L94.3385 254.049C94.352 254.313 94.5698 254.519 94.8341 254.519Z"
        fill="white" stroke="#263238" stroke-miterlimit="10" stroke-linecap="round"
        stroke-linejoin="round" />
    <path
        d="M114.248 254.519H116.183C116.447 254.519 116.665 254.313 116.679 254.049L118.212 238.067H112.219L113.753 254.049C113.767 254.313 113.984 254.519 114.248 254.519Z"
        fill="white" stroke="#263238" stroke-miterlimit="10" stroke-linecap="round"
        stroke-linejoin="round" />
    <path
        d="M85.9918 238.722H124.364C124.364 238.722 128.289 225.617 131.341 212.971C134.394 200.326 137.882 184.41 134.175 181.139C130.469 177.869 120.657 183.538 113.245 185.064C105.832 186.59 104.305 184.846 99.2912 179.613C94.2764 174.381 89.9163 165.878 81.4132 160.427C72.9102 154.977 66.5872 154.104 60.7005 157.811C60.7005 157.811 54.8138 162.826 54.3776 171.329C53.9413 179.832 56.3398 190.515 59.3924 196.402C62.4449 202.288 85.9918 238.722 85.9918 238.722Z"
        fill="white" stroke="#263238" stroke-miterlimit="10" stroke-linecap="round"
        stroke-linejoin="round" />
    <path d="M80.6016 214.734H122.042C122.042 214.734 129.508 207.267 130.628 189.347"
        stroke="#263238" stroke-miterlimit="10" stroke-linecap="round" stroke-linejoin="round" />
    <path
        d="M109.573 142.266L104.88 145.134C104.88 145.134 108.139 162.993 107.357 172.379C106.575 181.764 102.664 190.759 102.664 190.759H115.309C115.309 190.759 120.002 179.548 122.088 171.727C124.174 163.905 120.524 145.525 120.524 145.525L109.573 142.266Z"
        fill="#757575" stroke="#263238" stroke-miterlimit="10" stroke-linecap="round"
        stroke-linejoin="round" />
    <path
        d="M161.594 189.866C161.594 189.866 164.29 189.013 165.011 189.017C165.733 189.02 168.08 190.859 168.08 190.859C168.08 190.859 168.173 191.532 167.643 191.674C167.113 191.816 165.293 190.557 165.293 190.557L162.259 191.456L161.594 189.866Z"
        fill="#D9D9D9" stroke="#263238" stroke-miterlimit="10" stroke-linecap="round"
        stroke-linejoin="round" />
    <path
        d="M161.887 188.151C161.887 188.151 164.682 188.581 165.327 188.903C165.972 189.226 167.262 191.913 167.262 191.913C167.262 191.913 167.047 192.558 166.51 192.451C165.972 192.343 164.897 190.408 164.897 190.408L161.779 189.871L161.887 188.151Z"
        fill="#D9D9D9" stroke="#263238" stroke-miterlimit="10" stroke-linecap="round"
        stroke-linejoin="round" />
    <path
        d="M158.946 187.294L162.494 188.154L164.751 189.659L166.041 192.777C166.041 192.777 165.611 193.207 165.074 193.099C164.536 192.992 162.279 190.519 162.279 190.519L159.054 188.477L157.979 187.294H158.946V187.294Z"
        fill="#D9D9D9" stroke="#263238" stroke-miterlimit="10" stroke-linecap="round"
        stroke-linejoin="round" />
    <path
        d="M151.206 186.326C151.206 186.326 156.689 186.541 157.871 186.541C159.053 186.541 162.171 189.013 162.709 189.229C163.246 189.444 165.504 192.669 165.504 192.669C165.504 192.669 165.611 192.669 164.858 192.884C164.106 193.099 162.923 192.346 162.923 192.346L161.418 190.519L157.763 189.874C157.763 189.874 160.45 191.271 161.095 191.486C161.74 191.701 162.17 192.454 161.955 192.884C161.74 193.314 158.497 191.924 158.497 191.924C158.497 191.924 157.282 192.569 155.992 191.924C154.702 191.279 154.534 191.262 153.163 190.631C151.792 190 149.055 188.369 149.055 188.369L151.206 186.326Z"
        fill="#D9D9D9" stroke="#263238" stroke-miterlimit="10" stroke-linecap="round"
        stroke-linejoin="round" />
    <path
        d="M123.26 148.003C123.26 148.003 125.346 148.393 125.867 149.567C126.388 150.74 129.778 177.333 129.778 177.333L152.173 185.521L151.746 193.365C151.746 193.365 125.215 190.108 123.39 190.499C121.565 190.89 117.133 191.411 115.308 189.977C113.483 188.543 120.408 182.545 121.669 177.027C124.656 163.961 124.283 155.001 124.283 155.001C124.283 155.001 120.653 146.438 123.26 148.003Z"
        fill="#136048" stroke="#263238" stroke-miterlimit="10" stroke-linecap="round"
        stroke-linejoin="round" />
    <path
        d="M126.127 163.254C126.127 163.254 122.868 176.29 121.435 179.809C120 183.329 117.133 189.195 117.133 189.195L114.004 189.716C114.004 189.716 120.522 175.638 121.695 170.032C122.868 164.427 120.261 150.218 120.131 149.696C120 149.175 121.044 145.916 122.999 146.568"
        fill="#136048" />
    <path
        d="M126.127 163.254C126.127 163.254 122.868 176.29 121.435 179.809C120 183.329 117.133 189.195 117.133 189.195L114.004 189.716C114.004 189.716 120.522 175.638 121.695 170.032C122.868 164.427 120.261 150.218 120.131 149.696C120 149.175 121.044 145.916 122.999 146.568"
        stroke="#263238" stroke-miterlimit="10" stroke-linecap="round" stroke-linejoin="round" />
    <path d="M120.263 159.604L116.482 169.12L112.441 158.952L117.265 155.172L120.263 159.604Z"
        fill="white" stroke="#263238" stroke-miterlimit="10" stroke-linecap="round"
        stroke-linejoin="round" />
    <path d="M121.173 151.913L122.607 162.993L116.48 158.3L121.173 151.913Z" fill="white"
        stroke="#263238" stroke-miterlimit="10" stroke-linecap="round" stroke-linejoin="round" />
    <path
        d="M138.25 132.199C138.25 132.199 138.116 139.558 137.52 140.577C136.924 141.596 135.653 143.171 135.6 144.574C135.546 145.976 137.22 149.013 136.214 149.993C135.208 150.972 133.825 150.49 133.825 150.49C133.825 150.49 130.545 154.418 128.718 155.318C126.892 156.218 122.005 153.651 122.005 153.651L117.131 158.692L108.137 142.398L113.285 138.932C113.285 138.932 115.273 128.688 121.653 126.532C128.034 124.374 137.257 129.618 138.25 132.199Z"
        fill="#D9D9D9" stroke="#263238" stroke-miterlimit="10" stroke-linecap="round"
        stroke-linejoin="round" />
    <path d="M120.286 141.473C120.286 141.473 118.313 145.589 120.007 148.197" stroke="#263238"
        stroke-miterlimit="10" stroke-linecap="round" stroke-linejoin="round" />
    <path
        d="M132.861 142.713C132.612 143.273 132.624 143.82 132.887 143.937C133.15 144.054 133.565 143.696 133.814 143.137C134.062 142.578 134.051 142.03 133.787 141.912C133.524 141.796 133.109 142.154 132.861 142.713Z"
        fill="#263238" />
    <path d="M131.66 150.823C131.66 150.823 129.691 150.43 129.691 148.854" stroke="#263238"
        stroke-miterlimit="10" stroke-linecap="round" stroke-linejoin="round" />
    <path d="M131.529 143.21L132.973 144.523" stroke="#263238" stroke-miterlimit="10"
        stroke-linecap="round" stroke-linejoin="round" />
    <path d="M135.535 140.55C135.535 140.55 135.466 138.617 132.332 139.411" stroke="#263238"
        stroke-miterlimit="10" stroke-linecap="round" stroke-linejoin="round" />
    <path
        d="M142.545 126.687C141.17 126.84 139.795 127.909 139.337 126.993C138.879 126.076 139.184 122.715 136.893 122.41C134.601 122.104 134.754 123.174 133.99 123.327C133.226 123.479 132.31 119.965 129.407 120.424C126.515 120.881 124.685 122.096 124.521 122.709C119.516 122.668 116.434 124.705 114.227 128.793C111.803 133.279 113.285 138.931 113.285 138.931C113.285 138.931 111.004 140.703 112.829 141.224C114.654 141.746 120.286 141.474 120.286 141.474C120.286 141.474 120.286 141.474 119.691 141.209C119.095 140.944 118.13 138.946 120.102 136.113C122.075 133.281 123.411 135.73 123.583 136.947C123.755 138.165 123.86 139.211 124.575 139.529C125.29 139.847 125.78 139.065 125.965 138.006C126.151 136.947 128.308 136.908 129.91 136.194C131.512 135.479 129.99 134.089 128.667 131.932C127.343 129.774 130.706 129.272 133.829 131.231C135.63 132.362 136.573 132.964 137.465 133.077L137.505 133.103C137.505 133.103 139.032 134.325 140.255 133.256C141.477 132.186 142.241 132.034 143.31 130.812C144.379 129.59 143.92 126.534 142.545 126.687Z"
        fill="#263238" stroke="#263238" stroke-miterlimit="10" stroke-linecap="round"
        stroke-linejoin="round" />
    <path
        d="M108.659 141.485L117.262 158.17L111.787 163.906C111.787 163.906 107.094 151.261 106.573 148.133C106.052 145.004 105.66 142.788 105.66 142.788L108.659 141.485Z"
        fill="white" stroke="#263238" stroke-miterlimit="10" stroke-linecap="round"
        stroke-linejoin="round" />
    <path
        d="M113.643 188.601C113.643 188.601 138.843 187.294 142.017 188.601C145.19 189.907 145.937 193.267 145.563 196.627C145.19 199.987 143.323 219.774 142.577 225.374C141.83 230.974 141.457 237.88 142.017 239.187C142.577 240.494 144.257 242.734 143.697 244.041C143.137 245.347 142.203 245.907 142.203 246.467C142.203 247.027 142.95 247.961 142.95 247.961C142.95 247.961 149.856 250.947 152.283 251.881C154.71 252.814 154.897 253.561 154.337 253.934C153.777 254.308 142.203 253.934 140.15 253.934C138.097 253.934 134.177 252.628 134.177 252.628V253.561H129.137C129.137 253.561 129.137 251.881 129.137 250.015C129.137 248.148 129.323 246.655 129.323 246.655C129.323 246.655 128.39 244.228 128.577 243.295C128.763 242.361 129.883 240.308 130.257 238.441C130.63 236.575 130.257 233.961 130.07 231.908C129.884 229.854 130.07 228.548 130.257 227.428C130.443 226.308 129.137 205.961 129.137 205.961C129.137 205.961 114.39 210.441 112.897 210.628C111.403 210.814 99.2703 215.294 94.2303 213.988C89.1903 212.681 96.2838 196.814 101.884 191.401C107.483 185.987 113.643 188.601 113.643 188.601Z"
        fill="#263238" stroke="#263238" stroke-miterlimit="10" stroke-linecap="round"
        stroke-linejoin="round" />
    <path
        d="M103.376 186.734C103.376 186.734 119.989 188.04 121.856 189.907C123.722 191.774 123.162 195.507 123.162 197.934C123.162 200.36 120.922 232.654 120.736 234.52C120.549 236.387 122.602 238.254 121.856 239.56C121.109 240.867 120.736 242.36 120.736 242.92C120.736 243.48 125.776 247.587 127.829 248.707C129.883 249.827 135.669 251.133 136.603 252.067C137.536 253 137.349 253.747 135.669 254.307C133.989 254.867 119.989 254.307 119.989 254.307C119.989 254.307 117.936 254.307 117.189 253.747C116.443 253.187 115.883 253 115.883 253L115.696 254.248H108.416C108.416 254.248 107.67 250.014 107.67 248.147C107.67 246.28 108.23 243.48 108.23 243.48C108.23 243.48 107.11 241.8 107.296 240.12C107.483 238.44 108.79 237.694 108.79 236.574C108.79 235.454 107.67 232.094 107.856 230.04C108.043 227.987 108.23 225.56 108.23 225.56L106.55 209.134C106.55 209.134 95.3497 215.294 89.9362 214.734C84.5227 214.174 83.0297 213.427 81.5362 210.814C80.0427 208.2 80.0427 197.187 82.4697 192.894C84.8957 188.601 98.3357 184.681 103.376 186.734Z"
        fill="#263238" stroke="#263238" stroke-miterlimit="10" stroke-linecap="round"
        stroke-linejoin="round" />
    <path
        d="M105.662 142.788C105.662 142.788 109.572 152.564 109.964 158.431C110.354 164.297 109.833 177.984 108.4 181.895C106.966 185.805 106.314 188.282 106.314 188.282C106.314 188.282 93.2778 190.238 91.5833 190.889C89.8887 191.541 86.3691 196.625 85.7173 200.927C85.5297 202.167 85.3958 203.504 85.3006 204.78C85.0828 207.701 85.3757 210.624 85.9553 213.497C86.0633 214.032 86.0863 214.478 85.9234 214.641C85.402 215.162 78.4177 212.008 76.0713 203.926C73.7249 195.844 74.8981 186.328 76.9841 181.895C79.0701 177.463 87.152 151.001 90.6716 147.481C94.1906 143.961 105.662 142.788 105.662 142.788Z"
        fill="#136048" stroke="#263238" stroke-miterlimit="10" stroke-linecap="round"
        stroke-linejoin="round" />
    <path
        d="M149.762 189.753C149.762 189.753 154.687 190.388 155.958 190.706C157.229 191.023 158.089 192.179 158.089 192.179L157.611 192.623L154.05 191.273L149.762 189.753Z"
        fill="#D9D9D9" stroke="#263238" stroke-miterlimit="10" stroke-linecap="round"
        stroke-linejoin="round" />
    <path
        d="M151.777 190.536C151.777 190.536 154.786 190.72 155.155 191.088C155.523 191.457 157.12 194.158 157.12 194.158L156.383 194.649L154.357 192.746L151.778 191.334L151.777 190.536Z"
        fill="#D9D9D9" stroke="#263238" stroke-miterlimit="10" stroke-linecap="round"
        stroke-linejoin="round" />
    <path
        d="M146.25 189.425C146.25 189.425 151.834 189.901 152.946 190.536C154.058 191.172 155.465 194.032 155.465 194.032L154.671 194.35L151.97 191.649L145.297 190.537L146.25 189.425Z"
        fill="#D9D9D9" stroke="#263238" stroke-miterlimit="10" stroke-linecap="round"
        stroke-linejoin="round" />
    <path
        d="M146.006 192.255C146.006 192.255 147.541 193.053 148.339 193.053C149.137 193.053 151.655 192.193 151.655 192.193C151.655 192.193 149.137 191.149 148.646 191.088C148.155 191.027 146.006 192.255 146.006 192.255Z"
        fill="#D9D9D9" stroke="#263238" stroke-miterlimit="10" stroke-linecap="round"
        stroke-linejoin="round" />
    <path
        d="M139.418 186.882C139.418 186.882 146.091 188.471 146.885 188.947C147.68 189.424 151.492 191.331 151.969 191.648C152.446 191.966 153.875 194.508 153.875 194.508C153.875 194.508 152.922 195.62 152.604 194.826C152.286 194.032 150.857 192.602 150.857 192.602L147.997 191.649C147.997 191.649 146.408 192.444 144.66 192.444C142.912 192.444 141.032 190.72 141.032 190.72L137.828 191.49L139.418 186.882Z"
        fill="#D9D9D9" stroke="#263238" stroke-miterlimit="10" stroke-linecap="round"
        stroke-linejoin="round" />
    <path
        d="M99.9354 149.654C99.9354 149.654 103.895 153.109 104.223 157.008C104.55 160.907 104.499 162.476 104.532 163.127C104.565 163.778 106.883 180.904 106.883 180.904L140.164 186.295L139.524 193.689L101.598 192.959C101.598 192.959 99.0142 193.481 97.6137 191.595C96.2131 189.707 88.1133 161.085 88.1133 161.085"
        fill="#136048" />
    <path
        d="M99.9354 149.654C99.9354 149.654 103.895 153.109 104.223 157.008C104.55 160.907 104.499 162.476 104.532 163.127C104.565 163.778 106.883 180.904 106.883 180.904L140.164 186.295L139.524 193.689L101.598 192.959C101.598 192.959 99.0142 193.481 97.6137 191.595C96.2131 189.707 88.1133 161.085 88.1133 161.085"
        stroke="#263238" stroke-miterlimit="10" stroke-linecap="round" stroke-linejoin="round" />
    <path d="M100.36 183.507C100 183.814 99.6612 184.168 99.3555 184.575" stroke="#263238"
        stroke-miterlimit="10" stroke-linecap="round" stroke-linejoin="round" />
    <path d="M106.378 181.479C106.378 181.479 103.937 181.393 101.668 182.616" stroke="#263238"
        stroke-miterlimit="10" stroke-linecap="round" stroke-linejoin="round" />
    <path d="M104.101 182.9C104.101 182.9 100.892 183.975 100.223 186.228" stroke="#263238"
        stroke-miterlimit="10" stroke-linecap="round" stroke-linejoin="round" />
    <path
        d="M85.9926 238.722C85.9926 238.722 85.3385 215.37 79.4518 200.108C73.565 184.846 70.0768 182.884 67.6783 183.538C65.2798 184.192 61.7916 188.334 59.6115 185.5C57.4314 182.666 54.161 174.817 55.4692 167.84C56.7774 160.863 59.3937 159.555 60.7018 157.811C62.01 156.066 55.033 160.209 51.981 164.788C48.9284 169.366 48.9284 180.486 50.6728 192.041C52.4172 203.597 56.7774 236.325 58.3039 237.633C59.8299 238.941 63.5366 238.941 63.5366 238.941H83.5952L85.9926 238.722Z"
        fill="white" stroke="#263238" stroke-miterlimit="10" stroke-linecap="round"
        stroke-linejoin="round" />
    <path d="M194.771 192.946H143.531V195.186H194.771V192.946Z" fill="white" stroke="#263238"
        stroke-miterlimit="10" stroke-linecap="round" stroke-linejoin="round" />
    <path d="M194.771 192.946H169.953V195.186H194.771V192.946Z" fill="#B2B2B2" stroke="#263238"
        stroke-miterlimit="10" stroke-linecap="round" stroke-linejoin="round" />
    <path d="M201.911 172.924H177.093L169.953 192.944H194.771L201.911 172.924Z" fill="#D9D9D9"
        stroke="#263238" stroke-miterlimit="10" stroke-linecap="round" stroke-linejoin="round" />
    <path
        d="M175.877 254.556H176.228C177.028 254.556 177.677 253.907 177.677 253.107V196.57H174.428V253.107C174.428 253.907 175.077 254.556 175.877 254.556Z"
        fill="#525252" stroke="#263238" stroke-miterlimit="10" stroke-linecap="round"
        stroke-linejoin="round" />
    <path
        d="M181.785 254.556H182.135C182.935 254.556 183.584 253.907 183.584 253.107V196.57H180.336V253.107C180.335 253.907 180.984 254.556 181.785 254.556Z"
        fill="#525252" stroke="#263238" stroke-miterlimit="10" stroke-linecap="round"
        stroke-linejoin="round" />
    <path
        d="M135.811 254.556H136.161C136.961 254.556 137.61 253.907 137.61 253.107V196.57H134.361V253.107C134.361 253.907 135.01 254.556 135.811 254.556Z"
        fill="#525252" stroke="#263238" stroke-miterlimit="10" stroke-linecap="round"
        stroke-linejoin="round" />
    <path
        d="M216.713 254.556H217.064C217.864 254.556 218.513 253.907 218.513 253.107V196.57H215.264V253.107C215.264 253.907 215.913 254.556 216.713 254.556Z"
        fill="#525252" stroke="#263238" stroke-miterlimit="10" stroke-linecap="round"
        stroke-linejoin="round" />
    <path d="M130.577 197.892H221.572V195.249H130.577V197.892Z" fill="white" stroke="#263238"
        stroke-miterlimit="10" stroke-linecap="round" stroke-linejoin="round" />
    <path d="M130.577 225.912H221.572V223.269H130.577V225.912Z" fill="white" stroke="#263238"
        stroke-miterlimit="10" stroke-linecap="round" stroke-linejoin="round" />
    <path d="M170.566 220.575H146.805V223.225H170.566V220.575Z" fill="white" stroke="#263238"
        stroke-miterlimit="10" stroke-linecap="round" stroke-linejoin="round" />
    <path d="M170.565 220.575H159.893V223.225H170.565V220.575Z" fill="white" stroke="#263238"
        stroke-miterlimit="10" stroke-linecap="round" stroke-linejoin="round" />
    <path d="M206.642 220.575H182.881V223.225H206.642V220.575Z" fill="white" stroke="#263238"
        stroke-miterlimit="10" stroke-linecap="round" stroke-linejoin="round" />
    <path d="M206.641 220.575H195.969V223.225H206.641V220.575Z" fill="white" stroke="#263238"
        stroke-miterlimit="10" stroke-linecap="round" stroke-linejoin="round" />
    <path d="M168.603 217.802H144.842V220.452H168.603V217.802Z" fill="white" stroke="#263238"
        stroke-miterlimit="10" stroke-linecap="round" stroke-linejoin="round" />
    <path d="M168.602 217.802H157.93V220.452H168.602V217.802Z" fill="white" stroke="#263238"
        stroke-miterlimit="10" stroke-linecap="round" stroke-linejoin="round" />
    <path d="M20.8867 254.556H266.167" stroke="#263238" stroke-miterlimit="10"
        stroke-linecap="round" stroke-linejoin="round" />
</svg>
