<svg width="249" height="79" viewBox="0 0 249 79" fill="none" xmlns="http://www.w3.org/2000/svg">
<path d="M11.546 52.8611C11.4646 53.5934 11.2534 54.2821 10.9107 54.9332L21.5737 44.6231L21.2685 44.2881C18.5424 41.2959 17.0689 37.724 16.921 33.7491C16.6027 25.1924 23.042 17.8514 31.6123 17.0007C32.5297 16.9096 34.5501 16.9699 35.5255 17.1175C38.7654 17.6078 41.7559 19.0485 44.166 21.2803L44.5308 21.6181L55.5256 10.517C55.0778 10.8372 54.1549 11.2774 53.6497 11.4117C53.4491 11.465 53.0532 11.5372 52.7698 11.5721C52.4222 11.6149 45.6456 11.6355 31.933 11.6355H11.6114V31.9544C11.6114 46.052 11.5914 52.4532 11.546 52.8611Z" fill="#FFF200"/>
<path fill-rule="evenodd" clip-rule="evenodd" d="M0 58.0632V29.0316V0H28.9678H57.9356V3.12934C57.9356 6.57455 57.9132 6.86099 57.5685 7.81553C57.2064 8.8185 56.3885 9.9 55.5256 10.517C55.0778 10.8372 54.1549 11.2774 53.6497 11.4117C53.4491 11.465 53.0532 11.5372 52.7698 11.5721C52.4222 11.6149 45.6456 11.6355 31.933 11.6355H11.6114V31.9544C11.6114 46.052 11.5914 52.4532 11.546 52.8611C11.4646 53.5934 11.2534 54.2821 10.9107 54.9332C10.1378 56.4022 8.86555 57.4188 7.25065 57.8582L6.65682 58.0199L3.32841 58.0415L0 58.0632ZM65.3524 1.76074C66.2473 0.854814 67.2586 0.310321 68.4464 0.0947898C68.834 0.0244894 73.1633 0.0100516 95.2473 0.0054827L121.586 0V3.21749C121.586 6.52107 121.569 6.81019 121.332 7.55395C120.621 9.78248 118.712 11.3256 116.358 11.5728C115.987 11.6117 108.533 11.6338 95.5208 11.6345L75.2616 11.6355V29.0279V46.4202H92.6484H110.035V40.6329V34.8456L101.266 34.8454C95.298 34.8453 92.3216 34.824 91.9492 34.7787C89.6418 34.4979 87.7441 32.8715 87.0455 30.5758C86.9109 30.1337 86.9076 30.0536 86.8877 26.6663L86.8674 23.2082L101.78 23.2254L116.692 23.2426L117.202 23.3798C119.245 23.9292 120.789 25.4295 121.415 27.4744L121.555 27.9313L121.572 40.4197C121.587 51.6836 121.579 52.9558 121.492 53.3945C121.055 55.5699 119.365 57.3274 117.171 57.8875L116.631 58.0253H92.618H68.6048L68.0272 57.864C67.0162 57.5818 66.2398 57.1522 65.518 56.4756C64.4897 55.5116 63.8735 54.2674 63.7111 52.8271C63.664 52.4084 63.6502 45.4015 63.6635 28.6014L63.6821 4.96489L63.8139 4.47754C64.1177 3.35389 64.5731 2.54964 65.3524 1.76074ZM127.535 7.37119C127.399 6.92258 127.396 6.85143 127.376 3.45715L127.356 0H156.326H185.297L185.296 2.78704C185.296 6.64534 185.231 7.20896 184.658 8.37654C183.927 9.86399 182.553 10.9797 180.889 11.4362L180.281 11.603L171.178 11.6215L162.075 11.64L162.059 32.4568C162.044 52.6779 162.04 53.2849 161.928 53.6696C161.308 55.8023 159.764 57.3379 157.69 57.883C157.2 58.0117 157.047 58.018 153.852 58.0401L150.523 58.0632V34.8494V11.6355L141.845 11.6345C136.52 11.6338 132.944 11.61 132.589 11.5728C131.824 11.4924 131.218 11.3201 130.553 10.994C129.136 10.2991 128.014 8.95252 127.535 7.37119ZM191.178 4.49131C191.758 2.20929 193.555 0.503556 195.807 0.0947898C196.195 0.0244894 200.525 0.0100516 222.611 0.0054827L248.953 0L248.933 3.42669L248.914 6.85338L248.748 7.38837C248.095 9.48843 246.505 10.9854 244.387 11.4922C243.955 11.5957 242.883 11.6022 223.277 11.6194L202.623 11.6374V17.4231V23.2087L223.338 23.2253L244.053 23.242L244.563 23.3795C246.667 23.9463 248.232 25.5146 248.801 27.6267C248.913 28.0387 248.917 28.4817 248.917 40.6329C248.917 52.7841 248.913 53.2272 248.801 53.6391C248.232 55.7512 246.667 57.3189 244.563 57.8864L244.053 58.0241L217.532 58.0405L191.011 58.0568L191.011 55.0865C191.012 53.3035 191.038 51.897 191.078 51.5679C191.405 48.8887 193.475 46.8144 196.148 46.4875C196.536 46.4401 202.638 46.4205 217.046 46.4204L237.396 46.4202V40.6329V34.8456H217.014C203.255 34.8456 196.467 34.825 196.127 34.7822C193.736 34.4818 191.805 32.7576 191.184 30.3681L191.042 29.8198V17.4228V5.02581L191.178 4.49131ZM31.786 71.8152C31.9403 70.2991 32.4311 69.7739 33.8852 69.5686C34.4839 69.4841 36.3793 69.5388 36.8711 69.6548C37.7519 69.8624 38.2353 70.3171 38.4646 71.1533C38.5586 71.4963 38.5731 71.8184 38.5731 73.5596C38.5731 75.7628 38.5493 75.9672 38.2196 76.5965C37.8633 77.2765 37.2736 77.5594 35.9525 77.6841C35.0315 77.7711 33.7939 77.6843 33.1717 77.4891C32.475 77.2704 32.0829 76.8222 31.881 76.0135C31.7552 75.5097 31.6924 72.7339 31.786 71.8152ZM61.8008 71.4742C62.0488 70.2713 62.6855 69.7357 64.0533 69.5792C64.3164 69.5491 64.901 69.5214 65.3524 69.5176C66.7697 69.5056 67.5732 69.6436 68.0107 69.9737C68.4062 70.2722 68.6915 70.9994 68.6947 71.7168L68.696 72.0062H67.9418H67.1876L67.145 71.6964C67.0861 71.2672 66.847 71.0014 66.4413 70.9142C66.0428 70.8285 64.7085 70.8302 64.2112 70.9169C63.7506 70.9974 63.4714 71.2062 63.3506 71.5609C63.2417 71.8803 63.1888 74.5087 63.2779 75.1718C63.3684 75.8465 63.474 76.0499 63.823 76.2221C64.0881 76.353 64.1795 76.3619 65.2612 76.3619C66.2614 76.3619 66.4465 76.3468 66.6415 76.2496C66.9552 76.0933 67.1022 75.7624 67.1532 75.0983L67.1938 74.5678L66.1667 74.5511L65.1396 74.5343V73.9556V73.3768L66.9178 73.3607L68.696 73.3446L68.6949 74.5182C68.693 76.6712 68.4124 77.243 67.2065 77.5514C66.1813 77.8137 64.0318 77.7744 63.1213 77.4768C62.3675 77.2303 61.9277 76.6363 61.7677 75.6483C61.6639 75.0075 61.6876 72.0233 61.8008 71.4742ZM130.529 70.6169C130.828 70.0023 131.341 69.7065 132.346 69.5696C132.959 69.4861 134.919 69.5443 135.385 69.6597C136.134 69.8456 136.606 70.2538 136.853 70.9322C136.983 71.2863 136.991 71.4127 137.013 73.3797C137.038 75.6337 137.005 75.9597 136.699 76.5604C136.416 77.1158 135.886 77.4624 135.082 77.6182C134.491 77.7326 132.55 77.716 131.989 77.5917C131.117 77.3984 130.645 76.9939 130.391 76.2223C130.266 75.8422 130.255 75.6765 130.232 73.8515C130.205 71.6417 130.246 71.2 130.529 70.6169ZM172.98 70.9765C173.271 70.086 173.805 69.7059 174.95 69.572C175.643 69.4911 176.968 69.5046 177.592 69.5989C178.794 69.7804 179.327 70.2501 179.555 71.3273C179.68 71.9178 179.678 75.2428 179.552 75.8414C179.338 76.8647 178.853 77.3444 177.789 77.5877C177.408 77.6747 177.059 77.698 176.178 77.695C174.212 77.6881 173.521 77.4168 173.104 76.4865C172.864 75.9538 172.822 75.4218 172.848 73.2855C172.869 71.5997 172.888 71.2567 172.98 70.9765ZM202.981 70.618C203.251 70.018 203.779 69.6858 204.639 69.574C205.192 69.5022 206.896 69.5003 207.385 69.5711C208.523 69.736 209.025 70.3042 209.078 71.4884L209.097 71.9148L208.322 71.9319L207.547 71.9489L207.547 71.6273C207.546 71.1839 207.39 70.9375 207.049 70.8456C206.885 70.8013 206.453 70.7846 205.876 70.8003C204.801 70.8297 204.554 70.904 204.414 71.2405C204.301 71.5124 204.299 72.1311 204.411 72.4001C204.563 72.7635 204.766 72.8208 206.259 72.922C207.327 72.9943 208.141 73.1229 208.419 73.2631C208.738 73.4242 208.997 73.716 209.111 74.0423C209.196 74.2874 209.218 74.5411 209.215 75.2653C209.212 76.0714 209.195 76.2212 209.072 76.5364C208.782 77.2735 208.276 77.5625 207.076 77.6772C206.221 77.7589 204.653 77.7029 204.155 77.573C203.196 77.3229 202.744 76.6575 202.744 75.4962V75.0521H203.495H204.246L204.283 75.4846C204.351 76.3071 204.541 76.4144 205.936 76.4193C207.019 76.4232 207.27 76.3699 207.509 76.0862C207.799 75.7398 207.792 74.8247 207.495 74.4956C207.298 74.2771 207.039 74.2301 205.541 74.1408C203.774 74.0355 203.341 73.837 202.945 72.9504C202.857 72.7528 202.836 72.5398 202.836 71.8234C202.836 71.022 202.849 70.9102 202.981 70.618ZM235.315 70.2892C235.649 69.9318 236.083 69.7187 236.708 69.6055C237.26 69.5056 238.862 69.4854 239.513 69.5701C240.261 69.6676 240.738 69.947 240.989 70.4356C241.158 70.7642 241.285 71.3662 241.286 71.8386L241.287 72.2498H240.536H239.785L239.751 71.7985C239.686 70.9363 239.583 70.8792 238.095 70.8792C237.084 70.8792 236.982 70.8893 236.751 71.0132C236.289 71.2608 236.187 71.7153 236.184 73.5292C236.182 74.8227 236.256 75.6004 236.406 75.8632C236.472 75.9792 236.639 76.1185 236.82 76.2096C237.105 76.353 237.179 76.3619 238.095 76.3619C238.948 76.3619 239.098 76.3468 239.307 76.24C239.695 76.0424 239.794 75.8534 239.819 75.2609L239.84 74.7475H240.632H241.424L241.38 75.4256C241.312 76.478 241.137 76.9172 240.648 77.2567C240.286 77.5078 239.796 77.6083 238.574 77.6817C236.082 77.8314 235.201 77.4506 234.806 76.0527C234.725 75.767 234.698 75.3322 234.676 73.966C234.637 71.552 234.751 70.8933 235.315 70.2892ZM242.19 71.8152C242.345 70.2989 242.835 69.7747 244.289 69.5684C244.757 69.5021 246.809 69.5441 247.214 69.6284C247.723 69.7342 248.253 70.031 248.492 70.3441C248.913 70.897 248.964 71.195 248.993 73.2626C249.01 74.4309 248.995 75.2552 248.952 75.5309C248.72 77.0295 248.134 77.5163 246.358 77.684C245.436 77.7711 244.199 77.6844 243.576 77.4891C242.879 77.2703 242.486 76.821 242.286 76.0135C242.16 75.5065 242.097 72.7267 242.19 71.8152ZM0.607929 77.6753V73.6217V69.5681L3.26762 69.584L5.92731 69.5999L5.94457 70.2548L5.96184 70.9096H4.07519H2.18854V71.9748V73.04L3.96674 73.0561L5.74493 73.0723L5.76225 73.6967L5.77958 74.3211H3.98503H2.19049L2.17432 75.9811L2.15815 77.6412L1.38304 77.6582L0.607929 77.6753ZM7.22022 76.7284C6.96683 76.3544 6.96416 75.8098 6.94468 72.8115L6.92358 69.5657L7.70209 69.5828L8.48061 69.5999L8.511 72.7575L8.5414 75.915L8.73393 76.0874C9.00969 76.3343 9.45068 76.4081 10.4777 76.3795C11.4326 76.353 11.763 76.2628 11.9574 75.976C12.0594 75.8254 12.0687 75.5868 12.0847 72.6915L12.102 69.5694H12.8598H13.6176L13.6169 72.7524C13.6161 76.1911 13.6037 76.3443 13.2894 76.8204C12.8201 77.5311 11.8625 77.7826 9.8797 77.716C8.42735 77.6673 7.92508 77.5166 7.43357 76.9823C7.34758 76.8888 7.2775 76.813 7.22022 76.7284ZM15.0766 77.6716V73.6205V69.5694L16.3381 69.5698L17.5995 69.5701L19.3253 72.9526C20.2745 74.8128 21.0636 76.3224 21.079 76.307C21.0942 76.2917 21.0768 74.8723 21.0401 73.1527C21.0034 71.4332 20.9734 69.9235 20.9735 69.7979L20.9735 69.5694H21.7335H22.4934V73.6205V77.6716H21.2206H19.9478L18.2929 74.3972C17.3828 72.5964 16.599 71.068 16.551 71.001C16.4597 70.8733 16.4624 71.4681 16.5741 76.103L16.6119 77.6716H15.8443H15.0766ZM23.8916 77.6716V73.6157V69.5598L26.3385 69.584C28.9766 69.6102 29.0475 69.6182 29.7277 69.9669C30.2819 70.251 30.6885 70.8587 30.827 71.6098C30.9309 72.1724 30.8671 75.5565 30.746 75.9122C30.5768 76.4095 30.411 76.6713 30.0654 76.9879C29.4097 77.5884 28.9149 77.6704 25.9434 77.6711L23.8916 77.6716ZM43.4669 77.6833V73.6264V69.5694L45.6403 69.5706C46.8356 69.5713 47.9961 69.5983 48.2192 69.6306C49.3083 69.7885 49.9523 70.2718 50.2889 71.1838C50.4143 71.5236 50.4253 71.6728 50.4459 73.3081C50.469 75.1493 50.4335 75.5796 50.2091 76.1808C50.0667 76.5621 49.6402 77.0637 49.2808 77.2726C48.7191 77.599 48.4902 77.6248 45.8834 77.6552L43.4669 77.6833ZM51.4916 77.6716V73.6205V69.5694H54.2577H57.0237V70.2387V70.908L55.0328 70.924L53.0418 70.9401L53.0251 71.9292L53.0084 72.9182L54.9097 72.9343L56.811 72.9504L56.8283 73.5748L56.8456 74.1992H54.9285H53.0114V75.2653V76.3314H55.0176H57.0237V77.0015V77.6716H54.2577H51.4916ZM70.4655 73.5727C71.1725 71.4212 71.7632 69.6397 71.7781 69.6138C71.793 69.5879 72.3131 69.5742 72.9338 69.5833L74.0624 69.5999L75.3829 73.4987C76.1092 75.643 76.7229 77.4592 76.7465 77.5346L76.7896 77.6716H76.0074H75.2253L74.9624 76.9101L74.6997 76.1487H72.9574H71.2152L70.9698 76.8949L70.7243 77.6412L69.9157 77.6582C69.2027 77.6733 69.1114 77.664 69.1437 77.5799C69.1637 77.5275 69.7586 75.7242 70.4655 73.5727ZM77.3894 73.6612C77.3894 71.4553 77.4076 69.6323 77.4299 69.61C77.4915 69.5482 81.3572 69.5637 81.969 69.6282C82.7323 69.7087 83.0736 69.8378 83.4067 70.1721C83.8342 70.6014 83.9246 70.948 83.9246 72.1585C83.9246 73.1036 83.9194 73.1437 83.7536 73.482C83.5576 73.882 83.3507 74.0518 82.8824 74.197L82.5513 74.2996L82.9163 74.4013C83.7049 74.621 83.8942 75.0573 83.8942 76.6553V77.6716H83.1423H82.3904L82.3626 76.7059C82.3296 75.5565 82.2594 75.3501 81.826 75.1283C81.5732 74.9988 81.4864 74.9912 80.2641 74.9912H78.97V76.3314V77.6716H78.1797H77.3894V73.6612ZM84.5021 77.6381C84.5021 77.5902 87.1219 69.6761 87.1583 69.6138C87.1735 69.5879 87.6931 69.5742 88.313 69.5833L89.4402 69.5999L90.8006 73.6205C91.5488 75.8319 92.1612 77.648 92.1615 77.6564C92.1618 77.6648 91.8086 77.6716 91.3768 77.6716H90.5915L90.3382 76.9101L90.085 76.1487H88.3294H86.5738L86.3406 76.8949L86.1074 77.6412L85.3048 77.6582C84.8633 77.6675 84.5021 77.6585 84.5021 77.6381ZM92.8307 77.6716V73.6193V69.567L94.1137 69.5834L95.3966 69.5999L97.0868 72.9112C98.0164 74.7324 98.8097 76.2538 98.8498 76.2922C98.906 76.346 98.9147 76.3063 98.8882 76.1182C98.8692 75.9842 98.8354 74.4764 98.8131 72.7677C98.7907 71.0589 98.7692 69.6471 98.7652 69.6303C98.7613 69.6136 99.1068 69.5922 99.5332 69.5828L100.308 69.5658V73.6187V77.6716L99.0164 77.6705L97.7246 77.6694L96.0713 74.3961C95.1619 72.5958 94.3742 71.068 94.3207 71.001C94.2291 70.8862 94.2253 70.8967 94.255 71.1838C94.2723 71.3513 94.3046 72.8796 94.3266 74.58L94.3667 77.6716H93.5987H92.8307ZM101.038 70.9096V70.2395V69.5694H104.169H107.299V70.2395V70.9096H106.114H104.929V74.2906V77.6716H104.169H103.409V74.2906V70.9096H102.223H101.038ZM108.029 77.6716V73.6205V69.5694H108.789H109.549V73.6205V77.6716H108.789H108.029ZM110.312 77.5364C110.465 77.0422 112.911 69.6517 112.934 69.6138C112.949 69.5879 113.469 69.5742 114.089 69.5833L115.216 69.5999L116.577 73.6205C117.325 75.8319 117.937 77.648 117.938 77.6564C117.938 77.6648 117.585 77.6716 117.153 77.6716H116.368L116.114 76.9101L115.861 76.1487H114.106H112.35L112.117 76.8949L111.884 77.6412L111.076 77.6582L110.269 77.6752L110.312 77.5364ZM122.376 77.6825V73.6259V69.5694L124.58 69.5715C126.964 69.5739 127.455 69.6189 128.046 69.89C128.49 70.0936 128.767 70.3536 128.986 70.7704C129.308 71.3854 129.337 71.6197 129.337 73.5901C129.337 75.1454 129.322 75.4399 129.226 75.7795C129.012 76.5345 128.693 76.9742 128.141 77.2754C127.538 77.6045 127.35 77.6255 124.762 77.6552L122.376 77.6825ZM141.283 70.9096V70.2395V69.5694H144.414H147.544V70.2395V70.9096H146.359H145.173V74.2906V77.6716H144.414H143.654V74.2906V70.9096H142.468H141.283ZM148.152 77.6716V73.6205V69.5694H150.918H153.684V70.2387V70.908L151.693 70.924L149.702 70.9401L149.686 71.93L149.669 72.92H151.555H153.441V73.5596V74.1992H151.557H149.672V75.2653V76.3314H151.678H153.684V77.0015V77.6716H150.918H148.152ZM154.9 73.6612C154.9 71.4553 154.919 69.6323 154.941 69.61C154.963 69.5877 155.521 69.5694 156.181 69.5694C157.155 69.5694 157.386 69.5855 157.413 69.6551C157.431 69.7022 157.915 71.0249 158.489 72.5944C159.063 74.1639 159.552 75.4843 159.577 75.5287C159.616 75.599 159.931 74.7524 161.572 70.1622L161.785 69.567L163.039 69.5834L164.293 69.5999L164.308 73.6358L164.324 77.6716H163.526H162.729L162.764 77.3518C162.811 76.9186 162.887 70.8709 162.845 70.911C162.826 70.9285 162.264 72.4088 161.596 74.2007C160.928 75.9924 160.362 77.5064 160.339 77.565C160.303 77.6578 160.209 77.6716 159.612 77.6716C159.015 77.6716 158.92 77.6577 158.883 77.565C158.86 77.5064 158.307 76.0466 157.655 74.3211C157.003 72.5956 156.444 71.1289 156.413 71.0619C156.354 70.9318 156.396 76.618 156.459 77.2909L156.495 77.6716H155.698H154.9V73.6612ZM165.614 73.6814C165.606 71.5036 165.612 69.6875 165.628 69.6456C165.665 69.5483 169.333 69.5378 170.089 69.6328C171.632 69.8267 172.105 70.5525 172.028 72.6077C171.983 73.7918 171.806 74.2739 171.283 74.6371C170.842 74.9434 170.463 75.003 168.746 75.0362L167.18 75.0666V76.3709V77.6753L166.405 77.6582L165.63 77.6412L165.614 73.6814ZM184.537 77.6412L184.521 73.6005L184.506 69.5598L186.953 69.5828L189.4 69.6057L189.887 69.7709C190.937 70.1275 191.358 70.7277 191.505 72.0812C191.598 72.925 191.538 75.1936 191.411 75.7082C191.159 76.7225 190.636 77.2674 189.659 77.5341C189.332 77.6232 188.947 77.638 186.908 77.6395L184.537 77.6412ZM192.531 73.6612C192.531 71.4553 192.549 69.6323 192.572 69.61C192.594 69.5877 193.839 69.5694 195.338 69.5694H198.063V70.2395V70.9096H196.087H194.112V71.9148V72.92H195.996H197.881V73.5596V74.1992H195.996H194.112V75.2653V76.3314H196.118H198.124V77.0015V77.6716H195.328H192.531V73.6612ZM210.222 77.6716V73.6199V69.5682L212.973 69.584L215.724 69.5999L215.741 70.2548L215.758 70.9096H213.75H211.742V71.9148V72.92H213.626H215.511V73.5596V74.1992H213.626H211.742V75.2653V76.3314H213.748H215.754V77.0015V77.6716H212.988H210.222ZM216.909 77.6716V73.6205V69.5694L218.93 69.5705C221.829 69.572 222.392 69.6539 222.903 70.1481C223.268 70.5025 223.417 70.9509 223.458 71.8234C223.499 72.6994 223.405 73.3109 223.178 73.6505C222.97 73.9606 222.815 74.0686 222.388 74.2024C222.058 74.3054 222.053 74.3108 222.228 74.3513C222.592 74.4352 222.657 74.4589 222.859 74.5815C222.995 74.6641 223.119 74.8214 223.224 75.0467C223.374 75.3691 223.384 75.4478 223.404 76.5313L223.425 77.6754L222.644 77.6583L221.864 77.6412L221.833 76.636C221.784 75.0212 221.751 74.9946 219.782 74.9925L218.49 74.9912V76.3314V77.6716H217.699H216.909ZM225.225 73.7119C224.533 71.5508 223.965 69.7338 223.964 69.6742C223.961 69.575 224.026 69.5672 224.729 69.5828L225.496 69.5999L226.462 72.6458C226.993 74.3211 227.471 75.8384 227.524 76.0177C227.577 76.1969 227.643 76.3203 227.67 76.2918C227.697 76.2633 228.173 74.8008 228.728 73.0418C229.283 71.2828 229.764 69.7818 229.796 69.7065C229.853 69.5748 229.885 69.5694 230.617 69.5694C231.216 69.5694 231.378 69.587 231.378 69.6518C231.378 69.7271 230.835 71.4338 229.365 75.9824L228.818 77.6742L227.652 77.6577L226.485 77.6412L225.225 73.7119ZM231.986 73.6612C231.986 71.4553 232.005 69.6316 232.028 69.6082C232.051 69.5849 232.4 69.5735 232.803 69.5829L233.536 69.5999L233.552 73.6358L233.567 77.6716H232.776H231.986V73.6612ZM33.646 71.156C33.7292 71.0776 33.9281 70.9769 34.0879 70.9321C34.2875 70.8762 34.6732 70.8559 35.3207 70.8673C36.7596 70.8926 36.9289 71.0251 37.0352 72.2085C37.1073 73.0104 37.0556 75.2204 36.9567 75.5685C36.9189 75.7018 36.7883 75.9106 36.6666 76.0325C36.3731 76.3264 35.8684 76.4226 34.8558 76.3775C34.0972 76.3437 33.8585 76.2841 33.6326 76.072C33.3591 75.8154 33.3145 75.4714 33.3145 73.6205C33.3145 71.751 33.3581 71.427 33.646 71.156ZM71.614 74.9224C71.614 74.8845 71.9066 73.9525 72.2641 72.8512C72.6216 71.7498 72.9296 70.8487 72.9487 70.8487C72.9677 70.8487 73.281 71.7465 73.6449 72.8438C74.0087 73.9411 74.3191 74.8732 74.3346 74.9151C74.3566 74.9746 74.0623 74.9912 72.9884 74.9912C72.0077 74.9912 71.614 74.9715 71.614 74.9224ZM86.9946 74.8959C86.9946 74.8435 87.2877 73.9114 87.6459 72.8246C88.004 71.7379 88.3121 70.8487 88.3304 70.8487C88.3817 70.8487 89.722 74.9183 89.6834 74.957C89.6646 74.9758 89.052 74.9912 88.3219 74.9912C87.1582 74.9912 86.9946 74.9794 86.9946 74.8959ZM112.771 74.8959C112.771 74.8435 113.064 73.9114 113.422 72.8246C113.78 71.7379 114.088 70.8487 114.107 70.8487C114.158 70.8487 115.498 74.9183 115.46 74.957C115.441 74.9758 114.828 74.9912 114.098 74.9912C112.934 74.9912 112.771 74.9794 112.771 74.8959ZM131.9 71.447C132.039 71.1458 132.224 71.0118 132.633 70.9152C132.759 70.8854 133.22 70.8582 133.657 70.8548C134.596 70.8476 134.993 70.9388 135.225 71.2145C135.481 71.5203 135.521 71.8829 135.498 73.7424C135.477 75.4197 135.474 75.4531 135.325 75.7527C135.203 75.9964 135.112 76.0877 134.869 76.2096C134.582 76.3536 134.51 76.3619 133.562 76.3619C132.342 76.3619 132.165 76.3027 131.921 75.8136L131.769 75.509V73.6205C131.769 71.8132 131.774 71.7198 131.9 71.447ZM174.516 71.447C174.654 71.1472 174.835 71.0154 175.249 70.9121C175.624 70.8183 177.263 70.869 177.521 70.9824C177.806 71.1076 177.988 71.371 178.063 71.7659C178.144 72.1946 178.14 74.8784 178.057 75.3303C177.967 75.821 177.799 76.0754 177.46 76.2325C177.211 76.3479 177.072 76.3619 176.178 76.3619C174.958 76.3619 174.78 76.3027 174.536 75.8136L174.384 75.509V73.6205C174.384 71.8132 174.39 71.7198 174.516 71.447ZM243.719 73.5676C243.719 71.3755 243.791 71.1285 244.492 70.9321C244.69 70.8767 245.083 70.8553 245.725 70.8652C246.865 70.8826 247.059 70.9522 247.305 71.4314L247.457 71.7288L247.456 73.497C247.454 75.4917 247.426 75.6764 247.072 76.0316C246.778 76.3256 246.275 76.4221 245.26 76.3789C244.469 76.3451 244.18 76.2599 243.977 76.0013C243.763 75.7288 243.719 75.3136 243.719 73.5676ZM25.4418 76.301L25.426 73.6053L25.4102 70.9096H26.8284C28.7052 70.9096 28.9403 70.9785 29.2222 71.6111C29.3141 71.8171 29.3337 72.0766 29.3514 73.3265C29.3748 74.9659 29.3201 75.3652 29.0114 75.8107C28.6824 76.2854 28.6166 76.301 26.9313 76.301H25.4418ZM44.9867 76.3393V73.6244V70.9096L46.4002 70.91C48.2338 70.9104 48.5095 70.9874 48.7774 71.5741C48.8922 71.8257 48.9073 71.9902 48.9275 73.2073C48.9539 74.7983 48.8965 75.2605 48.6144 75.7281C48.286 76.2726 48.195 76.2976 46.461 76.3201L44.9867 76.3393ZM78.97 73.6573V72.2785V70.8998L80.3834 70.92C81.9859 70.9428 82.1214 70.9758 82.2985 71.3858C82.4482 71.7326 82.4373 72.8148 82.2809 73.1292C82.0432 73.6069 82.0015 73.6181 80.3943 73.6389L78.97 73.6573ZM123.896 76.3314V73.6167V70.902L125.431 70.9211C126.917 70.9395 126.974 70.9447 127.217 71.0844C127.362 71.1677 127.529 71.3349 127.612 71.4803C127.752 71.7252 127.757 71.7762 127.775 73.3639C127.791 74.7408 127.778 75.05 127.693 75.3423C127.57 75.767 127.205 76.1627 126.844 76.2631C126.7 76.3033 126.052 76.3309 125.249 76.331L123.896 76.3314ZM167.18 73.722V72.3116V70.9013L168.533 70.9207C170.066 70.9427 170.208 70.9783 170.391 71.3858C170.538 71.7126 170.533 72.9921 170.384 73.2692C170.183 73.6451 170.039 73.6786 168.533 73.7015L167.18 73.722ZM186.087 76.3314V73.6205V70.9096H187.505C189.109 70.9096 189.359 70.9556 189.667 71.3071C189.945 71.624 189.99 71.9848 189.967 73.6984C189.948 75.1288 189.939 75.2205 189.802 75.5247C189.633 75.9013 189.343 76.1777 189.022 76.2668C188.894 76.3025 188.196 76.3309 187.44 76.331L186.087 76.3314ZM218.49 73.6591V72.2794V70.8998L219.903 70.92C221.507 70.9428 221.644 70.976 221.815 71.3858C221.957 71.7241 221.944 72.8399 221.794 73.1416C221.564 73.6052 221.515 73.6182 219.914 73.6398L218.49 73.6591ZM237.292 78.4389C237.366 78.3918 237.632 78.228 237.883 78.075C238.133 77.922 238.352 77.7971 238.369 77.7974C238.386 77.7978 238.501 77.9452 238.626 78.1251L238.852 78.4521L238.147 78.7348C237.76 78.8903 237.437 79.0094 237.43 78.9994C237.424 78.9895 237.359 78.8786 237.288 78.753L237.157 78.5246L237.292 78.4389Z" fill="white"/>
<path d="M31.6123 17.0007C23.042 17.8514 16.6027 25.1924 16.921 33.7491C17.0689 37.724 18.5424 41.2959 21.2685 44.2881L21.5737 44.6231L33.0522 33.1206L44.5308 21.6181L44.166 21.2803C41.7559 19.0485 38.7654 17.6078 35.5255 17.1175C34.5501 16.9699 32.5297 16.9096 31.6123 17.0007Z" fill="#1A68BB"/>
</svg>
