<svg width="40" height="40" viewBox="0 0 40 40" fill="none" xmlns="http://www.w3.org/2000/svg">
    <path
        d="M17.5108 28.5245C17.5055 28.7693 17.6826 28.9752 17.9118 28.9808C18.141 28.9863 18.3337 28.7971 18.3389 28.5523C18.365 27.79 18.9431 27.5786 19.0942 27.5396H24.1622C24.2039 27.5396 24.2507 27.534 24.2872 27.5174C24.3133 27.5118 24.3497 27.5007 24.3914 27.484C24.3966 27.484 24.3966 27.484 24.4018 27.4784C25.256 27.1891 26.7978 26.6215 28.2562 26.0873C29.8396 25.5087 31.3241 24.9634 31.6366 24.8688C32.1054 24.7297 32.4075 25.4085 32.4075 25.4085C32.4127 25.4141 32.4127 25.4252 32.4179 25.4308C32.6367 25.8481 32.3502 26.2654 32.2512 26.3989L22.3913 32.2525C22.3861 32.2581 22.3756 32.2581 22.3704 32.2637C21.7662 32.6365 21.1985 32.3416 21.0891 32.2804C21.0578 32.2581 21.0266 32.2414 20.9849 32.2247L13.6668 29.6429C13.6199 29.6262 13.573 29.6151 13.5209 29.6151H11.8906C11.6614 29.6151 11.4739 29.8154 11.4739 30.0602C11.4739 30.305 11.6614 30.5054 11.8906 30.5054H13.4584L20.6984 33.0593C20.9224 33.1873 21.8339 33.6213 22.7871 33.0315L22.7975 33.026L32.72 27.1334C32.7565 27.1112 32.7877 27.0833 32.8138 27.0555C32.8138 27.05 33.6992 26.0985 33.1575 25.019C33.1575 25.0134 32.5638 23.6669 31.4179 24.0063C31.048 24.1176 29.5688 24.6573 27.9906 25.236C27.1259 25.5532 26.2352 25.8815 25.4956 26.1485C25.5217 26.0039 25.5373 25.8425 25.5373 25.67C25.5217 24.0564 24.0216 23.8728 24.0216 23.8728C24.0059 23.8728 23.9851 23.8672 23.9695 23.8672H20.1567C19.6515 23.6224 17.0524 22.3871 15.6513 22.12C15.6461 22.12 15.6409 22.12 15.6356 22.12C15.0106 22.0032 14.2345 21.9642 13.5313 21.9642C12.823 21.9642 12.2031 21.9921 11.875 22.0143C11.6458 22.031 11.4687 22.2369 11.4843 22.4817C11.5 22.7265 11.6927 22.9157 11.9219 22.899C12.25 22.8768 12.8594 22.8434 13.5261 22.8489C14.1824 22.8489 14.9064 22.8879 15.4898 22.9936C15.495 22.9936 15.5002 22.9936 15.5054 22.9992C16.8753 23.2607 19.5421 24.546 19.8651 24.7018C19.9276 24.7408 19.9953 24.7575 20.0682 24.7575H23.9486C24.0945 24.7853 24.7039 24.9467 24.7143 25.6812C24.7143 25.8536 24.6935 25.9928 24.657 26.1096C24.6154 26.232 24.5581 26.3322 24.4903 26.4045C24.381 26.5269 24.2612 26.5937 24.183 26.6215L24.1674 26.6271C24.157 26.6271 24.1518 26.6326 24.1466 26.6382L24.1362 26.6438H19.0681C19.0421 26.6438 19.0161 26.6438 18.99 26.6493C18.9848 26.6493 17.5785 26.922 17.5264 28.5189L17.5108 28.5245Z"
        fill="#136048" stroke="#136048" />
    <path
        d="M7.59835 20.9014H11.2288C11.2548 20.9014 11.2809 20.9125 11.2965 20.9292C11.3173 20.9515 11.3277 20.9737 11.3277 21.0016V31.4679C11.3277 31.4957 11.3173 31.5236 11.2965 31.5403C11.2913 31.5458 11.2913 31.5458 11.2861 31.5514C11.2705 31.5625 11.2496 31.5736 11.2236 31.5736H7.59315C7.5671 31.5736 7.54106 31.5625 7.52543 31.5458C7.50981 31.5291 7.49939 31.5013 7.49939 31.4735V21.0071C7.49939 20.9793 7.50981 20.9515 7.52543 20.9348C7.54106 20.9181 7.5671 20.907 7.59315 20.907L7.59835 20.9014ZM11.2288 20.0111H7.59835C7.34313 20.0111 7.11395 20.1224 6.94206 20.3005C6.77539 20.4841 6.66601 20.7289 6.66601 21.0016V31.4679C6.66601 31.7406 6.77018 31.9854 6.93686 32.169C7.10874 32.3471 7.33792 32.4639 7.59315 32.4639H11.2236C11.4632 32.4639 11.6871 32.3638 11.8538 32.2024C11.8642 32.1913 11.8747 32.1801 11.8851 32.1746C12.0518 31.9965 12.1611 31.7461 12.1611 31.4679V21.0016C12.1611 20.7289 12.057 20.4785 11.8851 20.2949C11.7132 20.1113 11.484 20 11.2288 20V20.0111Z"
        fill="#136048" stroke="#136048" />
    <path d="M20 3.33337V16.6667" stroke="#136048" stroke-width="2" stroke-linecap="round"
        stroke-linejoin="round" />
    <path
        d="M22.7781 5.75732H18.6114C18.0957 5.75732 17.6012 5.98081 17.2365 6.37861C16.8719 6.77642 16.667 7.31596 16.667 7.87854C16.667 8.44112 16.8719 8.98066 17.2365 9.37846C17.6012 9.77626 18.0957 9.99975 18.6114 9.99975H21.3892C21.9049 9.99975 22.3995 10.2232 22.7641 10.621C23.1288 11.0188 23.3337 11.5584 23.3337 12.121C23.3337 12.6835 23.1288 13.2231 22.7641 13.6209C22.3995 14.0187 21.9049 14.2422 21.3892 14.2422H16.667"
        stroke="#136048" stroke-width="2" stroke-linecap="round" stroke-linejoin="round" />
</svg>
