<svg width="39" height="40" viewBox="0 0 39 40" fill="none" xmlns="http://www.w3.org/2000/svg">
<path d="M32.1753 20V36.6667H6.6748V20" stroke="#136048" stroke-width="3" stroke-linecap="round" stroke-linejoin="round"/>
<path d="M35.3629 11.6666H3.4873V20H35.3629V11.6666Z" stroke="#136048" stroke-width="3" stroke-linecap="round" stroke-linejoin="round"/>
<path d="M19.4248 36.6666V11.6666" stroke="#136048" stroke-width="3" stroke-linecap="round" stroke-linejoin="round"/>
<path d="M19.4248 11.6667H26.5968C27.6536 11.6667 28.667 11.2277 29.4142 10.4463C30.1615 9.66492 30.5813 8.60511 30.5813 7.50004C30.5813 6.39497 30.1615 5.33516 29.4142 4.55376C28.667 3.77236 27.6536 3.33337 26.5968 3.33337C21.0186 3.33337 19.4248 11.6667 19.4248 11.6667Z" stroke="#136048" stroke-width="3" stroke-linecap="round" stroke-linejoin="round"/>
<path d="M19.425 11.6667H12.253C11.1963 11.6667 10.1828 11.2277 9.43557 10.4463C8.68834 9.66492 8.26855 8.60511 8.26855 7.50004C8.26855 6.39497 8.68834 5.33516 9.43557 4.55376C10.1828 3.77236 11.1963 3.33337 12.253 3.33337C17.8312 3.33337 19.425 11.6667 19.425 11.6667Z" stroke="#136048" stroke-width="3" stroke-linecap="round" stroke-linejoin="round"/>
</svg>
