<svg width="36" height="36" viewBox="0 0 36 36" fill="none" xmlns="http://www.w3.org/2000/svg">
    <path
        d="M22.2536 26.763C22.6492 27.1649 23.0844 27.5133 23.5503 27.8044L19.9907 31.4218C18.8916 32.5386 17.1076 32.5386 16.0086 31.4219L12.6074 27.9655C13.1637 27.6479 13.6804 27.2513 14.1427 26.7817L18.2073 22.6511L22.2536 26.763ZM10.9582 26.2894C10.3941 26.5178 9.78671 26.6373 9.16125 26.6373H8.18588L14.4546 33.0079C16.4124 34.9974 19.5867 34.9974 21.5446 33.0079L27.8315 26.6189H27.2352C26.5107 26.6189 25.8106 26.4586 25.1739 26.1545C24.6725 25.9151 24.2105 25.5864 23.8072 25.1767L18.8575 20.1468C18.5102 19.7927 17.9043 19.7938 17.557 20.1468L12.5893 25.1952C12.1159 25.6759 11.5619 26.0449 10.9582 26.2894ZM14.1427 9.2187C13.6803 8.74897 13.1636 8.35217 12.6073 8.03457L16.0084 4.57829C17.1075 3.46127 18.8914 3.46127 19.9905 4.57829L23.55 8.19555C23.0842 8.48671 22.649 8.83501 22.2534 9.23685L18.2068 13.3495L14.1427 9.2187ZM25.1736 9.8455C25.8103 9.54134 26.5106 9.38092 27.2349 9.38092H27.8311L21.5444 2.99221C19.5866 1.0026 16.4123 1.0026 14.4544 2.99221L8.18588 9.36255H9.16114C9.7866 9.36255 10.394 9.48208 10.9581 9.7105C11.5618 9.95506 12.1157 10.3242 12.5889 10.805L17.5567 15.8541C17.9145 16.2176 18.4987 16.2193 18.8574 15.8536L23.8069 10.8233C24.2103 10.4136 24.6723 10.085 25.1736 9.8455ZM6.78262 10.526C6.86248 10.5565 6.94729 10.5783 7.03771 10.5783H9.16169C10.0548 10.5783 10.9287 10.9463 11.5599 11.588L16.528 16.6367C16.5588 16.6681 16.5903 16.6983 16.6224 16.7275C17.0721 17.1373 17.6398 17.3426 18.2079 17.3426C18.7754 17.3426 19.3435 17.1374 19.7931 16.7272C19.8253 16.698 19.8567 16.6676 19.8876 16.6363L24.8373 11.6062C25.4682 10.9645 26.3424 10.5965 27.2355 10.5965H28.9627C29.0583 10.5965 29.1488 10.5752 29.2324 10.5412L33.0316 14.402C34.9895 16.3915 34.9895 19.6172 33.0316 21.607L29.2326 25.4675C29.1488 25.4335 29.0585 25.4123 28.9627 25.4123H27.2355C26.3424 25.4123 25.4682 25.0443 24.8373 24.4025L19.8876 19.3731C19.8601 19.3451 19.8321 19.3181 19.8034 19.2918C19.3637 18.8897 18.7859 18.6887 18.2079 18.6887C17.6299 18.6887 17.0517 18.8898 16.6116 19.2917L16.5276 19.3725L11.5599 24.421C10.9287 25.0627 10.0548 25.4306 9.16169 25.4306H7.03771C6.94729 25.4306 6.86237 25.4524 6.7824 25.483L2.96839 21.607C1.01054 19.6172 1.01054 16.3915 2.96839 14.402L6.78262 10.526ZM9.16169 12.8188H7.64095L4.52235 15.9881C3.42609 17.102 3.42576 18.9065 4.52235 20.021L7.64073 23.19H9.16169C9.47288 23.19 9.78759 23.0569 10.0055 22.8353L14.7592 18.0045L10.0059 13.174C9.78792 12.9524 9.47288 12.8188 9.16169 12.8188ZM28.3771 12.8371H27.2355C26.9242 12.8371 26.6089 12.971 26.3912 13.1922L21.6558 18.0047L26.392 22.8173C26.6096 23.0385 26.9242 23.1717 27.2355 23.1717H28.3771L31.4777 20.021C32.5742 18.9065 32.574 17.1021 31.4777 15.9881L28.3771 12.8371Z"
        fill="#136048" />
</svg>
