<svg width="36" height="36" viewBox="0 0 36 36" fill="none" xmlns="http://www.w3.org/2000/svg">
<path d="M5.58039 4.50024C4.9837 4.50024 4.5 4.98395 4.5 5.58063V11.2944C4.5 11.8911 4.98371 12.3748 5.58039 12.3748H11.2942C11.8908 12.3748 12.3746 11.8911 12.3746 11.2944V5.58063C12.3746 4.98395 11.8908 4.50024 11.2942 4.50024H5.58039ZM10.1249 9.04473C10.1249 9.64141 9.64117 10.1251 9.04448 10.1251H7.8304C7.23372 10.1251 6.75002 9.64141 6.75002 9.04473V7.83065C6.75002 7.23397 7.23372 6.75026 7.8304 6.75026H9.04448C9.64117 6.75026 10.1249 7.23397 10.1249 7.83065V9.04473Z" fill="#136048"/>
<path d="M5.58039 23.6233C4.9837 23.6233 4.5 24.107 4.5 24.7037V30.4178C4.5 31.0145 4.98371 31.4982 5.58039 31.4982H11.2942C11.8908 31.4982 12.3746 31.0145 12.3746 30.4178V24.7037C12.3746 24.107 11.8908 23.6233 11.2942 23.6233H5.58039ZM10.1249 28.1681C10.1249 28.7648 9.64117 29.2485 9.04448 29.2485H7.8304C7.23372 29.2485 6.75002 28.7648 6.75002 28.1681V26.954C6.75002 26.3573 7.23372 25.8736 7.8304 25.8736H9.04448C9.64117 25.8736 10.1249 26.3573 10.1249 26.954V28.1681Z" fill="#136048"/>
<path d="M24.7064 4.5C24.1097 4.5 23.626 4.98371 23.626 5.58039V11.2942C23.626 11.8908 24.1097 12.3746 24.7064 12.3746H30.4201C31.0168 12.3746 31.5005 11.8908 31.5005 11.2942V5.58039C31.5005 4.9837 31.0168 4.5 30.4201 4.5H24.7064ZM29.2505 9.04448C29.2505 9.64117 28.7668 10.1249 28.1701 10.1249H26.956C26.3594 10.1249 25.8757 9.64117 25.8757 9.04448V7.8304C25.8757 7.23372 26.3594 6.75002 26.956 6.75002H28.1701C28.7668 6.75002 29.2505 7.23372 29.2505 7.8304V9.04448Z" fill="#136048"/>
<path d="M30.3309 14.6241C29.7342 14.6241 29.2505 15.1079 29.2505 15.7045V20.2935C29.2505 20.8901 28.7668 21.3739 28.1701 21.3739H24.7064C24.1097 21.3739 23.626 21.8576 23.626 22.4542V22.5431C23.626 23.1398 24.1097 23.6235 24.7064 23.6235H30.4201C31.0168 23.6235 31.5005 23.1398 31.5005 22.5431V15.7045C31.5005 15.1079 31.0168 14.6241 30.4201 14.6241H30.3309Z" fill="#136048"/>
<path d="M24.7064 25.8755C24.1097 25.8755 23.626 26.3592 23.626 26.9559V30.4196C23.626 31.0163 24.1097 31.5 24.7064 31.5H24.7953C25.3919 31.5 25.8757 31.0163 25.8757 30.4196V29.2056C25.8757 28.6089 26.3594 28.1252 26.956 28.1252H28.1701C28.7668 28.1252 29.2505 28.6089 29.2505 29.2056V30.4196C29.2505 31.0163 29.7342 31.5 30.3309 31.5H30.4201C31.0168 31.5 31.5005 31.0163 31.5005 30.4196V26.9559C31.5005 26.3592 31.0168 25.8755 30.4201 25.8755H24.7064Z" fill="#136048"/>
<path d="M15.7073 4.5C15.1107 4.5 14.627 4.98371 14.627 5.58039V5.66963C14.627 6.26631 15.1107 6.75002 15.7073 6.75002H18.0463C18.6429 6.75002 19.1266 7.23372 19.1266 7.8304V11.2942C19.1266 11.8908 19.6104 12.3746 20.207 12.3746H20.2963C20.893 12.3746 21.3767 11.8908 21.3767 11.2942V5.58039C21.3767 4.9837 20.893 4.5 20.2963 4.5H15.7073Z" fill="#136048"/>
<path d="M20.207 14.6241C19.6104 14.6241 19.1266 15.1079 19.1266 15.7045V18.0438C19.1266 18.6405 18.6429 19.1242 18.0463 19.1242H15.7073C15.1107 19.1242 14.627 19.6079 14.627 20.2046V24.7935C14.627 25.3902 15.1107 25.8739 15.7073 25.8739H18.0463C18.6429 25.8739 19.1266 26.3576 19.1266 26.9543V30.418C19.1266 31.0147 19.6104 31.4984 20.207 31.4984H20.2963C20.893 31.4984 21.3767 31.0147 21.3767 30.418V24.7039C21.3767 24.1072 20.893 23.6235 20.2963 23.6235H17.9574C17.3607 23.6235 16.877 23.1398 16.877 22.5431V22.4542C16.877 21.8576 17.3607 21.3739 17.9574 21.3739H20.2963C20.893 21.3739 21.3767 20.8902 21.3767 20.2935V17.9545C21.3767 17.3579 21.8604 16.8742 22.4571 16.8742H22.5463C23.143 16.8742 23.6267 17.3579 23.6267 17.9545V18.0438C23.6267 18.6405 24.1104 19.1242 24.7071 19.1242H24.796C25.3927 19.1242 25.8764 18.6405 25.8764 18.0438V15.7045C25.8764 15.1079 25.3927 14.6241 24.796 14.6241H20.207Z" fill="#136048"/>
<path d="M15.7966 28.1251H15.7073C15.1107 28.1251 14.627 28.6088 14.627 29.2055V30.4196C14.627 31.0163 15.1107 31.5 15.7073 31.5H15.7966C16.3933 31.5 16.877 31.0163 16.877 30.4196V29.2055C16.877 28.6088 16.3933 28.1251 15.7966 28.1251Z" fill="#136048"/>
<path d="M11.2915 19.1234H10.0775C9.48078 19.1234 8.99707 19.6071 8.99707 20.2038V20.2927C8.99707 20.8894 9.48078 21.3731 10.0775 21.3731H11.2915C11.8882 21.3731 12.3719 20.8894 12.3719 20.2927V20.2038C12.3719 19.6071 11.8882 19.1234 11.2915 19.1234Z" fill="#136048"/>
<path d="M15.705 8.99988C15.1083 8.99988 14.6246 9.48358 14.6246 10.0803V13.5444C14.6246 14.141 14.1409 14.6247 13.5442 14.6247H5.58039C4.98371 14.6247 4.5 15.1085 4.5 15.7051V20.2941C4.5 20.8907 4.98371 21.3745 5.58039 21.3745H5.66963C6.26631 21.3745 6.75002 20.8907 6.75002 20.2941V17.9551C6.75002 17.3585 7.23372 16.8748 7.8304 16.8748H15.7942C16.3909 16.8748 16.8746 16.3911 16.8746 15.7944V10.0803C16.8746 9.48358 16.3909 8.99988 15.7942 8.99988H15.705Z" fill="#136048"/>
</svg>
