<svg width="225" height="224" viewBox="0 0 225 224" fill="none" xmlns="http://www.w3.org/2000/svg">
<ellipse cx="111.999" cy="110" rx="44.1973" ry="44" fill="#005098"/>
<ellipse cx="111.998" cy="110" rx="37.1659" ry="37" fill="#D1E9FF"/>
<path d="M148.662 103C140.626 137.8 114.174 146.167 101.953 146V151H114.007L133.092 147L148.662 132L153.182 120.5V105L148.662 103Z" fill="#BFDAF3"/>
<ellipse cx="111.998" cy="110" rx="5.02242" ry="5" fill="#005098"/>
<path d="M106.137 60.9052L106.21 61H117.785L117.858 60.9052L117.981 61L117.858 60.9052C121.6 56.0423 118.134 49 111.997 49C105.861 49 102.394 56.0423 106.137 60.9052Z" stroke="#FFCE00" stroke-width="4"/>
<rect width="8.10235" height="8.3276" transform="matrix(0.821193 0.570651 -0.574094 0.81879 139.882 68.354)" fill="#F2C401"/>
<rect x="104.967" y="58" width="14.0628" height="14" rx="6" fill="#FFCE00"/>
<path d="M152.696 110C152.696 132.353 134.49 150.5 111.999 150.5C89.5078 150.5 71.3018 132.353 71.3018 110C71.3018 87.6475 89.5078 69.5002 111.999 69.5002C134.49 69.5002 152.696 87.6475 152.696 110Z" stroke="#005098" stroke-width="7"/>
<rect width="4.00293" height="28.8728" rx="2.00146" transform="matrix(0.404925 -0.91435 0.915683 0.401902 107.979 111.66)" fill="#005098" stroke="#005098"/>
<rect width="4.01325" height="14.8055" rx="2.00662" transform="matrix(0.86012 -0.510092 0.513473 0.858106 101.953 98.0471)" fill="#005098" stroke="#005098"/>
<rect x="109.989" y="75" width="4.01794" height="9" rx="2.00897" fill="#005098"/>
<rect x="109.989" y="133" width="4.01794" height="9.00002" rx="2.00897" fill="#005098"/>
<ellipse cx="111.999" cy="110" rx="3.01345" ry="3" fill="#FFCE00"/>
<ellipse cx="6.47133" cy="3.976" rx="6.47133" ry="3.976" transform="matrix(0.715829 -0.698275 0.701471 0.712698 77.8438 99.6292)" fill="white"/>
<ellipse cx="1.92846" cy="1.85005" rx="1.92846" ry="1.85005" transform="matrix(0.715829 -0.698276 0.701471 0.712698 85.9609 124.693)" fill="white"/>
<rect width="4.01268" height="9.01187" rx="2.00634" transform="matrix(0.841571 0.540146 -0.543571 0.839363 130.959 83)" fill="#005098"/>
<rect width="4.01268" height="9.01187" rx="2.00634" transform="matrix(0.841572 -0.540145 -0.543571 -0.839363 131.962 137.731)" fill="#005098"/>
<rect x="145.146" y="107" width="3.99999" height="9.04037" rx="2" transform="rotate(90 145.146 107)" fill="#005098"/>
<rect width="4.01268" height="9.01187" rx="2.00634" transform="matrix(-0.841572 0.540145 0.543571 0.839363 93.0381 82.9995)" fill="#005098"/>
<rect width="4.01268" height="9.01186" rx="2.00634" transform="matrix(-0.841572 -0.540146 0.543571 -0.839363 92.0352 137.731)" fill="#005098"/>
<rect width="4" height="9.04037" rx="2" transform="matrix(-1.19784e-08 1 1 1.18716e-08 78.8516 107)" fill="#005098"/>
<ellipse cx="85.379" cy="118.5" rx="3.51569" ry="3.5" fill="white"/>
<ellipse cx="109.485" cy="61.4998" rx="1.50673" ry="1.5" fill="#FFE471"/>
<rect width="15.0456" height="5.00726" rx="2.50363" transform="matrix(0.82391 0.566721 -0.570164 0.821531 138.959 63)" fill="#FFCE00"/>
<path d="M158.037 59.7247C157.089 59.7247 156.32 58.9565 156.32 58.0091V56.2935C156.32 55.346 157.089 54.5779 158.037 54.5779C158.985 54.5779 159.753 55.346 159.753 56.2935V58.0091C159.753 58.9565 158.985 59.7247 158.037 59.7247Z" fill="white"/>
<path d="M158.037 51.1468C157.089 51.1468 156.32 50.3786 156.32 49.4312V47.7156C156.32 46.7682 157.089 46 158.037 46C158.985 46 159.753 46.7682 159.753 47.7156V49.4312C159.753 50.3786 158.985 51.1468 158.037 51.1468Z" fill="white"/>
<path d="M163.188 54.5782H161.471C160.523 54.5782 159.755 53.81 159.755 52.8626C159.755 51.9151 160.523 51.147 161.471 51.147H163.188C164.136 51.147 164.904 51.9151 164.904 52.8626C164.904 53.81 164.136 54.5782 163.188 54.5782Z" fill="white"/>
<path d="M154.606 54.5779H152.889C151.941 54.5779 151.173 53.8098 151.173 52.8623C151.173 51.9149 151.941 51.1467 152.889 51.1467H154.606C155.554 51.1467 156.322 51.9149 156.322 52.8623C156.322 53.8098 155.554 54.5779 154.606 54.5779Z" fill="white"/>
<path d="M43.525 94.7247C42.5771 94.7247 41.8086 93.9565 41.8086 93.0091V91.2935C41.8086 90.346 42.5771 89.5779 43.525 89.5779C44.4729 89.5779 45.2414 90.346 45.2414 91.2935V93.0091C45.2414 93.9565 44.4731 94.7247 43.525 94.7247Z" fill="white"/>
<path d="M43.525 86.1468C42.5771 86.1468 41.8086 85.3786 41.8086 84.4312V82.7156C41.8086 81.7682 42.5771 81 43.525 81C44.4729 81 45.2414 81.7682 45.2414 82.7156V84.4312C45.2414 85.3786 44.4731 86.1468 43.525 86.1468Z" fill="white"/>
<path d="M48.676 89.5782H46.9596C46.0117 89.5782 45.2432 88.81 45.2432 87.8626C45.2432 86.9151 46.0117 86.147 46.9596 86.147H48.676C49.6238 86.147 50.3924 86.9151 50.3924 87.8626C50.3924 88.81 49.6241 89.5782 48.676 89.5782Z" fill="white"/>
<path d="M40.0939 89.5779H38.3775C37.4296 89.5779 36.6611 88.8098 36.6611 87.8623C36.6611 86.9149 37.4296 86.1467 38.3775 86.1467H40.0939C41.0418 86.1467 41.8103 86.9149 41.8103 87.8623C41.8103 88.8098 41.042 89.5779 40.0939 89.5779Z" fill="white"/>
<ellipse cx="139.118" cy="65.9998" rx="1.00448" ry="1" fill="#FFE471"/>
<path d="M55.1613 140.862C57.0572 140.862 58.5941 139.326 58.5941 137.431C58.5941 135.536 57.0572 134 55.1613 134C53.2654 134 51.7285 135.536 51.7285 137.431C51.7285 139.326 53.2654 140.862 55.1613 140.862Z" fill="white"/>
<path d="M75.2512 61.8624C77.147 61.8624 78.6839 60.3262 78.6839 58.4312C78.6839 56.5362 77.147 55 75.2512 55C73.3553 55 71.8184 56.5362 71.8184 58.4312C71.8184 60.3262 73.3553 61.8624 75.2512 61.8624Z" fill="white"/>
<path d="M167.663 160.862C169.559 160.862 171.096 159.326 171.096 157.431C171.096 155.536 169.559 154 167.663 154C165.767 154 164.23 155.536 164.23 157.431C164.23 159.326 165.767 160.862 167.663 160.862Z" fill="white"/>
</svg>
