<?xml version="1.0" encoding="UTF-8"?>
<svg id="Camada_1" data-name="Camada 1" xmlns="http://www.w3.org/2000/svg" viewBox="0 0 1000 1000">
  <defs>
    <style>
      .cls-1 {
        fill: #126049;
      }

      .cls-1, .cls-2, .cls-3 {
        stroke-width: 0px;
      }

      .cls-2 {
        fill-rule: evenodd;
      }

      .cls-2, .cls-3 {
        fill: #a8ca4b;
      }
    </style>
  </defs>
  <g>
    <path class="cls-1" d="M208.18,378.97c10.66,0,19.3-8.64,19.3-19.3s-8.64-19.3-19.3-19.3-19.3,8.64-19.3,19.3,8.64,19.3,19.3,19.3"/>
    <path class="cls-3" d="M166.02,351.86c-3.73-1.78-8.14-2.15-12.35-.66-14.72,5.23-28.34,12.51-40.56,21.46-12.48,9.14-23.51,20.03-32.78,32.25-9.27,12.22-16.78,25.78-22.21,40.26-5.32,14.18-8.66,29.26-9.73,44.84v.02c-1.47,21.43,1.41,42.17,7.87,61.36,6.71,19.92,17.29,38.18,30.91,53.79,13.61,15.6,30.25,28.57,49.08,37.92,18.13,9.01,38.3,14.67,59.75,16.14h.02c21.05,1.44,41.44-1.3,60.35-7.52,19.62-6.45,37.64-16.65,53.15-29.81,15.51-13.16,28.52-29.3,38.08-47.61,9.22-17.66,15.25-37.35,17.26-58.38.05-.51.07-1.05.08-1.63,0-.58-.02-1.21-.06-1.87l-.09-1.36,11.35,11.35c2.47,2.47,5.73,3.71,8.98,3.71s6.51-1.24,8.98-3.71l.15-.15c2.47-2.47,3.71-5.73,3.71-8.98s-1.24-6.51-3.71-8.98l-46.12-46.12-46.12,46.12c-2.47,2.47-3.71,5.73-3.71,8.98s1.24,6.51,3.71,8.98l.15.15c2.47,2.47,5.73,3.71,8.98,3.71s6.51-1.24,8.98-3.71l13.24-13.24-.3,1.62c-.07.37-.13.74-.18,1.09-.05.35-.09.69-.12,1-1.6,16.73-6.4,32.4-13.75,46.46-7.62,14.58-17.98,27.43-30.34,37.92-12.25,10.39-26.46,18.46-41.94,23.61-14.93,4.96-31.02,7.21-47.65,6.19h-.03c-.28-.04-.57-.06-.84-.08-.3-.02-.58-.03-.85-.04h-.03c-16.93-1.27-32.84-5.82-47.15-12.99-14.85-7.44-27.98-17.69-38.72-30.02-10.73-12.3-19.08-26.68-24.42-42.4-5.14-15.14-7.48-31.51-6.44-48.46v-.03c.04-.29.06-.57.08-.85.02-.3.03-.59.04-.86v-.03c.92-12.29,3.6-24.16,7.82-35.31,4.3-11.38,10.21-22.02,17.48-31.61,7.36-9.71,16.13-18.35,26.07-25.62,9.73-7.12,20.59-12.91,32.35-17.09,4.21-1.48,7.42-4.53,9.2-8.26,1.78-3.73,2.15-8.14.66-12.35-1.48-4.21-4.53-7.42-8.26-9.2"/>
    <path class="cls-1" d="M207.38,513.35c-10.6,0-18.76-2.06-25.03-5.32-6.33-3.29-10.74-7.8-13.81-12.64-3.01-4.76-4.65-9.77-5.53-14.23-.88-4.44-1.01-8.32-1.01-10.86v-28.1c0-14.43,2.66-25.88,7.97-34.34,4.28-6.81,10.25-11.66,17.91-14.55,8.7-3.28,30.57-3.26,39.43,0,7.77,2.86,13.84,7.66,18.21,14.4,5.5,8.47,8.25,21.43,8.25,35.95v9.39c0,8.83-7.2,16.03-16.03,16.03-9.87,0-18.3-5.23-18.3-16.03v-10.06c0-6.8-1.05-13.3-3.15-16.59-1.96-3.07-4.93-4.61-8.91-4.61-2.02,0-3.76.33-5.2.98-1.39.63-2.54,1.58-3.43,2.84-1.12,1.59-1.97,3.69-2.55,6.28-.59,2.67-.89,5.88-.89,9.63v25.87c0,4.7,1,8.18,3.01,10.43,1.96,2.2,4.98,3.3,9.05,3.3,7.57,0,14.25,1.12,20.04,3.35,5.83,2.25,10.74,5.64,14.72,10.15,3.89,4.41,6.81,9.83,8.75,16.25,1.91,6.35,2.88,13.68,2.88,21.99v14.36c0,13.69-2.76,24.53-8.27,32.53-5.36,7.77-13.27,12.8-23.72,15.09v11.59c0,18.08-28.84,18.07-28.84,0v-11.85c-3.82-.99-7.31-2.41-10.46-4.26-3.48-2.05-6.55-4.62-9.19-7.71-3.78-4.43-6.62-9.87-8.5-16.32-1.86-6.39-2.8-15.21-2.8-23.54v-1.07c0-8.83,7.2-16.03,16.03-16.03h1.26c8.83,0,16.03,7.2,16.03,16.03v1.74c0,6.91,1.05,13.5,3.16,16.85,1.96,3.12,4.93,4.69,8.9,4.69,2.01,0,3.74-.33,5.17-.99,1.39-.64,2.54-1.61,3.43-2.89,1.13-1.62,1.98-3.76,2.56-6.4.6-2.73.9-6,.9-9.79v-9.69c0-8.97-.34-21.85-12.06-21.85"/>
  </g>
  <g>
    <path class="cls-3" d="M941.18,427.17c5.96,0,10.8-4.83,10.8-10.8s-4.83-10.8-10.8-10.8-10.8,4.83-10.8,10.8,4.83,10.8,10.8,10.8"/>
    <path class="cls-3" d="M836.36,596.55c5.96,0,10.8-4.83,10.8-10.8s-4.83-10.8-10.8-10.8-10.8,4.83-10.8,10.8,4.83,10.8,10.8,10.8"/>
    <path class="cls-2" d="M940.91,432.57h1.13c5.15,0,9.36,4.2,9.36,9.36v97.8c0,5.16-4.2,9.36-9.36,9.36h-1.13c-5.15,0-9.36-4.2-9.36-9.36v-97.8c0-5.16,4.2-9.36,9.36-9.36M824.82,529.64c.51-.49.92-1.14,1.2-1.93.28-.8.43-1.76.43-2.88v-66.19c.03-5.2.06-10.25-6.85-10.25s-7.05,5.31-7.05,11.39v60.18c0,2.15.18,4,.52,5.53.33,1.49.82,2.69,1.48,3.6.52.73,1.19,1.27,2,1.64.84.37,1.86.56,3.05.56s2.23-.15,3.12-.44c.84-.27,1.55-.68,2.11-1.21ZM840.73,438.71c2.09,2.63,3.54,5.8,4.46,9.5.91,3.65,1.3,7.81,1.3,12.47v99.02c0,5.15-4.2,9.36-9.36,9.36h-1.13c-5.15,0-9.36-4.2-9.36-9.36v-10.77l-.75.13c-1.02.17-2.05.29-3.09.37-1.06.08-2.12.12-3.21.12-4.36,0-8.21-.66-11.55-1.96-3.36-1.32-6.19-3.3-8.49-5.95-2.23-2.57-3.9-5.73-5.01-9.47-1.1-3.71-1.65-7.98-1.65-12.82,0-19.81-.35-39.92.02-59.68.07-4.67.66-8.8,1.77-12.39,1.12-3.62,2.76-6.69,4.93-9.2,2.25-2.6,5-4.56,8.26-5.86,3.22-1.29,6.93-1.94,11.12-1.94h.38l.02.02h.23c5.01.08,9.19.83,12.65,2.22,3.51,1.41,6.28,3.49,8.44,6.2ZM743.78,509.15h13.89v-76.1c.03-5.56.06-10.68-6.85-10.68s-7.05,5.59-7.05,11.38v75.4ZM757.67,528.48h-13.89v10.84c0,5.15-4.2,9.36-9.36,9.36h-.95c-5.15,0-9.35-4.19-9.36-9.33-.09-36.18-.67-69.78.04-106.36.07-4.67.66-8.81,1.77-12.4,1.12-3.63,2.76-6.7,4.93-9.21,2.25-2.6,5-4.56,8.27-5.87,3.23-1.29,6.94-1.95,11.13-1.95h.38l.02.02h.21c5.02.08,9.19.82,12.65,2.22,3.51,1.41,6.28,3.49,8.44,6.2,2.1,2.63,3.54,5.8,4.46,9.5.91,3.65,1.3,7.81,1.3,12.47v105.36c0,5.15-4.2,9.36-9.36,9.36h-1.32c-5.15,0-9.36-4.2-9.36-9.36v-10.84ZM914.58,520.25c0,4.87-.56,9.18-1.66,12.91-1.12,3.77-2.8,6.95-5.05,9.53-2.31,2.66-5.16,4.66-8.55,5.99-3.36,1.32-7.24,1.98-11.63,1.98-8.87,0-15.54-2.56-20.02-7.68-4.45-5.09-6.67-12.66-6.67-22.72v-78.32c0-5.16,4.2-9.36,9.36-9.36h.93c5.16,0,9.36,4.2,9.36,9.36v78.71c0,4.1.62,7.15,1.85,9.14,1.15,1.85,2.88,2.78,5.2,2.78,1.17,0,2.18-.19,3.01-.59.81-.38,1.48-.95,2.01-1.72.66-.96,1.16-2.22,1.49-3.8.35-1.62.52-3.56.52-5.82v-78.71c0-5.16,4.2-9.36,9.36-9.36h1.13c5.15,0,9.36,4.2,9.36,9.36v78.32Z"/>
    <path class="cls-1" d="M682.83,478.7c6.19,0,10.95,1.2,14.62,3.11,3.7,1.92,6.27,4.55,8.06,7.38,1.76,2.78,2.72,5.71,3.23,8.31.51,2.59.59,4.86.59,6.34v16.41c0,8.43-1.55,15.11-4.66,20.05-3.02,4.81-7.5,7.95-13.41,9.41v6.33c0,4.36-3.56,7.92-7.92,7.92h-1c-4.36,0-7.92-3.56-7.92-7.92v-6.28c-6.11-1.42-10.74-4.55-13.86-9.37-3.21-4.95-4.82-11.66-4.82-20.14v-5.49c0-5.15,4.2-9.36,9.36-9.36h1.32c5.15,0,9.36,4.2,9.36,9.36v5.88c0,3.97.61,6.92,1.84,8.84,1.15,1.79,2.88,2.69,5.2,2.69,1.18,0,2.2-.19,3.04-.57.81-.37,1.48-.92,2-1.66.65-.93,1.15-2.15,1.49-3.67.34-1.56.52-3.43.52-5.62v-15.11c0-2.74-.59-4.77-1.76-6.09-1.14-1.28-2.91-1.93-5.29-1.93-4.42,0-8.32-.65-11.7-1.96-3.41-1.31-6.27-3.29-8.6-5.93-2.27-2.58-3.98-5.74-5.11-9.49-1.12-3.71-1.68-7.99-1.68-12.84v-8.39c0-7.99,1.61-14.33,4.83-18.99,3.13-4.54,7.75-7.47,13.85-8.81v-5.49c0-4.36,3.56-7.92,7.92-7.92h1c4.36,0,7.92,3.56,7.92,7.92v5.64c2.23.58,4.27,1.41,6.11,2.49,2.03,1.2,3.82,2.7,5.36,4.5,2.21,2.59,3.86,5.76,4.96,9.53,1.09,3.73,1.63,8.03,1.63,12.89v.63c0,5.15-4.2,9.36-9.36,9.36h-.74c-5.15,0-9.36-4.2-9.36-9.36v-1.02c0-4.04-.61-7.03-1.84-8.99-1.15-1.82-2.88-2.74-5.2-2.74-1.17,0-2.18.19-3.02.58-.81.37-1.48.94-2,1.69-.66.95-1.16,2.19-1.5,3.74-.35,1.59-.52,3.5-.52,5.72v5.66c0,5.23.2,12.76,7.04,12.76M494.79,405.73c1.96.77,3.7,1.74,5.22,2.92,1.52,1.18,2.82,2.56,3.88,4.15.81,1.21,1.51,2.6,2.1,4.15.58,1.54,1.05,3.25,1.42,5.13.35,1.78.6,3.71.77,5.78.17,2.08.25,4.31.25,6.68v65.22h-.04c-.12,4.1-.71,8.03-1.77,11.49-1.14,3.72-2.84,6.93-5.08,9.27-2.32,2.41-5.17,4.23-8.55,5.43-3.35,1.19-7.21,1.79-11.58,1.79h-.14s-6.48-.02-6.48-.02l.05,11.96c.01,2.58-.9,4.81-2.73,6.64-1.82,1.83-4.05,2.76-6.63,2.76h-1.09c-5.16,0-9.36-4.2-9.36-9.36v-106.15l.02-.02v-.11c.04-4.74.6-8.94,1.69-12.59,1.1-3.68,2.73-6.8,4.89-9.35,3.54-4.17,8.81-6.6,14.47-7.57,6.34-1.09,13.21-.36,18.69,1.79ZM616.79,478.7c6.19,0,10.95,1.2,14.62,3.11,3.7,1.92,6.27,4.55,8.06,7.38,1.76,2.78,2.71,5.71,3.23,8.31.51,2.59.59,4.86.59,6.34v16.41c0,8.43-1.55,15.11-4.66,20.05-3.02,4.81-7.5,7.95-13.41,9.41v6.33c0,4.36-3.56,7.92-7.92,7.92h-1c-4.36,0-7.92-3.56-7.92-7.92v-6.28c-6.11-1.42-10.74-4.55-13.86-9.37-3.21-4.95-4.82-11.66-4.82-20.14v-5.49c0-5.15,4.2-9.36,9.36-9.36h1.32c5.16,0,9.36,4.2,9.36,9.36v5.88c0,3.97.61,6.92,1.84,8.84,1.15,1.79,2.88,2.69,5.2,2.69,1.18,0,2.2-.19,3.04-.57.81-.37,1.48-.92,2-1.66.66-.93,1.15-2.15,1.49-3.67.35-1.56.52-3.43.52-5.62v-15.11c0-2.74-.59-4.77-1.76-6.09-1.14-1.28-2.91-1.93-5.29-1.93-4.42,0-8.32-.65-11.7-1.96-3.41-1.31-6.27-3.29-8.6-5.93-2.27-2.58-3.98-5.74-5.11-9.49-1.12-3.71-1.68-7.99-1.68-12.84v-8.39c0-7.99,1.61-14.33,4.83-18.99,3.13-4.54,7.75-7.47,13.85-8.81v-5.49c0-4.36,3.56-7.92,7.92-7.92h1c4.36,0,7.92,3.56,7.92,7.92v5.64c2.23.58,4.27,1.41,6.11,2.49,2.03,1.2,3.82,2.7,5.36,4.5,2.21,2.59,3.86,5.76,4.96,9.53,1.09,3.73,1.63,8.03,1.63,12.89v.63c0,5.15-4.2,9.36-9.36,9.36h-.74c-5.16,0-9.36-4.2-9.36-9.36v-1.02c0-4.04-.61-7.03-1.84-8.99-1.15-1.82-2.88-2.74-5.2-2.74-1.17,0-2.18.19-3.02.58-.81.37-1.48.94-2,1.69-.66.95-1.16,2.19-1.49,3.74-.35,1.59-.52,3.5-.52,5.72v5.66c0,5.23.2,12.76,7.04,12.76ZM574.42,520.25c0,4.65-.39,8.81-1.3,12.47-.92,3.7-2.36,6.87-4.46,9.5-2.16,2.71-4.93,4.78-8.44,6.2-6.86,2.76-17.43,3.1-24.41.3-3.26-1.31-6.02-3.26-8.26-5.86-2.17-2.51-3.81-5.58-4.93-9.2-1.11-3.59-1.7-7.72-1.77-12.38-.12-6.33-.02-12.71-.02-19.05,0-4.84.55-9.12,1.65-12.82,1.11-3.74,2.78-6.9,5.01-9.47,2.3-2.65,5.12-4.63,8.49-5.95,3.33-1.31,7.18-1.96,11.55-1.96,1.08,0,2.15.04,3.21.12,1.03.08,2.06.2,3.09.37l.75.13v-12.35c0-4.04-.61-7.03-1.84-8.99-1.15-1.82-2.88-2.74-5.2-2.74-1.17,0-2.18.19-3.02.58-.81.37-1.48.94-2,1.69-.66.95-1.16,2.19-1.49,3.74-.3,1.39-.48,3.02-.52,4.89-.11,5.09-4.27,9.16-9.36,9.16h-.93c-2.62,0-4.88-.95-6.71-2.83-1.83-1.88-2.72-4.16-2.65-6.78.11-4.19.65-7.94,1.63-11.24,1.11-3.77,2.78-6.94,5.01-9.53,2.29-2.66,5.12-4.66,8.48-5.98,3.33-1.32,7.18-1.98,11.55-1.98s8.28.66,11.63,1.98c3.39,1.33,6.24,3.32,8.55,5.99,2.25,2.59,3.93,5.76,5.05,9.53,1.11,3.73,1.66,8.03,1.66,12.91v59.57ZM554.38,496.75c0-1.13-.15-2.09-.43-2.88-.27-.8-.68-1.44-1.19-1.93-.55-.53-1.26-.93-2.1-1.21-.9-.29-1.95-.43-3.12-.43s-2.21.19-3.05.56c-.81.36-1.48.91-2,1.64-.65.91-1.14,2.11-1.48,3.6-.34,1.53-.52,3.38-.52,5.53v19.01c0,2.08.09,3.86.26,5.35.16,1.43.4,2.59.72,3.48l.49.85c.2.35.44.66.73.91.28.26.61.48,1,.66.47.22,1.02.38,1.64.49.65.12,1.39.17,2.22.17,1.15,0,2.18-.15,3.07-.46.83-.29,1.54-.71,2.09-1.27.53-.54.96-1.25,1.25-2.14.29-.89.45-1.95.45-3.18v-28.76ZM474.69,434.23l.19,75.04h4.71c1.21,0,2.32-.04,3.3-.13.98-.08,1.84-.21,2.58-.38.56-.13,1.03-.28,1.42-.45.3-.13.53-.26.71-.4.15-.24.29-.55.43-.93.17-.46.31-1.01.44-1.64.16-.8.29-1.74.37-2.82.08-1.07.13-2.28.13-3.61v-67.32c.03-4.45.05-9.3-6.96-9.3-7.34,0-7.34,5.28-7.33,11.26v.68Z"/>
  </g>
</svg>