<svg width="53" height="161" viewBox="0 0 53 161" fill="none" xmlns="http://www.w3.org/2000/svg">
    <g clip-path="url(#clip0_98_7956)">
        <path
            d="M26.5709 22.2218C32.7033 22.2218 37.673 17.2478 37.673 11.1101C37.673 4.97233 32.7033 0 26.5709 0C20.4385 0 15.4688 4.97406 15.4688 11.1118C15.4688 17.2495 20.4385 22.2236 26.5709 22.2236"
            fill="#A8CA4B" />
        <path
            d="M26.1092 99.5949C20.0079 99.5949 15.3158 98.4071 11.7071 96.5304C8.06393 94.6364 5.52645 92.0415 3.76178 89.2514C2.02815 86.5115 1.0863 83.6247 0.579145 81.0557C0.0754439 78.4988 -0.000456243 76.2647 -0.000456243 74.804V58.625C-0.000456243 50.3153 1.52962 43.7235 4.58633 38.853C7.04963 34.9304 10.4841 32.1369 14.8898 30.476C19.8923 28.5907 32.4745 28.5959 37.5753 30.476C42.0448 32.1248 45.5379 34.8872 48.0495 38.765C51.2132 43.6441 52.795 51.106 52.795 59.4658V64.8749C52.795 69.9577 48.6515 74.1048 43.5731 74.1048C37.8927 74.1048 33.0472 71.0938 33.0472 64.8749V59.0808C33.0472 55.1668 32.4417 51.4203 31.2325 49.528C30.1043 47.7601 28.3948 46.8744 26.1075 46.8744C24.9448 46.8744 23.9443 47.0643 23.1146 47.4407C22.3142 47.8032 21.6552 48.3505 21.1429 49.0774C20.4978 49.9942 20.0079 51.201 19.6784 52.6961C19.3386 54.2327 19.1678 56.0835 19.1678 58.2417V73.1397C19.1678 75.8451 19.7457 77.8479 20.898 79.1445C22.0244 80.4117 23.7615 81.0453 26.1057 81.0453C30.4597 81.0453 34.3064 81.6893 37.6357 82.9756C40.9908 84.2722 43.8164 86.2214 46.1054 88.8181C48.3462 91.3595 50.0246 94.4793 51.1373 98.1723C52.2378 101.827 52.7915 106.049 52.7915 110.831V119.101C52.7915 126.984 51.2045 133.227 48.0323 137.832C44.9497 142.305 40.3991 145.202 34.3858 146.523V153.196C34.3858 163.605 17.7964 163.602 17.7964 153.196V146.371C15.597 145.803 13.5926 144.985 11.7796 143.919C9.77514 142.74 8.01219 141.259 6.49418 139.481C4.31895 136.932 2.68882 133.797 1.60552 130.085C0.53257 126.408 -0.00390625 121.33 -0.00390625 116.532V115.916C-0.00390625 110.833 4.13955 106.686 9.21796 106.686H9.94591C15.0226 106.686 19.1678 110.831 19.1678 115.916V116.917C19.1678 120.897 19.7733 124.69 20.9842 126.618C22.1141 128.417 23.8236 129.317 26.1075 129.317C27.2649 129.317 28.2586 129.127 29.0831 128.745C29.8818 128.377 30.5425 127.82 31.0565 127.079C31.7051 126.147 32.1967 124.916 32.5297 123.395C32.8747 121.822 33.0454 119.942 33.0454 117.758V112.179C33.0454 107.017 32.8488 99.5984 26.1075 99.5984"
            fill="#A8CA4B" />
    </g>
    <defs>
        <clipPath id="clip0_98_7956">
            <rect width="52.7955" height="161" fill="white" />
        </clipPath>
    </defs>
</svg>
