<svg width="224" height="224" viewBox="0 0 224 224" fill="none" xmlns="http://www.w3.org/2000/svg">
    <path
        d="M111 173.5C95.8 172.7 89.6667 168.333 89.5 167L91.5 163L92 161L95.5 160.5H104H123.5H138.5V167.5C135.667 169.833 126.2 174.3 111 173.5Z"
        fill="white" />
    <path
        d="M125 173C105.29 175.751 93.4137 170.912 90.2929 168.046H97.4059C106.44 168.046 124.507 163.574 124.507 164.033C124.507 164.492 124.836 171.662 125 173Z"
        fill="#F2F2F2" />
    <path
        d="M133.771 128.263V138.77H102.249V132.016V106.498V77.9781L112.756 87.7349L136.022 106.498C145.029 115.504 137.523 124.01 133.771 128.263Z"
        fill="#F9CFA9" />
    <path
        d="M94.7438 133.517V138.77H105.251V129.014V119.257C104.501 116.005 104.05 108.299 108.253 103.496C112.456 98.6926 109.004 94.4897 106.752 92.9886H80.484C72.9788 92.9886 74.4798 98.9928 75.2304 103.496C76.4513 110.822 85.9878 126.512 94.7438 133.517Z"
        fill="#F9CFA9" />
    <rect x="62" y="74.251" width="47.0521" height="79.5019" transform="rotate(-44.9663 62 74.251)"
        fill="#EEF7E7" />
    <circle cx="107.917" cy="87.0725" r="14.6024" transform="rotate(-44.9663 107.917 87.0725)"
        fill="#81AB5D" />
    <ellipse cx="107.801" cy="87.0436" rx="9.84171" ry="10.0205"
        transform="rotate(-43.6715 107.801 87.0436)" fill="#74A04E" />
    <circle cx="136.595" cy="96.268" r="2.43373" transform="rotate(-44.9663 136.595 96.268)"
        fill="#81AB5D" />
    <path
        d="M136.597 88.2346C134.918 88.4756 133.293 89.2462 131.993 90.5447C128.832 93.7022 128.79 98.7849 131.898 101.897C133.565 103.566 135.8 104.33 138.002 104.192L138.974 104.211"
        stroke="#81AB5D" stroke-width="3.00208" />
    <circle cx="2.43373" cy="2.43373" r="2.43373"
        transform="matrix(-0.707523 0.70669 0.70669 0.707523 117.082 112.318)" fill="#81AB5D" />
    <path
        d="M109.047 115.753C109.289 114.074 110.062 112.45 111.362 111.152C114.523 107.994 119.606 107.958 122.715 111.07C124.382 112.739 125.143 114.975 125.002 117.176L125.02 118.148"
        stroke="#81AB5D" stroke-width="3.00208" />
    <circle cx="2.43373" cy="2.43373" r="2.43373"
        transform="matrix(0.707523 -0.70669 -0.70669 -0.707523 96.46 59.5311)" fill="#81AB5D" />
    <path
        d="M104.495 56.0965C104.253 57.7752 103.48 59.3992 102.18 60.6976C99.0187 63.8551 93.936 63.8918 90.8273 60.7794C89.1603 59.1104 88.3994 56.8748 88.5398 54.6733L88.5216 53.7011"
        stroke="#81AB5D" stroke-width="3.00208" />
    <circle cx="76.9469" cy="75.5815" r="2.43373" transform="rotate(135.034 76.9469 75.5815)"
        fill="#81AB5D" />
    <path
        d="M76.9447 83.6148C78.6237 83.3738 80.2486 82.6031 81.5486 81.3047C84.7098 78.1472 84.7524 73.0645 81.6437 69.9521C79.9767 68.2831 77.7419 67.5197 75.5403 67.6574L74.5681 67.6381"
        stroke="#81AB5D" stroke-width="3.00208" />
    <rect x="67.5984" y="74.4289" width="39.1826" height="71.6324"
        transform="rotate(-44.9663 67.5984 74.4289)" stroke="#81AB5D" stroke-width="3.00208" />
    <rect x="60.793" y="80.9901" width="47.0521" height="79.5019"
        transform="rotate(-53.4663 60.793 80.9901)" fill="#EEF7E7" />
    <circle cx="108.102" cy="86.8843" r="14.6024" transform="rotate(-53.4663 108.102 86.8843)"
        fill="#81AB5D" />
    <ellipse cx="107.982" cy="86.8725" rx="9.84171" ry="10.0205"
        transform="rotate(-52.1715 107.982 86.8725)" fill="#74A04E" />
    <circle cx="137.819" cy="91.739" r="2.43373" transform="rotate(-53.4663 137.819 91.739)"
        fill="#81AB5D" />
    <path
        d="M136.634 83.7935C135.009 84.28 133.516 85.2824 132.422 86.7588C129.763 90.3488 130.472 95.382 134.006 98.0007C135.902 99.4049 138.225 99.8297 140.382 99.368L141.346 99.2434"
        stroke="#81AB5D" stroke-width="3.00208" />
    <circle cx="2.43373" cy="2.43373" r="2.43373"
        transform="matrix(-0.595296 0.803506 0.803506 0.595296 120.891 110.497)" fill="#81AB5D" />
    <path
        d="M113.453 115.082C113.445 113.386 113.969 111.665 115.063 110.189C117.723 106.599 122.744 105.811 126.279 108.43C128.174 109.834 129.257 111.933 129.444 114.131L129.605 115.09"
        stroke="#81AB5D" stroke-width="3.00208" />
    <circle cx="2.43373" cy="2.43373" r="2.43373"
        transform="matrix(0.595296 -0.803506 -0.803506 -0.595296 92.7012 61.3385)" fill="#81AB5D" />
    <path
        d="M100.139 56.7538C100.147 58.45 99.6226 60.1704 98.5289 61.6467C95.8691 65.2368 90.8476 66.0243 87.313 63.4056C85.4176 62.0013 84.3347 59.9027 84.1481 57.7046L83.9864 56.7458"
        stroke="#81AB5D" stroke-width="3.00208" />
    <circle cx="75.7724" cy="80.0968" r="2.43373" transform="rotate(126.534 75.7724 80.0968)"
        fill="#81AB5D" />
    <path
        d="M76.9575 88.0422C78.5824 87.5557 80.0756 86.5533 81.1694 85.0769C83.8292 81.4869 83.12 76.4537 79.5855 73.835C77.69 72.4308 75.367 72.006 73.2099 72.4677L72.2456 72.5923"
        stroke="#81AB5D" stroke-width="3.00208" />
    <rect x="66.3575" y="80.3387" width="39.1826" height="71.6324"
        transform="rotate(-53.4663 66.3575 80.3387)" stroke="#81AB5D" stroke-width="3.00208" />
    <path
        d="M74.4795 98.9927C74.4795 94.4331 78.1757 90.7369 82.7352 90.7369H104.597C109.404 90.7369 113.195 94.8274 112.829 99.6203C112.501 103.924 108.913 107.248 104.597 107.248H93.993H82.7352C78.1757 107.248 74.4795 103.552 74.4795 98.9927Z"
        fill="#F9CFA9" />
    <circle cx="112.006" cy="54.712" r="7.50519" fill="#F9CFA9" />
    <circle cx="122.513" cy="65.2193" r="7.50519" fill="#F9CFA9" />
    <circle cx="133.021" cy="75.7265" r="7.50519" fill="#F9CFA9" />
    <circle cx="142.778" cy="85.4832" r="6.75467" fill="#F9CFA9" />
    <path
        d="M88.7109 139C88.7109 137.056 90.2865 135.48 92.2302 135.48H136.786C138.999 135.48 140.793 137.274 140.793 139.487V164.86C140.793 167.072 138.999 168.866 136.786 168.866H118.577C102.083 168.866 88.7109 155.494 88.7109 139Z"
        fill="white" />
    <path
        d="M88.7109 138.404C88.7109 136.789 90.0198 135.48 91.6344 135.48C109.933 135.48 124.767 150.567 124.767 168.866H92.7172C90.5046 168.866 88.7109 167.072 88.7109 164.86V138.404Z"
        fill="#F2F2F2" />
    <circle cx="114.084" cy="159.518" r="4.00628" fill="#005098" />
    <path
        d="M37.3235 71.6438C36.3122 71.6438 35.4922 70.8242 35.4922 69.8133V67.9828C35.4922 66.9719 36.3122 66.1523 37.3235 66.1523C38.3349 66.1523 39.1549 66.9719 39.1549 67.9828V69.8133C39.1549 70.8242 38.3351 71.6438 37.3235 71.6438Z"
        fill="white" />
    <path
        d="M37.3235 62.4915C36.3122 62.4915 35.4922 61.6719 35.4922 60.661V58.8305C35.4922 57.8196 36.3122 57 37.3235 57C38.3349 57 39.1549 57.8196 39.1549 58.8305V60.661C39.1549 61.6719 38.3351 62.4915 37.3235 62.4915Z"
        fill="white" />
    <path
        d="M42.8189 66.1524H40.9876C39.9762 66.1524 39.1562 65.3328 39.1562 64.3219C39.1562 63.3111 39.9762 62.4915 40.9876 62.4915H42.8189C43.8303 62.4915 44.6503 63.3111 44.6503 64.3219C44.6503 65.3328 43.8305 66.1524 42.8189 66.1524Z"
        fill="white" />
    <path
        d="M33.6627 66.1524H31.8313C30.82 66.1524 30 65.3328 30 64.3219C30 63.3111 30.82 62.4915 31.8313 62.4915H33.6627C34.674 62.4915 35.494 63.3111 35.494 64.3219C35.494 65.3328 34.6742 66.1524 33.6627 66.1524Z"
        fill="white" />
    <path
        d="M180.324 88.6438C179.312 88.6438 178.492 87.8242 178.492 86.8133V84.9828C178.492 83.9719 179.312 83.1523 180.324 83.1523C181.335 83.1523 182.155 83.9719 182.155 84.9828V86.8133C182.155 87.8242 181.335 88.6438 180.324 88.6438Z"
        fill="white" />
    <path
        d="M180.324 79.4915C179.312 79.4915 178.492 78.6719 178.492 77.661V75.8305C178.492 74.8196 179.312 74 180.324 74C181.335 74 182.155 74.8196 182.155 75.8305V77.661C182.155 78.6719 181.335 79.4915 180.324 79.4915Z"
        fill="white" />
    <path
        d="M185.819 83.1524H183.988C182.976 83.1524 182.156 82.3328 182.156 81.3219C182.156 80.3111 182.976 79.4915 183.988 79.4915H185.819C186.83 79.4915 187.65 80.3111 187.65 81.3219C187.65 82.3328 186.831 83.1524 185.819 83.1524Z"
        fill="white" />
    <path
        d="M176.663 83.1524H174.831C173.82 83.1524 173 82.3328 173 81.3219C173 80.3111 173.82 79.4915 174.831 79.4915H176.663C177.674 79.4915 178.494 80.3111 178.494 81.3219C178.494 82.3328 177.674 83.1524 176.663 83.1524Z"
        fill="white" />
    <path
        d="M135.663 37.3219C137.686 37.3219 139.325 35.6829 139.325 33.661C139.325 31.6391 137.686 30 135.663 30C133.64 30 132 31.6391 132 33.661C132 35.6829 133.64 37.3219 135.663 37.3219Z"
        fill="#F7CC02" />
    <path
        d="M50.6627 146.322C52.6855 146.322 54.3253 144.683 54.3253 142.661C54.3253 140.639 52.6855 139 50.6627 139C48.6398 139 47 140.639 47 142.661C47 144.683 48.6398 146.322 50.6627 146.322Z"
        fill="#F7CC02" />
    <path
        d="M181.663 126.322C183.686 126.322 185.325 124.683 185.325 122.661C185.325 120.639 183.686 119 181.663 119C179.64 119 178 120.639 178 122.661C178 124.683 179.64 126.322 181.663 126.322Z"
        fill="#F7CC02" />
</svg>
