<svg width="224" height="224" viewBox="0 0 224 224" fill="none" xmlns="http://www.w3.org/2000/svg">
    <g filter="url(#filter0_d_1_3235)">
        <rect x="49" y="76" width="127" height="71.8995" rx="8" fill="white" />
        <path
            d="M69.245 88.8656H75.3281C76.6352 88.8656 77.7495 89.0624 78.6708 89.4561C79.5921 89.8499 80.2969 90.4326 80.7851 91.2043C81.2812 91.9681 81.5292 92.9131 81.5292 94.0391C81.5292 94.8974 81.3717 95.6534 81.0568 96.307C80.7418 96.9606 80.2969 97.5118 79.722 97.9606C79.1472 98.4016 78.4621 98.7441 77.6668 98.9882L76.7691 99.4253H71.3002L71.2766 97.0747H75.3753C76.084 97.0747 76.6746 96.9487 77.1471 96.6968C77.6195 96.4448 77.9739 96.1022 78.2101 95.6691C78.4542 95.2282 78.5763 94.7321 78.5763 94.1809C78.5763 93.5824 78.4582 93.0627 78.2219 92.6217C77.9936 92.1729 77.6392 91.8303 77.1589 91.5941C76.6785 91.35 76.0683 91.2279 75.3281 91.2279H72.2098V106.063H69.245V88.8656ZM79.0606 106.063L75.021 98.3386L78.1274 98.3268L82.2261 105.91V106.063H79.0606ZM90.8723 86.1134V89.6451H89.0533V86.1134H90.8723ZM90.6479 105.402V108.568H88.8407V105.402H90.6479ZM92.4315 101.587C92.4315 101.13 92.337 100.732 92.148 100.394C91.9669 100.047 91.6677 99.7363 91.2503 99.4607C90.833 99.1772 90.2739 98.9134 89.573 98.6693C88.5651 98.315 87.6832 97.9173 86.9272 97.4763C86.1791 97.0275 85.5964 96.4763 85.1791 95.8227C84.7696 95.1612 84.5648 94.3383 84.5648 93.354C84.5648 92.3855 84.7853 91.5468 85.2263 90.8381C85.6752 90.1294 86.2972 89.5821 87.0926 89.1963C87.8879 88.8104 88.8171 88.6175 89.8801 88.6175C90.6991 88.6175 91.4354 88.7396 92.0889 88.9837C92.7504 89.2278 93.3134 89.5861 93.778 90.0585C94.2426 90.531 94.597 91.1137 94.8411 91.8067C95.0931 92.4918 95.2191 93.2792 95.2191 94.169H92.3842C92.3842 93.6651 92.3252 93.2162 92.2071 92.8225C92.0968 92.4209 91.9314 92.0823 91.711 91.8067C91.4905 91.5232 91.2227 91.3067 90.9078 91.157C90.6007 91.0074 90.2502 90.9326 89.8565 90.9326C89.2974 90.9326 88.8368 91.0389 88.4745 91.2515C88.1123 91.4563 87.8446 91.7398 87.6713 92.102C87.506 92.4642 87.4233 92.8776 87.4233 93.3422C87.4233 93.7911 87.5099 94.1848 87.6832 94.5234C87.8564 94.862 88.1517 95.1691 88.569 95.4447C88.9943 95.7124 89.577 95.9841 90.3172 96.2597C91.333 96.6219 92.211 97.0275 92.9512 97.4763C93.6993 97.9173 94.2741 98.4646 94.6757 99.1182C95.0852 99.7639 95.2899 100.579 95.2899 101.563C95.2899 102.579 95.0537 103.441 94.5812 104.15C94.1166 104.859 93.463 105.398 92.6205 105.768C91.7858 106.13 90.8133 106.312 89.703 106.312C89.0021 106.312 88.3052 106.221 87.6123 106.04C86.9272 105.851 86.3051 105.544 85.746 105.119C85.1869 104.693 84.742 104.13 84.4113 103.429C84.0806 102.721 83.9152 101.855 83.9152 100.831H86.7736C86.7736 101.445 86.8563 101.957 87.0217 102.366C87.1871 102.776 87.4115 103.099 87.695 103.335C87.9784 103.571 88.2934 103.74 88.6399 103.843C88.9943 103.945 89.3486 103.996 89.703 103.996C90.2936 103.996 90.7896 103.898 91.1912 103.701C91.6007 103.496 91.9078 103.213 92.1126 102.851C92.3252 102.481 92.4315 102.059 92.4315 101.587ZM107.149 96.177H108.85C109.511 96.177 110.059 96.0629 110.492 95.8345C110.933 95.6061 111.259 95.2912 111.472 94.8896C111.685 94.488 111.791 94.0273 111.791 93.5076C111.791 92.9642 111.693 92.4996 111.496 92.1138C111.307 91.7201 111.015 91.4169 110.622 91.2043C110.236 90.9917 109.744 90.8854 109.145 90.8854C108.641 90.8854 108.184 90.9877 107.775 91.1925C107.373 91.3893 107.054 91.6728 106.818 92.0429C106.582 92.4051 106.464 92.8382 106.464 93.3422H103.605C103.605 92.4288 103.846 91.6177 104.326 90.909C104.806 90.2003 105.46 89.6451 106.287 89.2435C107.121 88.8341 108.058 88.6293 109.098 88.6293C110.208 88.6293 111.177 88.8144 112.004 89.1845C112.838 89.5467 113.488 90.09 113.952 90.8145C114.417 91.539 114.649 92.4366 114.649 93.5076C114.649 93.9958 114.535 94.4919 114.307 94.9959C114.078 95.4998 113.74 95.9605 113.291 96.3778C112.842 96.7873 112.283 97.122 111.614 97.3818C110.944 97.6338 110.169 97.7598 109.287 97.7598H107.149V96.177ZM107.149 98.3976V96.8385H109.287C110.295 96.8385 111.153 96.9566 111.862 97.1928C112.578 97.4291 113.161 97.7559 113.61 98.1732C114.059 98.5827 114.386 99.0512 114.59 99.5788C114.803 100.106 114.909 100.666 114.909 101.256C114.909 102.059 114.764 102.776 114.472 103.406C114.189 104.028 113.783 104.556 113.256 104.989C112.728 105.422 112.11 105.748 111.401 105.969C110.7 106.189 109.937 106.3 109.11 106.3C108.369 106.3 107.661 106.197 106.984 105.993C106.306 105.788 105.7 105.485 105.165 105.083C104.629 104.674 104.204 104.166 103.889 103.559C103.582 102.945 103.428 102.236 103.428 101.433H106.275C106.275 101.945 106.393 102.398 106.629 102.792C106.873 103.177 107.212 103.481 107.645 103.701C108.086 103.922 108.59 104.032 109.157 104.032C109.755 104.032 110.271 103.926 110.704 103.713C111.137 103.5 111.468 103.185 111.696 102.768C111.933 102.351 112.051 101.847 112.051 101.256C112.051 100.587 111.921 100.043 111.661 99.6261C111.401 99.2087 111.031 98.9016 110.551 98.7048C110.07 98.5 109.503 98.3976 108.85 98.3976H107.149ZM128.764 96.0235V98.8347C128.764 100.181 128.631 101.331 128.363 102.284C128.103 103.229 127.725 103.996 127.229 104.587C126.733 105.178 126.138 105.611 125.445 105.886C124.76 106.162 123.992 106.3 123.142 106.3C122.465 106.3 121.835 106.213 121.252 106.04C120.677 105.867 120.158 105.595 119.693 105.225C119.228 104.855 118.831 104.378 118.5 103.796C118.177 103.205 117.925 102.5 117.744 101.681C117.571 100.862 117.484 99.9135 117.484 98.8347V96.0235C117.484 94.6691 117.618 93.5273 117.886 92.5981C118.154 91.661 118.535 90.9011 119.032 90.3184C119.528 89.7278 120.118 89.2987 120.803 89.0309C121.496 88.7632 122.268 88.6293 123.118 88.6293C123.804 88.6293 124.433 88.7159 125.008 88.8892C125.591 89.0545 126.111 89.3183 126.567 89.6806C127.032 90.0428 127.426 90.5153 127.749 91.098C128.079 91.6728 128.331 92.3697 128.505 93.1887C128.678 93.9997 128.764 94.9447 128.764 96.0235ZM125.918 99.2363V95.5983C125.918 94.9132 125.878 94.3108 125.8 93.7911C125.721 93.2635 125.603 92.8186 125.445 92.4563C125.296 92.0862 125.107 91.787 124.878 91.5586C124.65 91.3224 124.39 91.1531 124.099 91.0507C123.807 90.9405 123.481 90.8854 123.118 90.8854C122.677 90.8854 122.284 90.972 121.937 91.1452C121.591 91.3106 121.299 91.5783 121.063 91.9484C120.827 92.3185 120.646 92.8067 120.52 93.4131C120.402 94.0115 120.343 94.7399 120.343 95.5983V99.2363C120.343 99.9292 120.382 100.54 120.461 101.067C120.54 101.595 120.658 102.047 120.815 102.425C120.973 102.796 121.162 103.103 121.382 103.347C121.61 103.583 121.87 103.756 122.162 103.866C122.461 103.977 122.788 104.032 123.142 104.032C123.591 104.032 123.989 103.945 124.335 103.772C124.682 103.599 124.973 103.323 125.209 102.945C125.445 102.559 125.623 102.059 125.741 101.445C125.859 100.831 125.918 100.095 125.918 99.2363ZM142.513 96.0235V98.8347C142.513 100.181 142.379 101.331 142.112 102.284C141.852 103.229 141.474 103.996 140.978 104.587C140.482 105.178 139.887 105.611 139.194 105.886C138.509 106.162 137.741 106.3 136.891 106.3C136.214 106.3 135.584 106.213 135.001 106.04C134.426 105.867 133.906 105.595 133.442 105.225C132.977 104.855 132.58 104.378 132.249 103.796C131.926 103.205 131.674 102.5 131.493 101.681C131.32 100.862 131.233 99.9135 131.233 98.8347V96.0235C131.233 94.6691 131.367 93.5273 131.635 92.5981C131.902 91.661 132.284 90.9011 132.78 90.3184C133.277 89.7278 133.867 89.2987 134.552 89.0309C135.245 88.7632 136.017 88.6293 136.867 88.6293C137.552 88.6293 138.182 88.7159 138.757 88.8892C139.34 89.0545 139.86 89.3183 140.316 89.6806C140.781 90.0428 141.175 90.5153 141.498 91.098C141.828 91.6728 142.08 92.3697 142.253 93.1887C142.427 93.9997 142.513 94.9447 142.513 96.0235ZM139.667 99.2363V95.5983C139.667 94.9132 139.627 94.3108 139.549 93.7911C139.47 93.2635 139.352 92.8186 139.194 92.4563C139.045 92.0862 138.856 91.787 138.627 91.5586C138.399 91.3224 138.139 91.1531 137.848 91.0507C137.556 90.9405 137.23 90.8854 136.867 90.8854C136.426 90.8854 136.033 90.972 135.686 91.1452C135.34 91.3106 135.048 91.5783 134.812 91.9484C134.576 92.3185 134.395 92.8067 134.269 93.4131C134.151 94.0115 134.092 94.7399 134.092 95.5983V99.2363C134.092 99.9292 134.131 100.54 134.21 101.067C134.288 101.595 134.407 102.047 134.564 102.425C134.721 102.796 134.91 103.103 135.131 103.347C135.359 103.583 135.619 103.756 135.911 103.866C136.21 103.977 136.537 104.032 136.891 104.032C137.34 104.032 137.737 103.945 138.084 103.772C138.43 103.599 138.722 103.323 138.958 102.945C139.194 102.559 139.371 102.059 139.49 101.445C139.608 100.831 139.667 100.095 139.667 99.2363ZM156.262 96.0235V98.8347C156.262 100.181 156.128 101.331 155.861 102.284C155.601 103.229 155.223 103.996 154.727 104.587C154.231 105.178 153.636 105.611 152.943 105.886C152.258 106.162 151.49 106.3 150.64 106.3C149.963 106.3 149.333 106.213 148.75 106.04C148.175 105.867 147.655 105.595 147.191 105.225C146.726 104.855 146.329 104.378 145.998 103.796C145.675 103.205 145.423 102.5 145.242 101.681C145.069 100.862 144.982 99.9135 144.982 98.8347V96.0235C144.982 94.6691 145.116 93.5273 145.384 92.5981C145.651 91.661 146.033 90.9011 146.529 90.3184C147.025 89.7278 147.616 89.2987 148.301 89.0309C148.994 88.7632 149.766 88.6293 150.616 88.6293C151.301 88.6293 151.931 88.7159 152.506 88.8892C153.089 89.0545 153.608 89.3183 154.065 89.6806C154.53 90.0428 154.924 90.5153 155.246 91.098C155.577 91.6728 155.829 92.3697 156.002 93.1887C156.176 93.9997 156.262 94.9447 156.262 96.0235ZM153.416 99.2363V95.5983C153.416 94.9132 153.376 94.3108 153.297 93.7911C153.219 93.2635 153.101 92.8186 152.943 92.4563C152.793 92.0862 152.604 91.787 152.376 91.5586C152.148 91.3224 151.888 91.1531 151.597 91.0507C151.305 90.9405 150.978 90.8854 150.616 90.8854C150.175 90.8854 149.781 90.972 149.435 91.1452C149.089 91.3106 148.797 91.5783 148.561 91.9484C148.325 92.3185 148.144 92.8067 148.018 93.4131C147.899 94.0115 147.84 94.7399 147.84 95.5983V99.2363C147.84 99.9292 147.88 100.54 147.959 101.067C148.037 101.595 148.155 102.047 148.313 102.425C148.47 102.796 148.659 103.103 148.88 103.347C149.108 103.583 149.368 103.756 149.659 103.866C149.959 103.977 150.285 104.032 150.64 104.032C151.089 104.032 151.486 103.945 151.833 103.772C152.179 103.599 152.471 103.323 152.707 102.945C152.943 102.559 153.12 102.059 153.238 101.445C153.357 100.831 153.416 100.095 153.416 99.2363Z"
            fill="#59C00B" />
        <g clip-path="url(#clip0_1_3235)">
            <rect x="68.3877" y="125.053" width="96.8601" height="2.68783" rx="1.34392"
                fill="#59C00B" />
            <rect x="59.751" y="125.053" width="57.3758" height="2.68783" rx="1.34392"
                fill="#0086FF" />
            <rect x="68.4863" y="125.053" width="41.6614" height="2.68783" rx="1.34392"
                fill="#0086FF" />
            <circle cx="110.148" cy="126.397" r="10.7513" fill="#0086FF" />
            <path d="M107.459 130.428L103.428 126.397L107.459 122.365" stroke="white"
                stroke-width="1.74709" stroke-linecap="round" stroke-linejoin="round" />
            <path d="M112.835 130.428L116.867 126.397L112.835 122.365" stroke="white"
                stroke-width="1.74709" stroke-linecap="round" stroke-linejoin="round" />
        </g>
    </g>
    <path fill-rule="evenodd" clip-rule="evenodd"
        d="M167.846 152C166.856 152 166.053 152.803 166.053 153.793V155.967L164.257 155.967C163.268 155.967 162.467 156.769 162.467 157.758C162.467 158.747 163.268 159.548 164.257 159.548H166.053V161.584C166.053 162.575 166.856 163.377 167.846 163.377C168.837 163.377 169.64 162.575 169.64 161.584V159.548H171.435C172.423 159.548 173.225 158.747 173.225 157.758C173.225 156.769 172.423 155.967 171.435 155.967L169.64 155.967V153.793C169.64 152.803 168.837 152 167.846 152Z"
        fill="#FFCE00" />
    <path fill-rule="evenodd" clip-rule="evenodd"
        d="M78.3782 152C77.3879 152 76.5852 152.803 76.5852 153.793V155.967L74.7904 155.967C73.8016 155.967 73 156.769 73 157.758C73 158.746 73.8016 159.548 74.7904 159.548H76.5852V161.584C76.5852 162.575 77.3879 163.377 78.3782 163.377C79.3685 163.377 80.1713 162.575 80.1713 161.584V159.548H81.9677C82.9566 159.548 83.7582 158.746 83.7582 157.758C83.7582 156.769 82.9566 155.967 81.9677 155.967L80.1713 155.967V153.793C80.1713 152.803 79.3685 152 78.3782 152Z"
        fill="#FFCE00" />
    <path fill-rule="evenodd" clip-rule="evenodd"
        d="M78.7838 53C77.7192 53 76.8562 53.863 76.8562 54.9276V57.2646H74.9248C73.8618 57.2646 73 58.1264 73 59.1894C73 60.2524 73.8618 61.1142 74.9248 61.1142H76.8562V63.3036C76.8562 64.3682 77.7192 65.2312 78.7838 65.2312C79.8484 65.2312 80.7115 64.3682 80.7115 63.3036V61.1142H82.6408C83.7038 61.1142 84.5656 60.2524 84.5656 59.1894C84.5656 58.1264 83.7038 57.2646 82.6408 57.2646H80.7115V54.9276C80.7115 53.863 79.8484 53 78.7838 53Z"
        fill="#FFCE00" />
    <path
        d="M178.518 77.9654C178.518 77.405 178.33 76.9435 177.954 76.5809C177.577 76.2116 176.95 75.882 176.072 75.5919C175.193 75.2952 174.51 75.0216 174.022 74.771C172.398 73.9469 171.586 72.7272 171.586 71.1118C171.586 70.0174 171.938 69.1174 172.642 68.412C173.259 67.7933 174.07 67.3952 175.073 67.2176C175.319 67.1742 175.507 66.9671 175.507 66.7178V65.4886C175.507 65.2188 175.726 65 175.995 65H176.691C176.961 65 177.18 65.2188 177.18 65.4886V66.749C177.18 66.9934 177.361 67.1978 177.6 67.2481C178.612 67.461 179.409 67.9248 179.993 68.6394C180.57 69.3399 180.895 70.2255 180.97 71.296C180.988 71.5652 180.767 71.7843 180.498 71.7843H178.944C178.674 71.7843 178.459 71.5648 178.431 71.2965C178.366 70.6938 178.176 70.2037 177.86 69.8262C177.469 69.3449 176.936 69.1042 176.26 69.1042C175.59 69.1042 175.068 69.2757 174.691 69.6185C174.315 69.9613 174.127 70.4525 174.127 71.0921C174.127 71.6657 174.311 72.1272 174.681 72.4766C175.057 72.8195 175.692 73.1458 176.584 73.4557C177.476 73.7656 178.177 74.0524 178.686 74.3161C179.195 74.5798 179.623 74.8831 179.972 75.226C180.32 75.5622 180.589 75.9512 180.777 76.393C180.965 76.8347 181.059 77.3523 181.059 77.9456C181.059 79.0599 180.697 79.9631 179.972 80.6554C179.338 81.2669 178.481 81.6571 177.4 81.8263C177.152 81.8652 176.96 82.0736 176.96 82.3252V83.3216C176.96 83.5915 176.742 83.8102 176.472 83.8102H175.786C175.516 83.8102 175.298 83.5915 175.298 83.3216V82.3316C175.298 82.0815 175.108 81.8737 174.861 81.8333C173.691 81.6417 172.774 81.193 172.108 80.4873C171.464 79.7973 171.101 78.9117 171.018 77.8306C170.998 77.5615 171.219 77.3424 171.489 77.3424H173.052C173.322 77.3424 173.537 77.5621 173.569 77.8301C173.64 78.429 173.851 78.9093 174.2 79.2709C174.646 79.7258 175.273 79.9532 176.082 79.9532C176.877 79.9532 177.48 79.7719 177.891 79.4093C178.309 79.0467 178.518 78.5654 178.518 77.9654Z"
        fill="#FFB800" stroke="#FFB800" stroke-width="1.5" />
    <path
        d="M115.319 43.6498C115.319 43.2327 115.186 42.8892 114.92 42.6193C114.653 42.3446 114.209 42.0992 113.588 41.8833C112.967 41.6625 112.483 41.4588 112.138 41.2723C110.989 40.659 110.414 39.7511 110.414 38.5489C110.414 37.7343 110.663 37.0645 111.161 36.5394C111.573 36.1059 112.105 35.8178 112.759 35.6754C113.001 35.6225 113.188 35.4172 113.188 35.169V34.4886C113.188 34.2188 113.407 34 113.677 34H113.883C114.153 34 114.372 34.2188 114.372 34.4886V35.1956C114.372 35.4387 114.552 35.641 114.788 35.7014C115.447 35.8707 115.972 36.2065 116.362 36.7087C116.749 37.2027 116.976 37.8202 117.043 38.5613C117.068 38.8301 116.846 39.0494 116.576 39.0494H115.763C115.493 39.0494 115.28 38.8294 115.242 38.5623C115.185 38.17 115.056 37.8466 114.853 37.592C114.577 37.2338 114.199 37.0547 113.721 37.0547C113.248 37.0547 112.878 37.1823 112.611 37.4374C112.345 37.6926 112.212 38.0582 112.212 38.5342C112.212 38.9611 112.343 39.3046 112.604 39.5647C112.87 39.8198 113.319 40.0627 113.95 40.2934C114.582 40.524 115.077 40.7375 115.437 40.9338C115.797 41.13 116.101 41.3558 116.347 41.6109C116.594 41.8612 116.784 42.1507 116.917 42.4795C117.05 42.8083 117.117 43.1935 117.117 43.6351C117.117 44.4644 116.86 45.1367 116.347 45.6519C115.923 46.0819 115.359 46.3649 114.653 46.501C114.407 46.5485 114.217 46.7553 114.217 47.0059V47.5114C114.217 47.7812 113.998 48 113.728 48H113.529C113.259 48 113.04 47.7812 113.04 47.5114V47.0096C113.04 46.7605 112.852 46.5544 112.608 46.5056C111.839 46.3518 111.231 46.0256 110.784 45.5268C110.352 45.04 110.098 44.4225 110.024 43.6741C109.997 43.4056 110.219 43.1861 110.489 43.1861H111.309C111.579 43.1861 111.791 43.4065 111.834 43.6729C111.897 44.0615 112.04 44.3777 112.264 44.6215C112.579 44.96 113.023 45.1293 113.595 45.1293C114.158 45.1293 114.584 44.9944 114.875 44.7245C115.171 44.4546 115.319 44.0964 115.319 43.6498Z"
        fill="#FFB800" stroke="#FFB800" stroke-width="1.5" />
    <path
        d="M100.319 170.65C100.319 170.233 100.186 169.889 99.9195 169.619C99.6532 169.345 99.2093 169.099 98.5879 168.883C97.9665 168.662 97.4832 168.459 97.138 168.272C95.9888 167.659 95.4143 166.751 95.4143 165.549C95.4143 164.734 95.6633 164.064 96.1615 163.539C96.5728 163.106 97.1052 162.818 97.7587 162.675C98.0012 162.622 98.1884 162.417 98.1884 162.169V161.489C98.1884 161.219 98.4072 161 98.6771 161H98.8834C99.1533 161 99.3721 161.219 99.3721 161.489V162.196C99.3721 162.439 99.5522 162.641 99.7877 162.701C100.447 162.871 100.972 163.206 101.362 163.709C101.749 164.203 101.976 164.82 102.043 165.561C102.068 165.83 101.846 166.049 101.576 166.049H100.763C100.493 166.049 100.28 165.829 100.242 165.562C100.185 165.17 100.056 164.847 99.8529 164.592C99.5768 164.234 99.1995 164.055 98.7211 164.055C98.2476 164.055 97.8777 164.182 97.6114 164.437C97.3451 164.693 97.2119 165.058 97.2119 165.534C97.2119 165.961 97.3426 166.305 97.604 166.565C97.8703 166.82 98.3191 167.063 98.9504 167.293C99.5817 167.524 100.077 167.737 100.437 167.934C100.797 168.13 101.101 168.356 101.347 168.611C101.594 168.861 101.784 169.151 101.917 169.479C102.05 169.808 102.117 170.193 102.117 170.635C102.117 171.464 101.86 172.137 101.347 172.652C100.923 173.082 100.359 173.365 99.6533 173.501C99.4072 173.548 99.2167 173.755 99.2167 174.006V174.511C99.2167 174.781 98.998 175 98.7281 175H98.5291C98.2593 175 98.0405 174.781 98.0405 174.511V174.01C98.0405 173.761 97.8523 173.554 97.608 173.506C96.8391 173.352 96.2311 173.026 95.7842 172.527C95.352 172.04 95.0985 171.422 95.0236 170.674C94.9967 170.406 95.2188 170.186 95.4886 170.186H96.309C96.5789 170.186 96.7913 170.406 96.8342 170.673C96.8969 171.062 97.0401 171.378 97.2637 171.621C97.5794 171.96 98.0232 172.129 98.5953 172.129C99.1576 172.129 99.5842 171.994 99.8751 171.725C100.171 171.455 100.319 171.096 100.319 170.65Z"
        fill="#FFB800" stroke="#FFB800" stroke-width="1.5" />
    <path
        d="M145.839 186.407C145.839 185.871 145.668 185.429 145.325 185.082C144.983 184.729 144.412 184.413 143.613 184.136C142.814 183.852 142.193 183.59 141.749 183.35C140.271 182.562 139.533 181.394 139.533 179.849C139.533 178.801 139.853 177.94 140.493 177.265C141.048 176.681 141.773 176.302 142.669 176.129C142.913 176.082 143.099 175.876 143.099 175.627V174.489C143.099 174.219 143.318 174 143.588 174H144.133C144.402 174 144.621 174.219 144.621 174.489V175.658C144.621 175.901 144.801 176.105 145.038 176.159C145.942 176.366 146.656 176.807 147.18 177.483C147.701 178.148 147.997 178.989 148.067 180.004C148.086 180.273 147.865 180.492 147.595 180.492H146.27C146 180.492 145.786 180.273 145.757 180.004C145.696 179.437 145.523 178.975 145.24 178.618C144.884 178.158 144.399 177.927 143.784 177.927C143.176 177.927 142.7 178.091 142.358 178.42C142.015 178.748 141.844 179.218 141.844 179.83C141.844 180.379 142.012 180.82 142.348 181.155C142.69 181.483 143.267 181.795 144.079 182.091C144.891 182.388 145.528 182.662 145.991 182.915C146.454 183.167 146.844 183.457 147.161 183.785C147.478 184.107 147.722 184.479 147.893 184.902C148.064 185.325 148.15 185.82 148.15 186.388C148.15 187.454 147.82 188.319 147.161 188.981C146.591 189.559 145.824 189.93 144.859 190.095C144.612 190.138 144.422 190.345 144.422 190.596V191.511C144.422 191.781 144.203 192 143.933 192H143.398C143.128 192 142.909 191.781 142.909 191.511V190.602C142.909 190.353 142.721 190.146 142.476 190.102C141.429 189.915 140.606 189.488 140.008 188.82C139.426 188.164 139.096 187.324 139.018 186.299C138.998 186.03 139.219 185.811 139.489 185.811H140.823C141.093 185.811 141.307 186.03 141.339 186.298C141.406 186.862 141.597 187.314 141.911 187.656C142.316 188.091 142.887 188.309 143.623 188.309C144.345 188.309 144.894 188.136 145.268 187.789C145.648 187.442 145.839 186.981 145.839 186.407Z"
        fill="#FFB800" stroke="#FFB800" stroke-width="1.5" />
    <path
        d="M37.7493 137.088C37.7493 136.436 37.5302 135.899 37.0922 135.477C36.6541 135.047 35.924 134.664 34.9018 134.326C33.8796 133.981 33.0846 133.662 32.5167 133.371C30.6265 132.412 29.6814 130.992 29.6814 129.112C29.6814 127.839 30.0911 126.792 30.9105 125.971C31.5892 125.291 32.4682 124.839 33.5477 124.617C33.9409 124.537 34.2447 124.205 34.2447 123.803V122.787C34.2447 122.352 34.597 122 35.0315 122H35.4048C35.8394 122 36.1917 122.352 36.1917 122.787V123.845C36.1917 124.238 36.4844 124.566 36.867 124.658C37.956 124.922 38.8221 125.448 39.465 126.235C40.0968 127.003 40.4696 127.961 40.5835 129.109C40.6264 129.542 40.2688 129.895 39.8342 129.895H38.4631C38.0285 129.895 37.6862 129.54 37.6187 129.111C37.5238 128.508 37.3118 128.01 36.9826 127.616C36.5283 127.056 35.9077 126.776 35.1208 126.776C34.342 126.776 33.7336 126.976 33.2955 127.375C32.8575 127.774 32.6384 128.345 32.6384 129.089C32.6384 129.757 32.8534 130.294 33.2834 130.701C33.7214 131.1 34.4597 131.479 35.4981 131.84C36.5365 132.201 37.3518 132.534 37.944 132.841C38.5362 133.148 39.0351 133.501 39.4407 133.9C39.8463 134.291 40.1587 134.744 40.3777 135.258C40.5967 135.772 40.7063 136.375 40.7063 137.065C40.7063 138.362 40.2844 139.413 39.4407 140.218C38.7413 140.893 37.8089 141.336 36.6435 141.548C36.2449 141.621 35.9361 141.955 35.9361 142.36V143.103C35.9361 143.538 35.5839 143.89 35.1493 143.89H34.7882C34.3536 143.89 34.0013 143.538 34.0013 143.103V142.366C34.0013 141.963 33.696 141.63 33.3003 141.555C32.0306 141.316 31.0271 140.805 30.2899 140.023C29.5836 139.267 29.1673 138.309 29.0412 137.149C28.9942 136.717 29.3523 136.363 29.7868 136.363H31.1701C31.6047 136.363 31.9458 136.718 32.021 137.146C32.126 137.744 32.3602 138.231 32.7236 138.607C33.2428 139.137 33.9729 139.401 34.914 139.401C35.8388 139.401 36.5405 139.19 37.0191 138.768C37.5059 138.346 37.7493 137.786 37.7493 137.088Z"
        fill="#FFB800" stroke="#FFB800" stroke-width="1.5" />
    <defs>
        <filter id="filter0_d_1_3235" x="29" y="60" width="167" height="111.899"
            filterUnits="userSpaceOnUse" color-interpolation-filters="sRGB">
            <feFlood flood-opacity="0" result="BackgroundImageFix" />
            <feColorMatrix in="SourceAlpha" type="matrix"
                values="0 0 0 0 0 0 0 0 0 0 0 0 0 0 0 0 0 0 127 0" result="hardAlpha" />
            <feOffset dy="4" />
            <feGaussianBlur stdDeviation="10" />
            <feColorMatrix type="matrix"
                values="0 0 0 0 0.317647 0 0 0 0 0.317647 0 0 0 0 0.317647 0 0 0 0.12 0" />
            <feBlend mode="normal" in2="BackgroundImageFix" result="effect1_dropShadow_1_3235" />
            <feBlend mode="normal" in="SourceGraphic" in2="effect1_dropShadow_1_3235"
                result="shape" />
        </filter>
        <clipPath id="clip0_1_3235">
            <rect width="105.497" height="21.5026" fill="white"
                transform="translate(59.751 115.646)" />
        </clipPath>
    </defs>
</svg>
